<?xml version="1.0" encoding="utf-8"?>
<!-- Generator: Adobe Illustrator 21.0.2, SVG Export Plug-In . SVG Version: 6.00 Build 0)  -->
<svg version="1.0" id="Layer_1" xmlns="http://www.w3.org/2000/svg" xmlns:xlink="http://www.w3.org/1999/xlink" x="0px" y="0px"
	 viewBox="0 0 512 512" enable-background="new 0 0 512 512" xml:space="preserve">
<polygon fill="none" stroke="#000000" stroke-width="10.6968" stroke-linecap="round" stroke-linejoin="round" points="196.7,229 
	196.7,229 196.7,229 "/>
<g>
	<path fill="#F6AD79" d="M280.9,250.9c0,0,4.9-0.5,11.6,6.4c6.7,6.9,22.8,48.4,25.1,49.7c2.4,1.3,18.9-14.8,21.9-18.5
		c3-3.7,7.5-14,9.9-14.4c2.4-0.4,8.2,0.6,11.4-1.1c2.2-1.2,4.6-2.3,6-2.9c0.5-0.2,1,0.3,0.8,0.7c-0.3,0.8-0.9,2.2-2.5,3.2
		c-2.4,1.5-2,1.4-3.9,1.9c0,0,3.6,0,6.7-0.4c3.1-0.4,5.7-1.3,6.3-1.1c0.6,0.2,0.5,2.6-7.1,3.6c0,0,9.1,0,11.5-0.5
		c0,0,1.6,1.3-0.6,1.9c0,0,2.3-0.4,2.6,1.2c0.3,1.3-11.1,2.8-11.1,2.8s1.3,1.1,5.1,1c2,0,3.6-0.2,4.6-0.3c0.8-0.1,1.1,0.9,0.5,1.3
		c-0.6,0.3-1.5,0.7-2.8,0.9c-4.3,0.7-12.1-0.7-14.5-1.3c-2.3-0.7-8.2-1.3-9.2-1.2c-1,0.1-22.8,36.5-31.8,39.3
		c-8.5,2.6-31.7-27.9-32.4-30.9c-2.2-10.2-5.6-24.2-7.8-29.1C279.1,258.4,280.9,250.9,280.9,250.9z"/>
	<path fill="#F0986B" d="M351,286.9c-6.8,8.9-27.1,35.2-31.7,34.1c-8.5-2-30.3-38.5-30.3-38.5l-2.1,0.3c0.8,3.3,1.5,6.6,2.2,9.5
		c0.7,3,23.9,33.6,32.4,30.9C328.9,320.9,345.1,295.6,351,286.9z"/>
	<path fill="#F0986B" d="M361.2,276c1.9-0.5,1.5-0.4,3.9-1.9c1.6-1,2.2-2.4,2.5-3.2c0.2-0.5-0.3-1-0.8-0.7c-1.4,0.6-3.8,1.8-6,2.9
		c-2.6,1.4-6.9,1-9.7,1c0.7,0.1,1.6,0.4,2.6,0.6C356.2,275.3,361.2,276,361.2,276z"/>
</g>
<g id="layer1" transform="translate(-208.87296,-103.88673)" inkscape:groupmode="layer" inkscape:label="Layer 1">
	<g id="g4137">
		
			<radialGradient id="path3677_1_" cx="703.7598" cy="-672.4828" r="31.1687" gradientTransform="matrix(0.6338 -4.967509e-02 -1.083857e-02 -0.1936 15.3217 248.0365)" gradientUnits="userSpaceOnUse">
			<stop  offset="0" style="stop-color:#939393"/>
			<stop  offset="1" style="stop-color:#606263"/>
		</radialGradient>
		<path id="path3677" sodipodi:nodetypes="csssssccc" fill="url(#path3677_1_)" d="M458.4,350c-4.3-0.8-9.2-1.9-9.3-2
			s3.4-2.2,5.6-3.4c9.2-5.1,14.2-6.4,18.6-5c1.3,0.4,4.3,1.8,5.9,2.7c3,1.5,9.9,6.1,9.6,6.2c-0.1,0-5.9,1-11.6,1.7l-10.5,1.2
			L458.4,350L458.4,350z"/>
		<path id="path4129" sodipodi:nodetypes="cscc" fill="#261410" d="M378.7,537.1c0,0,0.1,11.4,3.8,12.5c2.6,0.8,6-6.6,6-6.6
			L378.7,537.1z"/>
		<path id="path4127" sodipodi:nodetypes="cscc" fill="#261410" d="M418,586.4c0,0,1.1,13.8,5.6,14.5c6,0.9,12.7-13.4,12.7-13.4
			L418,586.4z"/>
		<path id="path4131" sodipodi:nodetypes="cscc" fill="#261410" d="M538.6,566.2c0,0,3.6,12.8,7.6,11.7c4.9-1.3,3.1-17.5,3.1-17.5
			L538.6,566.2z"/>
		<path id="path3935" sodipodi:nodetypes="cccccccccc" fill="#765110" d="M421.4,591.8l-1.8-2.6l6.6-34.9
			c3.5-18.9,6.9-37.3,7.6-41.1l1.6-7.5l1.7,1.8l1.3,1.6l-7.3,41.4l-7.7,43.3L421.4,591.8z"/>
		<path id="path3713" sodipodi:nodetypes="cccccsscc" fill="#241C10" d="M435.9,505.6l1.4-0.4c0.6-0.1,21.1-4.2,45.5-9.2l44.7-9.2
			l1.3,1.6c0.9,0.9,1.9,1.8,1.6,1.9c-0.6,0.3-90.3,18.4-91.4,18.5c-0.4,0-0.8-0.8-1.5-1.6L435.9,505.6z"/>
		<path id="path3689" sodipodi:nodetypes="cscccsscccccccccscsc" fill="#282828" stroke="#2B292B" stroke-width="0.3802" d="
			M435.5,504.9c0-0.4,3.4-19.6,6.1-33.4c3.7-18.8,13.7-66.4,20-95.6l5.2-24.3l11.1-1.5c5.9-0.7,10.9-1.4,11.1-1.3
			c0.4,0.5,38.8,137.1,38.4,137.2l-16.5,3.9l-18.2,3.4l-3-46.2c-1.1-17.8-2.4-44.8-3.2-59.9l-1.9-27.3l-2.7,0.7
			c-1.6,0.3-4,0.7-5.9,1l-3.5,0.5l0.3,8.7c0.2,5,1.4,35.2,2.6,67l2.2,58.4l-39.8,8.3C437.1,504.8,435.5,505,435.5,504.9z"/>
		<path id="path3687" sodipodi:nodetypes="ccccc" fill="#F4F4F6" stroke="#000000" stroke-width="0.7604" d="M472.6,362.4l5.1,134.4
			l14.5-3.2l-7.8-133L472.6,362.4L472.6,362.4z"/>
		<path id="path2822-1" sodipodi:nodetypes="cc" fill="none" stroke="#000000" stroke-width="0.7604" d="M435.4,505.3l92.1-18.6"/>
		<path id="path2816" sodipodi:nodetypes="ccccccccc" fill="none" stroke="#000000" stroke-width="1.7828" d="M423.7,593.6l15-84.7
			l-3.5-3.7c10.8-60.5,31.6-153.7,31.6-153.7l22.5-2.8l38.2,138l3.7,4l20.4,73.4L423.7,593.6L423.7,593.6z"/>
		<g id="g3702" transform="matrix(0.99781284,-0.0661024,0.0661024,0.99781284,-17.176504,23.742626)">
			<path id="path2848" sodipodi:nodetypes="cccccc" fill="#E5E9E9" stroke="#000000" stroke-width="0.7604" d="M473,508.3
				l70.5-111.7l-3.8-3.6l-74.1,115.7l5.3,3.9L473,508.3z"/>
			<g id="g3691" transform="matrix(0.9933217,0.11537768,-0.11537768,0.9933217,27.810058,-48.201552)">
				<path id="path2873" sodipodi:nodetypes="cccccc" fill="#989695" stroke="#000000" stroke-width="0.7604" d="M537.3,423.6
					c2.8-2.3,5.4-16.8,3.1-18.5l-2.2,0.7l-4,15.2L537.3,423.6L537.3,423.6z"/>
				<path id="path2871" fill="#D0CFD2" stroke="#000000" stroke-width="0.7604" d="M535.7,420.7l4.7-15.7l16.8,12.1l-11.5,10.7
					L535.7,420.7z"/>
				<path id="path2875" sodipodi:nodetypes="ccccc" fill="#606263" stroke="#000000" stroke-width="0.7604" d="M545.2,427.4
					l-2.3-1.5l-0.8,1.3l1.8,1.2L545.2,427.4z"/>
				<path id="path3649_1_" fill="none" stroke="#000000" stroke-width="0.7604" d="M545.3,408.4"/>
			</g>
		</g>
		<path id="path2820" sodipodi:nodetypes="csc" fill="none" stroke="#000000" stroke-width="0.7604" d="M448.5,348
			c0,0,13.9-9,21-9.2c6.7-0.1,19.9,9.8,19.9,9.8"/>
		<path id="path2822" sodipodi:nodetypes="cc" fill="none" stroke="#000000" stroke-width="0.7604" d="M438.5,509l92.3-18.4"/>
		<path id="path2824" sodipodi:nodetypes="cc" fill="none" stroke="#000000" stroke-width="0.7604" d="M419.6,589.4l15.6-84.4"/>
		<path id="path3717" fill="none" stroke="#505050" stroke-width="0.5323" d="M490.1,488.6l2.6,2.3"/>
		<path id="path3717-8" fill="none" stroke="#505050" stroke-width="0.5323" d="M495.8,478.1l2.6,2.3"/>
		<path id="path3717-2" fill="none" stroke="#505050" stroke-width="0.5323" d="M501.4,467.9l2.6,2.3"/>
		<path id="path3717-8-9" fill="none" stroke="#505050" stroke-width="0.5323" d="M505.4,460.3l2.6,2.3"/>
		<path id="path3717-6" fill="none" stroke="#505050" stroke-width="0.5323" d="M509.4,452.7l2.6,2.3"/>
		<path id="path3717-8-0" fill="none" stroke="#505050" stroke-width="0.5323" d="M512.9,446.4l2.6,2.3"/>
		<path id="path3717-3" fill="none" stroke="#505050" stroke-width="0.5323" d="M516.4,440.2l2.6,2.3"/>
		<path id="path3717-5" fill="none" stroke="#505050" stroke-width="0.5323" d="M533.6,408.3l2.6,2.3"/>
		<path id="path3717-8-4" fill="none" stroke="#505050" stroke-width="0.5323" d="M535.1,405.6l2.6,2.3"/>
		<path id="path3717-54" fill="none" stroke="#505050" stroke-width="0.5323" d="M536.4,403.2l2.6,2.3"/>
		<path id="path3717-85" fill="none" stroke="#505050" stroke-width="0.5323" d="M522.1,429.6l2.6,2.3"/>
		<path id="path3717-8-2" fill="none" stroke="#505050" stroke-width="0.5323" d="M519.4,434.6l2.6,2.3"/>
		<path id="path3717-85-2" fill="none" stroke="#505050" stroke-width="0.5323" d="M524.6,424.9l2.6,2.3"/>
		<path id="path3717-85-7" fill="none" stroke="#505050" stroke-width="0.5323" d="M537.5,401.1l2.6,2.3"/>
		<path id="path3717-85-3" fill="none" stroke="#505050" stroke-width="0.5323" d="M538.4,399.4l2.6,2.3"/>
		<path id="path3717-85-6" fill="none" stroke="#505050" stroke-width="0.5323" d="M539.2,398.1l2.6,2.3"/>
		<path id="path3717-85-63" fill="none" stroke="#505050" stroke-width="0.5323" d="M539.9,396.7l2.6,2.3"/>
		<path id="path3717-85-4" fill="none" stroke="#505050" stroke-width="0.5323" d="M540.5,395.6l2.6,2.3"/>
		<path id="path3717-85-72" fill="none" stroke="#505050" stroke-width="0.5323" d="M541,394.6l2.6,2.3"/>
		<path id="path3717-85-8" fill="none" stroke="#505050" stroke-width="0.5323" d="M541.5,393.8l2.6,2.3"/>
		<path id="path3717-85-0" fill="none" stroke="#505050" stroke-width="0.5323" d="M542,392.9l2.6,2.3"/>
		<path id="path3717-85-76" fill="none" stroke="#505050" stroke-width="0.5323" d="M544.5,388.2l2.6,2.3"/>
		<path id="path3717-85-1" fill="none" stroke="#505050" stroke-width="0.5323" d="M546.2,385.2l2.6,2.3"/>
		<path id="path3933" sodipodi:nodetypes="cc" fill="none" stroke="#000000" stroke-width="0.7604" d="M485.5,492l-6.8-128.5"/>
		<path id="path3941" fill="none" stroke="#000000" stroke-width="0.3802" d="M485,486l-4.8,0.7"/>
		<path id="path3941-9" fill="none" stroke="#000000" stroke-width="0.3802" d="M489.4,474.7l-4.8,0.7"/>
		<path id="path3941-0" fill="none" stroke="#000000" stroke-width="0.3802" d="M484,465.5l-4.8,0.7"/>
		<path id="path3941-91" fill="none" stroke="#000000" stroke-width="0.3802" d="M488.5,454.3l-4.8,0.7"/>
		<path id="path3941-90" fill="none" stroke="#000000" stroke-width="0.3802" d="M482.9,445.9l-4.8,0.7"/>
		<path id="path3941-98" fill="none" stroke="#000000" stroke-width="0.3802" d="M487.5,434.4l-4.8,0.7"/>
		<path id="path3941-3" fill="none" stroke="#000000" stroke-width="0.3802" d="M482,426.1l-4.8,0.7"/>
		<path id="path3941-06" fill="none" stroke="#000000" stroke-width="0.3802" d="M486.7,418.2l-4.8,0.7"/>
		<path id="path3941-2" fill="none" stroke="#000000" stroke-width="0.3802" d="M481.4,412.6l-4.8,0.7"/>
		<path id="path3941-7" fill="none" stroke="#000000" stroke-width="0.3802" d="M485.9,405.5l-4.8,0.7"/>
		<path id="path3941-6" fill="none" stroke="#000000" stroke-width="0.3802" d="M480.7,401l-4.8,0.7"/>
		<path id="path3941-71" fill="none" stroke="#000000" stroke-width="0.3802" d="M485.3,395.2l-4.8,0.7"/>
		<path id="path3941-8" fill="none" stroke="#000000" stroke-width="0.3802" d="M480.1,391.2l-4.8,0.7"/>
		<path id="path3941-5" fill="none" stroke="#000000" stroke-width="0.3802" d="M484.7,386.4l-4.8,0.7"/>
		<path id="path3941-68" fill="none" stroke="#000000" stroke-width="0.3802" d="M479.8,383.4l-4.8,0.7"/>
		<path id="path3941-83" fill="none" stroke="#000000" stroke-width="0.3802" d="M484.6,379.2l-4.8,0.7"/>
		<path id="path3941-52" fill="none" stroke="#000000" stroke-width="0.3802" d="M479.2,377.1l-4.8,0.7"/>
		<path id="path3941-05" fill="none" stroke="#000000" stroke-width="0.3802" d="M484.3,373.8l-4.8,0.7"/>
		<path id="path3941-27" fill="none" stroke="#000000" stroke-width="0.3802" d="M479,371.9l-4.8,0.7"/>
		<path id="path3941-34" fill="none" stroke="#000000" stroke-width="0.3802" d="M484.1,368.9l-4.8,0.7"/>
		<path id="path4133" d="M468.3,361.8l19.9-3.2l-1.1-9.6l-19.2,2.5L468.3,361.8z"/>
		
			<path id="path4135" sodipodi:cx="354.44031" sodipodi:cy="121.24394" sodipodi:rx="1.5034955" sodipodi:ry="1.3286704" sodipodi:type="arc" fill="#D9DBD8" stroke="#505050" stroke-width="0.3533" d="
			M479.2,352.9c0,0.7-0.5,1.3-1.1,1.3c-0.6,0-1.1-0.6-1.1-1.3s0.5-1.3,1.1-1.3S479.2,352.2,479.2,352.9z"/>
		<path id="path2818" sodipodi:nodetypes="cccc" fill="none" stroke="#000000" stroke-width="1.7828" d="M423.4,593.8l-46.7-57.3
			l71.8-188.5l18.2,3.4"/>
	</g>
</g>
<linearGradient id="SVGID_1_" gradientUnits="userSpaceOnUse" x1="822.8459" y1="244.6127" x2="822.8459" y2="234.429" gradientTransform="matrix(-1 0 0 1 1080.723 0)">
	<stop  offset="0" style="stop-color:#FFC9BA"/>
	<stop  offset="1" style="stop-color:#F0A48C"/>
</linearGradient>
<path fill="url(#SVGID_1_)" d="M269.2,242.7c-2.5-2-7.2-5.6-7.1-18.6l-10.5-1.3c0,0-0.8,11.2-5.1,19.9
	C249.8,244.7,265.6,248.6,269.2,242.7z"/>
<path fill="#E68F70" d="M251.7,222.8l10.5,1.3c-0.2,3.6-0.1,6.7,0.2,9.3c-2.5-0.5-7-1.6-10.4-4.3
	C251.9,225.4,251.7,222.8,251.7,222.8z"/>
<path fill="#F0986B" d="M180,300.7c0.3,3.1,0.2,6.2-0.4,9.3c0.4-1.4,1.2-2.6,1.9-3.8c2.1-3.7,1.5-4.4,4.8-7l39.7-28.1
	c-6.1,5.5-36.4,28.9-44.2,24.2"/>
<g>
	<path fill="none" d="M219.5,461.3c0.1,0,0.2,0,0.3,0.1l0.5-2.8c-0.2,0.1-0.5,0.2-0.7,0.2C219.8,459.6,219.7,460.5,219.5,461.3z"/>
	<path fill="none" d="M325.2,462.9c0.1,0.1,0.2,0.2,0.3,0.3c0.1-0.1,0.2-0.3,0.2-0.4L325.2,462.9z"/>
	
		<radialGradient id="SVGID_2_" cx="281.2299" cy="427.101" r="52.1082" gradientTransform="matrix(1.1066 0 0 1.0984 -32.7191 -31.6971)" gradientUnits="userSpaceOnUse">
		<stop  offset="0" style="stop-color:#FFBD47"/>
		<stop  offset="1" style="stop-color:#E89232"/>
	</radialGradient>
	<path fill="url(#SVGID_2_)" d="M340.4,453.4l-0.1-0.3c0,0-0.1,0.1-0.1,0.1C340.3,453.3,340.3,453.3,340.4,453.4z"/>
	
		<radialGradient id="SVGID_3_" cx="281.2299" cy="427.101" r="52.1082" gradientTransform="matrix(1.1066 0 0 1.0984 -32.7191 -31.6971)" gradientUnits="userSpaceOnUse">
		<stop  offset="0" style="stop-color:#FFBD47"/>
		<stop  offset="1" style="stop-color:#E89232"/>
	</radialGradient>
	<path fill="url(#SVGID_3_)" d="M301.8,468.3L301.8,468.3C301.9,468.3,301.9,468.3,301.8,468.3C301.9,468.3,301.8,468.3,301.8,468.3
		z"/>
	
		<radialGradient id="SVGID_4_" cx="281.2299" cy="427.1811" r="52.0729" gradientTransform="matrix(1.1066 0 0 1.0984 -32.7191 -31.6971)" gradientUnits="userSpaceOnUse">
		<stop  offset="0" style="stop-color:#FFBD47"/>
		<stop  offset="1" style="stop-color:#E89232"/>
	</radialGradient>
	<path fill="url(#SVGID_4_)" d="M325.2,462.9l0.5-0.1c0-0.1,0.1-0.2,0.1-0.3c0.3-0.5,0.6-0.9,1-1.2c-1.3-0.6-2.7-1.4-2.3-3
		c0.6-2.8,2.9-1.9,4.9-1.3c2.2,0.6,4.9,0.4,6.9,1.1c1.2,0.4,1.4,1,2.1,1.8l3.6-0.8l-0.9-3.1c-0.2,0.1-0.5,0.2-0.9,0.4l-0.3-0.1
		c-0.5-0.5-1.4-0.8-1.5-1.6c0-0.1,0-0.1,0-0.2c-0.3-0.2-0.5-0.3-0.8-0.6c0,0.1-0.1,0.2-0.2,0.3c-0.5,0.5-1.4-0.3-1.8-0.6
		c-1-0.9-1.7-2.8-1.3-4c0.3-0.7,1.6-2.6,2.5-2.3c0.5,0.1,0.6,0.5,0.6,1c0.2-0.1,0.5-0.2,0.8-0.3c0,0,0.1,0,0.1,0
		c-0.1-0.3,0.1-0.6,0.2-0.9l-2.4-8.6c-0.4,0-0.6,0-0.6,0c-1.7-1.3-1.5-3-0.5-4.1l-1.8-6.4c-0.5,0.4-1.2,0.7-2,0.9
		c0.9-0.2-3.4-0.1-2.5,0.3c-1.4-0.6-1.8-0.8-2.3-2.2c-1.1-3.2,2.4-5.3,5.2-4.5l-1.1-3.9c-1.4,1.3-3.4,2.8-5.1,2.3
		c-2.3-0.7-2.4-2.2-1.6-3.5c-0.3-0.1-0.6-0.2-0.9-0.3c0,0-0.1,0.1-0.1,0.1c-2.5,1-3.7-3.4-3.6-4.9c0-1.1,0.6-1.9,0.7-2.9
		c0.1-1.3-0.4-2.4-0.5-3.9c0-2.7,1.4-4.8,3.6-6.2c0.7-0.5,1.3-0.7,1.9-0.8l-1-3.5c-2.3,1.3-5.2,2.1-7.4,1.3
		c-1.5-0.6-5.9-3.7-5.3-5.8c0.3-1.1,1.2-1.4,2.3-1.4c-0.1-0.2-0.2-0.4-0.3-0.6l-29.1,5.9c0.7,0.5,1.1,1.5,1.2,2.6
		c-1.3,0.9-2.8,0.2-3.1-1c-0.8,0.4-1.7,0.5-2.5,0.4c0,0.1,0,0.3,0,0.4c-0.2,1.9-4.2,3.1-6.5,3.4c-2.2,0.3-4.5-0.7-5.8-2.5l-7.1,1.4
		c0.9,0.9,1.4,2.2,2.7,3c1.8,1,4.1-0.3,4.6,2.9c0.3,2.4-2,3.4-2.7,5.5c-0.6,1.9,0.5,5.1-2,5.8c-1,0.3-4-1.2-4.2-2
		c0.1,0,0.2,0,0.4,0.1c-0.6-0.3-1.2-0.6-1.8-1.1c-0.2,0.3-0.7,0.5-1.5,0.6c-2.9,0.2-4.3-9.7-3.8-11.8c0.1-0.6,0.4-1.1,0.7-1.5l-5,1
		c0.1,0.4,0.2,0.7,0.3,0.4c-0.5,1.4-0.7,1.8-2.1,2.4c-1.9,0.8-3.5-0.1-4.4-1.6l-12.2,2.5l-0.2,1.2c2.2-0.2,5.6,0.1,6.2,1.7
		c0.4,1.1-0.1,1.9-1,2.5c0.5,0.3,1.1,0.6,1.6,1.1c0.1,0.1,0.1,0.1,0.2,0.2c0.7-0.7,1.8-0.9,2.9-0.8c0.7,1.5-0.3,2.8-1.5,2.9
		c0.3,0.8,0.2,1.7,0,2.5c0.1,0,0.3,0,0.4,0.1c1.8,0.5,2.4,4.6,2.3,6.9c-0.1,3.5-3.7,7-7.3,5.4c-2.9-1.2-2.6-3.9-2.1-6.5
		c-0.7,0.2-1.4,0.2-2.1,0.2c0.3,1.4-0.3,3.6-1.1,4.5c-1.1,1.3-1.7,1.4-2.4,1l-0.6,3.4c2.1-1.2,5-1,6.7,0.8c3,3.1-1.5,8.4-4.4,5.5
		c-1.3,2.3-1.3,4.2-3.6,1.5c0-0.1-0.1-0.1-0.1-0.2l-3,16.9c0.1,0,0.3,0,0.4,0c0.5,1.2,0,2.2-0.9,2.6l-0.5,2.8c0,0,0.1,0,0.1,0
		c1.8,0.6,2.2,4.7,2,7c-0.2,2.4-2,4.8-4.4,5.4l-0.5,2.9c1,0.4,1.9,1,2.6,1.8c1.7,1.9,0.9,2.8,1.1,4.8c0.2,1.4,1.4,1.9,0.7,3.4
		l30.1-6.9c-0.8-1.2-1.5-3.2-1.2-3.8c0.1,0.1,0.2,0.2,0.2,0.3c-0.3-0.7-0.5-1.4-0.7-2.2c-0.4,0.1-1-0.1-1.7-0.6
		c-2.6-2,3.7-11.3,5.7-12.7c2.4-1.7,6-1.4,8,0.7c2.4,2.4,0.3,4.7,1.3,7.3c0.8,2.2,3.7,2.8,1.7,5.7c-1.5,2.3-4.2,1.3-6.4,2.7
		c-0.5,0.3-1,0.7-1.4,1.2l26.4-6.1c-0.1-1.3-0.1-2.6-0.2-3.9c0-0.5,0-1-0.1-1.5c0-0.3,0-0.6-0.1-0.9c2.1,0.8,4.2,2,4.8,2.6
		c0.6,0.7,1,1.5,1.1,2.4l6.4-1.5c-1.1-0.5-2-1.1-2.5-1.6c-1-0.9-1.2-2.2-2.1-3.1c-1.1-1.2-2.6-1.7-3.9-2.9c-2.5-2.2-3.3-5.3-2.7-8.5
		c0.7-3.8,2.6-3.7,4.8-5.9c1.7-1.7,0.8-3.8,4.2-4.2c2.8-0.4,4.3,0.8,3.6,2.4c0.3,0,0.6-0.1,0.9-0.1c0.7,0,1.4,0.1,1.9,0.2
		c-0.2-1.8-0.4-3.7,1.6-4.4c3.4-1.2,3.9,1.8,4.7,4.2c0.8,2.7,2.9,5.3,3.5,7.9c0.4,1.7-0.2,2.3-0.6,3.9c-0.3,1.7-0.4,2.1-0.4,4
		c0,1.3,0.1,3.4-0.3,5.2l14.8-3.4C323.8,462.5,324.6,462.3,325.2,462.9z M325.7,443.5C325.7,443.4,325.7,443.4,325.7,443.5
		C325.7,443.4,325.7,443.4,325.7,443.5c-0.1,0.2,3.4-1.7,2.4-1.6c1.6-0.1,2.1-0.1,3.4,1c2.9,2.8-0.1,7-3.6,7.1
		C323.5,450.2,322.7,445.9,325.7,443.5z M317.8,421.1c1.9-0.5,4.1,0.6,4.9,2.4c0.9,2.1-1,3-1,4.9c-0.1,1.6,1.6,2.7-0.4,4
		c-1.5,1.1-3-0.2-4.7,0.1c-1.5,0.2-3.3,2.1-4.7,0.7c-0.5-0.5-0.5-3.1-0.1-3.5c0,0.1,0.1,0.2,0.1,0.3c0-0.5,0-1,0.1-1.5
		c-0.3,0-0.6-0.3-0.9-0.8C309.9,425.8,316.2,421.5,317.8,421.1z M267.6,413.8c0.6-3,2.2-2.9,4-4.6c1.4-1.4,0.7-3,3.5-3.3
		c2.3-0.2,3.4,0.8,2.8,2.1c0.2,0,0.5-0.1,0.8,0c0.6,0,1.1,0.1,1.6,0.2c-0.1-1.4-0.2-3,1.4-3.5c2.7-0.9,3.1,1.5,3.6,3.5
		c0.6,2.2,2.2,4.3,2.6,6.4c0.3,1.4-0.2,1.8-0.5,3.1c-0.3,1.4-0.4,1.7-0.4,3.2c0,1.7,0,5.4-1.9,6.4c-2.2,1.2-3.2,0.2-3.7-1.3
		c-0.3,0.2-0.6,0.3-0.9,0.4c0,0.1,0,0.1,0,0.1c-1,2.5-5,0.3-6.1-0.9c-0.8-0.8-0.9-1.7-1.6-2.5c-0.8-0.9-2.1-1.4-3.1-2.4
		C267.6,418.9,267.1,416.4,267.6,413.8z M258.8,424.7C258.8,424.7,258.8,424.7,258.8,424.7C258.8,424.6,258.8,424.7,258.8,424.7
		c-0.1,0.2,3.3-1,2.4-1.1c1.5,0.1,2,0.2,2.9,1.4c2.2,2.9-1,6.3-4.3,5.9C255.9,430.5,255.7,426.5,258.8,424.7z M255.2,432.1
		c-0.9,1.3-3.6,2.5-5.1,2.3c-3.6-0.5-5.6-4.8-3.8-8c2.1-3.7,8.5-0.9,6.5,2.6C255.4,429.7,257.2,429.1,255.2,432.1z M246.7,416.5
		c1.1-0.4,1.7,1,2.6,1c0.4,0,2.5-0.6,2.5-0.6c4.4,1.6,0.8,7.3-3.2,5.6C246.2,421.5,242.7,417.7,246.7,416.5z M235,435.5
		c1.6-2,6.2-4.3,6.4-0.1c0,1.2-1.5,1.4-1.7,2.2c-0.1,0.4-0.1,2.5-0.1,2.5C236.7,443.9,232.2,438.9,235,435.5z M223.7,443.8
		c1.6-3.6,5.4-2.7,6.3,0.8c0,0,0,0,0,0.1c0,0,0-0.1,0-0.1c-0.1-0.1,0.1,3.4,0.4,2.6c-0.5,1.4-0.7,1.8-2.1,2.4
		C224.8,450.8,222.5,446.8,223.7,443.8z M228.2,461.7c1.1-0.3,1.7,1.1,2.6,1.1c0.4,0,2.5-0.5,2.5-0.5c4.4,1.8,0.6,7.3-3.4,5.5
		C227.5,466.7,224.1,462.9,228.2,461.7z M236.1,477.6c-0.9,1.3-3.6,2.4-5.2,2.1c-3.6-0.6-5.4-5-3.5-8.1c2.3-3.6,8.6-0.6,6.4,2.9
		C236.4,475.3,238.2,474.8,236.1,477.6z M240.7,476.7c-3.9-0.6-3.9-4.6-0.8-6.3c0,0,0,0,0.1-0.1c0,0-0.1,0-0.1,0.1
		c-0.1,0.2,3.3-0.9,2.4-1c1.5,0.2,1.9,0.3,2.8,1.5C247.3,473.9,243.9,477.2,240.7,476.7z M246.8,456.3c-0.7,1.8,0.3,5.1-2.2,5.8
		c-1,0.2-3.9-1.4-4.1-2.1c0.1,0,0.2,0.1,0.4,0.1c-0.6-0.3-1.2-0.7-1.7-1.1c-0.2,0.3-0.7,0.5-1.5,0.5c-2.9,0.1-3.9-9.9-3.3-11.9
		c0.7-2.5,3.3-4.3,5.9-4c3,0.4,2.9,3,5,4.3c1.8,1.1,4.1-0.1,4.4,3C250,453.2,247.6,454.1,246.8,456.3z M254.8,447.4
		c-2.1-0.8-5.9,0.1-6.5-2.8c-0.2-1.1,1.8-4.4,2.6-4.6c0,0.1-0.1,0.3-0.1,0.4c0.4-0.6,0.8-1.3,1.4-1.9c-0.4-0.3-0.6-0.8-0.6-1.7
		c0-3.3,11.5-4,13.9-3.2c2.9,0.9,4.8,4,4.4,6.9c-0.5,3.4-3.6,3.1-5.2,5.5c-1.3,2-0.1,4.7-3.7,4.9
		C258.1,451.1,257.3,448.4,254.8,447.4z M276.8,471.9c-0.1,0.4-0.2,0.7-0.2,1.1c-0.1,0.3-0.1,0.5-0.2,0.8c0,0,0,0,0,0
		c-1-1.3-3.8-2-3.1-4c0.2-0.8,2.7-2.2,3.3-2c-0.1,0.1-0.1,0.1-0.2,0.2c0.4-0.3,1-0.5,1.5-0.7C277.5,468.8,277.2,470.3,276.8,471.9z
		 M279.1,458.4c0,2.2-1.2,3.9-3.1,5.1c-2.2,1.3-3,0.3-5.1,0.2c-1.6-0.1-2.3,1.3-4-0.3c-1.4-1.3-1.5-2.5-0.3-2.8
		c-0.2-0.1-0.3-0.3-0.5-0.4c-0.3-0.3-0.6-0.7-0.8-1c-0.8,0.9-1.7,1.8-2.9,1.1c-2.1-1.1-0.8-2.7,0.1-4.2c1-1.6,1.4-3.8,2.5-5.2
		c0.7-1,1.3-0.9,2.2-1.4c1-0.6,1.3-0.7,2.2-1.6c1.1-1,3.3-3,5-2.5c1.9,0.7,2,1.9,1.3,2.9c0.3,0.1,0.5,0.2,0.8,0.3c0,0,0.1,0,0.1-0.1
		c2.1-0.8,3,2.9,2.9,4.2c0,0.9-0.6,1.5-0.7,2.4C278.7,456.2,279.1,457.2,279.1,458.4z M285,440.2c-0.8,1.5,0.3,3.4-2.3,3.8
		c-2,0.3-2.8-1.5-4.7-2.1c-1.6-0.4-4.3,0.5-4.9-1.5c-0.3-0.8,0.9-3.3,1.5-3.5c0,0.1,0,0.2,0,0.3c0.2-0.5,0.5-1,0.8-1.5
		c-0.3-0.2-0.5-0.5-0.5-1.2c-0.3-2.4,8-3.8,9.7-3.4c2.1,0.4,3.8,2.5,3.7,4.6C288.2,438.4,285.9,438.4,285,440.2z M288,404.9
		c-0.5-1.6-0.7-6.9,1.3-7.7c1.1-0.4,1.9,0.1,2.5,0.9c0.3-0.5,0.6-1.1,1-1.6c0.1-0.1,0.1-0.1,0.2-0.2c-0.7-0.6-1-1.7-0.9-2.8
		c1.5-0.7,2.8,0.2,2.9,1.4c0.8-0.3,1.7-0.3,2.6,0c0-0.1,0-0.3,0.1-0.4c0.5-1.8,4.6-2.4,6.9-2.4c3.5,0.1,7.1,3.5,5.6,7.2
		c-1.2,2.9-3.9,2.6-6.5,2.2c0.2,0.7,0.3,1.4,0.2,2.1c1.4-0.3,3.7,0.3,4.6,1c2.3,1.9,0.8,2.2-0.2,4.7l-0.7,0.2
		c-1.5-0.2-3.8,0.4-4.9-0.9c-0.1-0.1-0.2-0.3-0.3-0.4c-0.7,0.1-1.5,0.1-2.2,0.1c0.1,0.2,0.1,0.5,0,0.8c-0.3,1.6-3,1.5-4.3,1.4
		C293,410.2,288.9,407.8,288,404.9z M297.7,423c-1,0.3-1.3,0.4-2.3-0.1c-2.3-1.3-1-4.4,1.2-5c2.7-0.8,3.9,1.9,2.3,3.9
		C299.4,421.2,297.1,423.2,297.7,423z M301.1,432.7c-0.4,1.8-2.3,1.8-3.5,3.2c-0.9,1.2-1.1,3.8-3,3.6c-0.7-0.1-2.5-2-2.4-2.5
		c0.1,0.1,0.1,0.1,0.2,0.1c-0.3-0.4-0.7-0.8-0.9-1.2c-0.3,0.2-0.6,0.2-1.2,0c-2.1-0.7-0.3-8,0.6-9.4c1.1-1.6,3.5-2.3,5.3-1.4
		c2.1,1,1.3,2.9,2.5,4.3C299.7,430.6,301.7,430.4,301.1,432.7z M301.7,417.2c-1.9,0.3-2.9,1.1-2.4-1.3c0.2-1.1,1.6-2.6,2.7-2.9
		c2.5-0.7,5,1.7,4.7,4.2C306.3,420.2,301.4,420,301.7,417.2z M307.2,423.8c-0.3,0.1-1.4,1.1-1.4,1.1c-3.4,0.1-2.6-4.6,0.6-4.6
		c1.8,0,5.1,1.5,2.9,3.5C308.6,424.3,307.8,423.6,307.2,423.8z M311.2,436.6c1.2-0.6,2,0.8,3,0.7c0.5-0.1,2.5-1.1,2.5-1.1
		c5.1,1,2.2,7.8-2.5,6.7C311.5,442.1,307.1,438.6,311.2,436.6z M317.9,455.4c-4,0.1-6.9-4.3-5.5-8c1.7-4.4,9.1-2.4,7.5,1.8
		c2.9,0.2,4.8-0.7,3.1,2.9C322.3,453.6,319.7,455.4,317.9,455.4z"/>
	
		<radialGradient id="SVGID_5_" cx="281.2299" cy="427.101" r="52.1082" gradientTransform="matrix(1.1066 0 0 1.0984 -32.7191 -31.6971)" gradientUnits="userSpaceOnUse">
		<stop  offset="0" style="stop-color:#FFBD47"/>
		<stop  offset="1" style="stop-color:#E89232"/>
	</radialGradient>
	<path fill="url(#SVGID_5_)" d="M218.4,482.5c-0.6-0.5-1.3-0.7-2.1-0.9c0,0-0.1,0-0.1,0l-0.1,0.7
		C216.8,481.9,217.7,481.9,218.4,482.5z"/>
	<line fill="#916338" x1="284.9" y1="472.2" x2="283.5" y2="472.5"/>
	<line fill="#916338" x1="301.8" y1="468.3" x2="300.8" y2="468.5"/>
	<path fill="#916338" d="M255.7,476.6c3.1-2,4.2-2.2,3.9-5.7c-0.2-2.5-0.2-4.8-2.5-5.6c-6-2.2-4.6,8.2-7.2,8.9
		c0.2,0.8,0.4,1.5,0.7,2.2C252.7,478.9,252.7,478.5,255.7,476.6z"/>
	<path fill="#916338" d="M244.5,457.3c1-3.1,1.6-3.8-0.5-6.1c-1.6-1.6-2.8-3.2-4.9-2.5c-5.4,1.8,1.6,8.3,0.1,10.2
		c0.6,0.4,1.1,0.8,1.7,1.1C243.7,460.6,243.5,460.3,244.5,457.3z"/>
	<path fill="#916338" d="M285.1,471.6c0.4-1.8-0.5-2.6-1.8-3c0.1,1.3,0.1,2.6,0.2,3.9l1.4-0.3C285,472,285.1,471.8,285.1,471.6z"/>
	<path fill="#916338" d="M338.8,448.5c-0.2-0.2-0.4-0.4-0.4-0.6c0,0-0.1,0-0.1,0c-0.3,0.1-0.6,0.2-0.8,0.3c0,0.7-0.4,1.5-0.5,1.9
		c-0.3,1.1-0.2,1.2,0.2,2.2c0.2,0.5,0.7,1,0.5,1.6c0.2,0.2,0.5,0.4,0.8,0.6c0.1-0.6,0.8-1.3,1.4-1.3c0.1,0,0.2,0,0.3,0.1
		c0,0,0.1-0.1,0.1-0.1l-1.3-4.7L338.8,448.5z"/>
	<path fill="#916338" d="M301.9,463.2c1-3.2,0.9-3-1-5.9c-2.7-4-1.2-5.3-1-9.5c0-0.6-0.1-1.2-0.1-1.9c-0.6-0.1-1.2-0.2-1.9-0.2
		c-0.3,0-0.6,0-0.9,0.1c-0.2,0.5-0.6,1-1.2,1.5c-1.5,1.2-4.4,0.9-5.1,3c-0.9,2.9,1.8,5.1,1.7,8c-0.1,3-1.5,5.1,2.2,6.7
		c1.4,0.6,6.9,0.2,6.2,3.3l1-0.2c0,0,0,0,0.1,0C301.4,466.7,301.5,464.6,301.9,463.2z"/>
	<path fill="#916338" d="M276.9,409.1c-1.2,1-3.6,0.6-4.1,2.3c-0.8,2.3,1.3,4.1,1.2,6.5c-0.2,2.4-1.3,4.1,1.6,5.5
		c1.2,0.5,5.8,0.3,4.9,3.1c0.3-0.1,0.6-0.2,0.9-0.4c-0.4-1.3-0.2-2.9,0.2-4c0.9-2.5,0.8-2.4-0.6-4.7c-2.1-3.3-0.8-4.2-0.6-7.6
		c0-0.4,0-1-0.1-1.5c-0.5-0.1-1-0.2-1.6-0.2c-0.3,0-0.5,0-0.8,0C277.7,408.3,277.3,408.7,276.9,409.1z"/>
	<path fill="#916338" d="M328.2,462c-0.4-0.3-0.8-0.5-1.3-0.7c-0.3,0.3-0.7,0.7-1,1.2c-0.1,0.1-0.1,0.2-0.1,0.3l2.6-0.6
		C328.3,462.1,328.2,462.1,328.2,462z"/>
	<path fill="#916338" d="M327,414.6c1.3-0.6,1.9-0.9,2.2-1.4l-2.7-9.7c-0.5,1-0.9,2.1-1.8,2.9c-1.9,1.6-3.9,1.9-2.8,5
		c0.4,1.2,3.9,4.3,1.2,5.6c0.3,0.2,0.6,0.3,0.9,0.3C324.7,416.1,325.9,415,327,414.6z"/>
	<path fill="#916338" d="M253.7,444.7c3.5,1.3,4.3,2,7.1-0.3c2-1.7,3.8-3.1,3.1-5.5c-1.9-6.3-9.6,1.4-11.7-0.3
		c-0.5,0.6-1,1.2-1.4,1.9C249.9,443.7,250.3,443.4,253.7,444.7z"/>
	<path fill="#916338" d="M277,440.1c2.6,0.6,3.3,1.1,5.1-0.8c1.3-1.4,2.5-2.5,1.8-4.2c-1.9-4.4-6.8,1.8-8.4,0.7
		c-0.3,0.5-0.6,1-0.8,1.5C274.2,439.7,274.4,439.5,277,440.1z"/>
	<path fill="#916338" d="M318.1,390.1c2.2,0.6,2.8,0.4,4.6-0.1l-0.9-3.3l-8.3,1.7c0.1,0.2,0.2,0.4,0.3,0.6
		C315.3,389,317.2,389.8,318.1,390.1z"/>
	<path fill="#916338" d="M297.1,406.2c0.9,0.6,2.8,0.9,3.1,2.1c0.7,0.1,1.5,0,2.2-0.1c-0.7-1.3-0.3-3.5,0.8-4.4
		c0.2-0.1,0.5-0.2,0.7-0.3c0-0.7,0-1.4-0.2-2.1c-0.5-0.1-0.9-0.2-1.4-0.2c-1-2.1-5.1-3.3-4.6-6.3c-0.9-0.2-1.7-0.2-2.6,0
		c0,0.4,0,0.8-0.3,1.2l-0.1,0.8c-0.7,0-1.3-0.2-1.7-0.6c-0.1,0.1-0.1,0.1-0.2,0.2c-0.4,0.5-0.8,1.1-1,1.6c0.9,1.3,1.4,3.3,1.8,4.2
		C294.7,404.7,295.1,404.8,297.1,406.2z"/>
	<path fill="#916338" d="M295.7,436c1.5-1.9,2.1-2.3,1.2-4.5c-0.7-1.6-1.2-3-2.9-3c-4.4,0-1,6.3-2.5,7.3c0.3,0.5,0.6,0.9,0.9,1.2
		C294.3,438.2,294.3,438,295.7,436z"/>
	<path fill="#916338" d="M282.5,394.5L282.5,394.5l-2.9,0.6c0.1,0.3,0.2,0.7,0.2,1.1c0.9,0.1,1.8,0,2.5-0.4
		C282.3,395.4,282.3,395,282.5,394.5z"/>
	<path fill="#52331F" d="M289.4,471.2c0.1-2.6-1.9-4.5-4.6-5c-2.1-0.4-12.2,1.3-11.9,4.2c0.1,0.8,0.3,1.2,0.7,1.5l-1,1.5
		c-0.5,0.1-1,0.8-1.4,2L289.4,471.2z"/>
	<path fill="#916338" d="M267.9,460.5c1.3,0.2,2.4,1.8,3.8,1.2c1.8-0.8,1.8-3.1,3.3-4.3c1.6-1.3,3.2-1.5,2.4-4
		c-0.3-1-3.1-3.7-0.9-4.7c-0.2-0.1-0.5-0.2-0.8-0.3c-0.6,0.9-1.7,1.8-2.5,2.1c-2,0.9-1.9,0.9-2.5,3c-0.9,3.1-2.1,2.9-4.3,4.6
		c-0.3,0.2-0.6,0.6-0.9,0.9c0.2,0.3,0.4,0.7,0.8,1c0.1,0.2,0.3,0.3,0.5,0.4C267,460.5,267.4,460.5,267.9,460.5z"/>
	<path fill="#916338" d="M228.3,413.5l-1.3,7.2c0.8,0.2,1.5,0.5,1.8,1c0.1,0.2,0.2,0.5,0.3,0.7c0.7,0.1,1.4,0,2.1-0.2
		c0.1-0.5,0.2-0.9,0.3-1.4c2.1-0.9,3.4-5,6.4-4.5c0.2-0.9,0.3-1.7,0-2.5c-0.4,0-0.8-0.1-1.2-0.3l-0.8-0.1c0-0.7,0.2-1.2,0.6-1.6
		c-0.1-0.1-0.1-0.1-0.2-0.2c-0.5-0.4-1.1-0.8-1.6-1.1c-1.3,0.9-3.4,1.4-4.2,1.7C229.4,412.7,228.8,413.1,228.3,413.5z"/>
	<path fill="#916338" d="M262.8,411.4c0.9-3.1,1.5-3.9-0.8-6.1c-1.6-1.6-3-3.1-5-2.3c-5.4,2.1,1.9,8.2,0.5,10.1
		c0.6,0.4,1.2,0.8,1.8,1.1C262.2,414.8,262,414.5,262.8,411.4z"/>
	<path fill="#916338" d="M276.7,471.7c0.1,0.1,0.1,0.1,0.2,0.2c9.9,2.7,6.8-1.4,7.1-3c-0.5,0.2-7.2-1.2-7.6-0.9
		C274.6,469.7,274.9,469.7,276.7,471.7z"/>
	<path fill="#52331F" d="M247.9,399.3c0,0,0,0.1,0,0.1C247.9,399.3,247.9,399.3,247.9,399.3z"/>
	<path fill="#52331F" d="M264.6,446c1.6-2.4,4.7-2.1,5.2-5.5c0.5-2.9-1.5-6-4.4-6.9c-2.3-0.8-13.9-0.1-13.9,3.2
		c0,0.9,0.2,1.4,0.6,1.7c2.1,1.7,9.8-5.9,11.7,0.3c0.7,2.4-1.1,3.7-3.1,5.5c-2.7,2.4-3.6,1.6-7.1,0.3c-3.4-1.3-3.8-1-2.9-4.2
		c0-0.1,0.1-0.3,0.1-0.4c-0.9,0.1-2.8,3.4-2.6,4.6c0.6,2.9,4.4,1.9,6.5,2.8c2.5,1,3.3,3.7,6.1,3.5C264.6,450.7,263.3,448,264.6,446z
		"/>
	<path fill="#52331F" d="M279.5,452.8c0.1-1.3-0.8-5-2.9-4.2c0,0-0.1,0-0.1,0.1c-2.2,1,0.6,3.7,0.9,4.7c0.8,2.5-0.9,2.8-2.4,4
		c-1.5,1.2-1.5,3.5-3.3,4.3c-1.4,0.6-2.5-1-3.8-1.2c-0.5-0.1-0.9,0-1.2,0c-1.1,0.3-1.1,1.6,0.3,2.8c1.7,1.5,2.4,0.2,4,0.3
		c2,0.1,2.8,1.1,5.1-0.2c1.9-1.1,3.1-2.9,3.1-5.1c0-1.2-0.4-2.2-0.3-3.2C278.9,454.4,279.5,453.7,279.5,452.8z"/>
	<path fill="#52331F" d="M284.6,431.2c-1.7-0.4-10,1-9.7,3.4c0.1,0.6,0.3,1,0.5,1.2c1.7,1.1,6.6-5,8.4-0.7c0.7,1.6-0.5,2.8-1.8,4.2
		c-1.8,1.9-2.4,1.4-5.1,0.8c-2.6-0.6-2.8-0.5-2.4-2.8c0-0.1,0-0.2,0-0.3c-0.6,0.2-1.8,2.7-1.5,3.5c0.7,2,3.4,1,4.9,1.5
		c1.8,0.5,2.7,2.4,4.7,2.1c2.6-0.4,1.5-2.3,2.3-3.8c1-1.8,3.2-1.9,3.3-4.4C288.4,433.7,286.7,431.7,284.6,431.2z"/>
	<path fill="#52331F" d="M266.3,458.2c2.2-1.7,3.5-1.5,4.3-4.6c0.6-2.2,0.5-2.2,2.5-3c0.9-0.4,2-1.2,2.5-2.1
		c0.7-1.1,0.7-2.3-1.3-2.9c-1.7-0.6-3.9,1.5-5,2.5c-1,0.9-1.2,1-2.2,1.6c-0.9,0.5-1.5,0.5-2.2,1.4c-1,1.4-1.4,3.6-2.5,5.2
		c-0.9,1.4-2.2,3-0.1,4.2c1.2,0.7,2.1-0.3,2.9-1.1C265.7,458.8,266,458.5,266.3,458.2z"/>
	<path fill="#52331F" d="M245.3,447.8c-2.1-1.3-2-4-5-4.3c-2.6-0.3-5.2,1.5-5.9,4c-0.6,2.1,0.4,12,3.3,11.9c0.8,0,1.2-0.2,1.5-0.5
		c1.4-1.9-5.6-8.3-0.1-10.2c2.1-0.7,3.3,0.9,4.9,2.5c2.2,2.3,1.5,3.1,0.5,6.1c-1,3-0.8,3.3-3.6,2.7c-0.1,0-0.2-0.1-0.4-0.1
		c0.1,0.7,3.1,2.3,4.1,2.1c2.5-0.6,1.6-3.9,2.2-5.8c0.8-2.2,3.1-3,2.9-5.4C249.4,447.7,247.1,448.9,245.3,447.8z"/>
	<path fill="#52331F" d="M242.4,469.4c0.9,0.1-2.6,1.2-2.4,1c-3.1,1.7-3.2,5.7,0.8,6.3c3.2,0.5,6.6-2.8,4.5-5.8
		C244.3,469.7,243.8,469.6,242.4,469.4z"/>
	<path fill="#52331F" d="M228.3,449.5c1.4-0.5,1.6-1,2.1-2.4c-0.3,0.8-0.5-2.7-0.4-2.6c-0.9-3.4-4.8-4.4-6.3-0.8
		C222.5,446.8,224.8,450.8,228.3,449.5z"/>
	<path fill="#52331F" d="M239.6,440.1c0,0-0.1-2.1,0.1-2.5c0.3-0.9,1.8-1,1.7-2.2c-0.1-4.2-4.7-1.9-6.4,0.1
		C232.2,438.9,236.7,443.9,239.6,440.1z"/>
	<path fill="#52331F" d="M230,444.6c0,0,0,0.1,0,0.1C230,444.6,230,444.6,230,444.6z"/>
	<path fill="#52331F" d="M248.6,422.5c4.1,1.7,7.7-4,3.2-5.6c0,0-2,0.6-2.5,0.6c-0.9,0-1.5-1.4-2.6-1
		C242.7,417.7,246.2,421.5,248.6,422.5z"/>
	<path fill="#52331F" d="M239.9,470.4C240,470.4,240,470.3,239.9,470.4C240,470.4,240,470.4,239.9,470.4z"/>
	<path fill="#52331F" d="M246.3,426.4c-1.8,3.1,0.2,7.5,3.8,8c1.6,0.2,4.2-1,5.1-2.3c2-3,0.2-2.4-2.4-3
		C254.8,425.5,248.4,422.7,246.3,426.4z"/>
	<path fill="#52331F" d="M302.5,408.3c0.1,0.1,0.2,0.3,0.3,0.4c1.2,1.3,3.4,0.7,4.9,0.9l0.7-0.2c1-2.5,2.6-2.8,0.2-4.7
		c-0.9-0.7-3.2-1.3-4.6-1c-0.3,0.1-0.5,0.2-0.7,0.3C302.1,404.7,301.8,407,302.5,408.3z"/>
	<path fill="#52331F" d="M233.8,474.5c2.1-3.5-4.1-6.5-6.4-2.9c-1.9,3.1-0.1,7.5,3.5,8.1c1.6,0.3,4.3-0.8,5.2-2.1
		C238.2,474.8,236.4,475.3,233.8,474.5z"/>
	<path fill="#52331F" d="M229.8,467.8c4,1.8,7.8-3.7,3.4-5.5c0,0-2,0.6-2.5,0.5c-0.9-0.1-1.5-1.5-2.6-1.1
		C224.1,462.9,227.5,466.7,229.8,467.8z"/>
	<path fill="#52331F" d="M246.3,404.3c1.4-0.6,1.6-1,2.1-2.4c-0.1,0.3-0.2,0.1-0.3-0.4l-6.1,1.2
		C242.8,404.2,244.4,405.1,246.3,404.3z"/>
	<path fill="#52331F" d="M231.5,420.9c-0.1,0.5-0.2,0.9-0.3,1.4c-0.5,2.6-0.7,5.3,2.1,6.5c3.6,1.5,7.2-2,7.3-5.4
		c0.1-2.2-0.5-6.3-2.3-6.9c-0.1,0-0.3-0.1-0.4-0.1C234.9,415.9,233.7,419.9,231.5,420.9z"/>
	<path fill="#52331F" d="M236.7,413.5c0.4,0.3,0.8,0.4,1.2,0.3c1.2-0.1,2.1-1.4,1.5-2.9c-1.1-0.1-2.2,0.1-2.9,0.8
		c-0.4,0.4-0.6,0.9-0.6,1.6L236.7,413.5z"/>
	<path fill="#52331F" d="M256.1,413.8c0.8-0.1,1.2-0.3,1.5-0.6c1.4-2-5.9-8.1-0.5-10.1c2-0.8,3.4,0.7,5,2.3c2.3,2.2,1.7,3,0.8,6.1
		c-0.9,3.1-0.7,3.4-3.5,2.8c-0.1,0-0.2,0-0.4-0.1c0.2,0.7,3.2,2.2,4.2,2c2.5-0.7,1.4-4,2-5.8c0.7-2.2,3-3.1,2.7-5.5
		c-0.4-3.1-2.7-1.8-4.6-2.9c-1.3-0.7-1.8-2-2.7-3l-7.5,1.5c-0.3,0.5-0.5,1-0.7,1.5C251.8,404.1,253.2,414,256.1,413.8z"/>
	<path fill="#52331F" d="M227.5,437.7c2.9,2.9,7.4-2.4,4.4-5.5c-1.8-1.8-4.7-2-6.7-0.8l-1.3,7.6c0,0.1,0.1,0.1,0.1,0.2
		C226.2,441.9,226.1,440,227.5,437.7z"/>
	<path fill="#52331F" d="M323,463.4l2.2-0.5C324.6,462.3,323.8,462.5,323,463.4z"/>
	<path fill="#52331F" d="M228.1,427c0.8-0.9,1.4-3.1,1.1-4.5c-0.1-0.3-0.2-0.5-0.3-0.7c-0.4-0.5-1.1-0.9-1.8-1l-1.3,7.3
		C226.4,428.3,227,428.3,228.1,427z"/>
	<path fill="#52331F" d="M230.6,412.3c0.9-0.3,2.9-0.8,4.2-1.7c0.9-0.6,1.4-1.4,1-2.5c-0.6-1.6-4-1.8-6.2-1.7l-1.3,7.1
		C228.8,413.1,229.4,412.7,230.6,412.3z"/>
	<path fill="#52331F" d="M306.3,420.3c-3.1,0-3.9,4.7-0.6,4.6c0,0,1.1-1,1.4-1.1c0.6-0.2,1.4,0.5,2,0
		C311.5,421.9,308.2,420.3,306.3,420.3z"/>
	<path fill="#52331F" d="M298.7,429.4c-1.2-1.5-0.4-3.3-2.5-4.3c-1.8-0.9-4.1-0.2-5.3,1.4c-0.9,1.3-2.8,8.7-0.6,9.4
		c0.6,0.2,0.9,0.1,1.2,0c1.5-1-1.9-7.3,2.5-7.3c1.7,0,2.2,1.4,2.9,3c1,2.2,0.3,2.6-1.2,4.5c-1.5,1.9-1.4,2.2-3.3,1
		c-0.1,0-0.1-0.1-0.2-0.1c-0.1,0.6,1.6,2.5,2.4,2.5c2,0.2,2.1-2.4,3-3.6c1.1-1.4,3-1.4,3.5-3.2C301.7,430.4,299.7,430.6,298.7,429.4
		z"/>
	<path fill="#52331F" d="M300.3,409.1c0.1-0.3,0-0.6,0-0.8c-0.3-1.3-2.2-1.5-3.1-2.1c-2-1.4-2.5-1.5-3.5-3.9
		c-0.4-0.8-0.9-2.9-1.8-4.2c-0.6-0.8-1.4-1.4-2.5-0.9c-2,0.8-1.8,6.1-1.3,7.7c0.9,2.9,5,5.3,8,5.6
		C297.3,410.6,300,410.7,300.3,409.1z"/>
	<path fill="#52331F" d="M294.9,396.2c0.3-0.4,0.3-0.8,0.3-1.2c-0.1-1.2-1.5-2.1-2.9-1.4c-0.1,1.1,0.2,2.2,0.9,2.8
		c0.4,0.4,0.9,0.6,1.7,0.6L294.9,396.2z"/>
	<path fill="#52331F" d="M302.3,401.2c0.5,0.1,0.9,0.2,1.4,0.2c2.7,0.4,5.3,0.6,6.5-2.2c1.5-3.6-2.1-7.1-5.6-7.2
		c-2.3-0.1-6.4,0.5-6.9,2.4c0,0.1-0.1,0.3-0.1,0.4C297.2,397.9,301.4,399.1,302.3,401.2z"/>
	<path fill="#52331F" d="M316.7,436.1c0,0-2.1,1-2.5,1.1c-1,0.1-1.9-1.3-3-0.7c-4.1,2.1,0.3,5.6,3.1,6.2
		C318.9,443.9,321.8,437.2,316.7,436.1z"/>
	<path fill="#52331F" d="M319.9,449.2c1.6-4.2-5.8-6.1-7.5-1.8c-1.4,3.7,1.5,8.1,5.5,8c1.7-0.1,4.4-1.8,5.2-3.4
		C324.7,448.5,322.9,449.4,319.9,449.2z"/>
	<path fill="#52331F" d="M306.7,417.1c0.3-2.5-2.2-4.9-4.7-4.2c-1.1,0.3-2.5,1.8-2.7,2.9c-0.5,2.5,0.5,1.6,2.4,1.3
		C301.4,420,306.3,420.2,306.7,417.1z"/>
	<path fill="#52331F" d="M296.6,417.8c-2.2,0.6-3.4,3.7-1.2,5c0.9,0.5,1.3,0.5,2.3,0.1c-0.7,0.2,1.6-1.8,1.2-1.3
		C300.6,419.7,299.4,417,296.6,417.8z"/>
	<path fill="#52331F" d="M326.5,426.8c0.5,1.4,0.9,1.6,2.3,2.2c-0.9-0.4,3.4-0.4,2.5-0.3c0.8-0.2,1.5-0.5,2-0.9L332,423l-0.2-0.7
		C328.9,421.5,325.4,423.7,326.5,426.8z"/>
	<path fill="#52331F" d="M327,414.6c-1,0.5-2.3,1.6-3,2.7c-0.8,1.3-0.7,2.8,1.6,3.5c1.6,0.5,3.7-1.1,5.1-2.3l-1.5-5.3
		C328.8,413.7,328.3,413.9,327,414.6z"/>
	<path fill="#52331F" d="M294.6,465.2c-3.7-1.6-2.3-3.7-2.2-6.7c0.1-2.9-2.6-5.2-1.7-8c0.7-2.1,3.6-1.8,5.1-3c0.6-0.5,1-1,1.2-1.5
		c0.7-1.6-0.8-2.8-3.6-2.4c-3.4,0.4-2.5,2.5-4.2,4.2c-2.1,2.2-4.1,2.1-4.8,5.9c-0.6,3.3,0.2,6.3,2.7,8.5c1.3,1.2,2.9,1.7,3.9,2.9
		c0.9,0.9,1.1,2.2,2.1,3.1c0.5,0.5,1.4,1.1,2.5,1.6l5.2-1.2C301.5,465.4,296,465.8,294.6,465.2z"/>
	<path fill="#52331F" d="M335.6,438.4c0,0,0.3,0,0.6,0l-1.1-4.1C334.1,435.4,333.9,437,335.6,438.4z"/>
	<path fill="#52331F" d="M338.8,448.5l0.2-0.2l-0.4-1.3c-0.2,0.3-0.3,0.6-0.2,0.9C338.4,448.1,338.6,448.4,338.8,448.5z"/>
	<path fill="#52331F" d="M318.1,390.1c-0.9-0.2-2.8-1.1-4.4-1.2c-1.1,0-2,0.3-2.3,1.4c-0.6,2,3.7,5.2,5.3,5.8
		c2.1,0.8,5.1,0.1,7.4-1.3l-1.4-4.9C320.9,390.5,320.3,390.7,318.1,390.1z"/>
	<path fill="#52331F" d="M259.8,430.9c3.2,0.4,6.5-3,4.3-5.9c-0.9-1.2-1.4-1.3-2.9-1.4c0.9,0.1-2.5,1.3-2.4,1.1
		C255.7,426.5,255.9,430.5,259.8,430.9z"/>
	<path fill="#52331F" d="M282.5,394.5c-0.2,0.4-0.2,0.9-0.1,1.3c0.3,1.2,1.8,1.9,3.1,1c-0.1-1.1-0.5-2.1-1.2-2.6L282.5,394.5
		L282.5,394.5z"/>
	<path fill="#52331F" d="M221.9,468.4c0.2-2.2-0.2-6.3-2-7c0,0-0.1,0-0.1,0l-2.2,12.4C219.9,473.2,221.7,470.8,221.9,468.4z"/>
	<path fill="#52331F" d="M273.4,400c2.2-0.3,6.2-1.5,6.5-3.4c0-0.2,0-0.3,0-0.4c0-0.4-0.1-0.8-0.2-1.1l-12.1,2.4
		C268.9,399.2,271.2,400.3,273.4,400z"/>
	<path fill="#52331F" d="M319.5,405.3c0,1.4,0.6,2.6,0.5,3.9c-0.1,1-0.7,1.8-0.7,2.9c0,1.6,1.1,6,3.6,4.9c0.1,0,0.1-0.1,0.1-0.1
		c2.7-1.3-0.8-4.4-1.2-5.6c-1.1-3,0.9-3.4,2.8-5c0.9-0.8,1.3-1.9,1.8-2.9l-1.5-5.2c-0.5,0.1-1.1,0.3-1.9,0.8
		C320.9,400.5,319.5,402.6,319.5,405.3z"/>
	<path fill="#52331F" d="M258.5,477.3c2.2-1.3,4.9-0.4,6.4-2.7c2-2.9-0.9-3.5-1.7-5.7c-0.9-2.6,1.1-4.9-1.3-7.3
		c-2-2.1-5.6-2.4-8-0.7c-2,1.4-8.3,10.7-5.7,12.7c0.7,0.5,1.2,0.7,1.7,0.6c2.6-0.6,1.1-11.1,7.2-8.9c2.3,0.8,2.3,3.1,2.5,5.6
		c0.3,3.5-0.8,3.7-3.9,5.7c-3,1.9-3.1,2.3-5.1-0.2c-0.1-0.1-0.2-0.2-0.2-0.3c-0.3,0.6,0.4,2.6,1.2,3.8l5.5-1.3
		C257.6,478.1,258,477.6,258.5,477.3z"/>
	<path fill="#52331F" d="M221.1,455.9c-0.1,0-0.3,0-0.4,0l-0.5,2.7C221.1,458.1,221.6,457.1,221.1,455.9z"/>
	<path fill="#52331F" d="M336.2,458.1c-2-0.7-4.7-0.4-6.9-1.1c-2-0.6-4.3-1.5-4.9,1.3c-0.4,1.6,1,2.3,2.3,3c0.5,0.2,1,0.5,1.3,0.7
		c0.1,0,0.1,0.1,0.2,0.1l10-2.3C337.7,459.1,337.4,458.6,336.2,458.1z"/>
	<path fill="#52331F" d="M308.6,461.6c-0.1-1.9,0-2.3,0.4-4c0.3-1.6,1-2.1,0.6-3.9c-0.6-2.6-2.7-5.2-3.5-7.9
		c-0.7-2.4-1.3-5.5-4.7-4.2c-1.9,0.7-1.8,2.6-1.6,4.4c0.1,0.7,0.2,1.3,0.1,1.9c-0.2,4.2-1.7,5.4,1,9.5c1.9,2.9,2,2.7,1,5.9
		c-0.4,1.4-0.5,3.4,0,5c0,0,0,0,0,0l6.3-1.5C308.7,465,308.6,462.9,308.6,461.6z"/>
	<path fill="#52331F" d="M337.2,452.4c-0.3-1-0.4-1.2-0.2-2.2c0.1-0.4,0.5-1.2,0.5-1.9c0-0.5-0.1-0.8-0.6-1
		c-0.9-0.3-2.3,1.6-2.5,2.3c-0.5,1.2,0.3,3.1,1.3,4c0.4,0.4,1.3,1.1,1.8,0.6c0.1-0.1,0.2-0.2,0.2-0.3
		C337.9,453.4,337.3,452.8,337.2,452.4z"/>
	<path fill="#52331F" d="M258.8,424.7C258.8,424.7,258.8,424.6,258.8,424.7C258.8,424.7,258.8,424.7,258.8,424.7z"/>
	<path fill="#52331F" d="M272.7,423.1c0.7,0.8,0.8,1.8,1.6,2.5c1.1,1.1,5.1,3.4,6.1,0.9c0-0.1,0-0.1,0-0.1c0.9-2.8-3.7-2.5-4.9-3.1
		c-2.9-1.4-1.8-3-1.6-5.5c0.1-2.4-2-4.2-1.2-6.5c0.6-1.7,3-1.4,4.1-2.3c0.5-0.4,0.8-0.8,1-1.1c0.6-1.3-0.5-2.3-2.8-2.1
		c-2.8,0.3-2.1,1.9-3.5,3.3c-1.8,1.7-3.3,1.6-4,4.6c-0.5,2.6,0,5.1,2,6.9C270.6,421.7,271.8,422.2,272.7,423.1z"/>
	<path fill="#52331F" d="M280.8,417.2c1.5,2.3,1.5,2.2,0.6,4.7c-0.4,1.1-0.5,2.7-0.2,4c0.4,1.5,1.5,2.4,3.7,1.3
		c1.9-1,1.9-4.7,1.9-6.4c0-1.5,0.1-1.9,0.4-3.2c0.3-1.3,0.8-1.7,0.5-3.1c-0.4-2.1-2-4.2-2.6-6.4c-0.5-2-0.9-4.4-3.6-3.5
		c-1.6,0.5-1.5,2.1-1.4,3.5c0,0.5,0.1,1.1,0.1,1.5C280,412.9,278.7,413.9,280.8,417.2z"/>
	<path fill="#52331F" d="M327.8,450c3.5-0.1,6.5-4.4,3.6-7.1c-1.2-1.1-1.7-1.1-3.4-1c1-0.1-2.5,1.8-2.4,1.6
		C322.7,445.9,323.5,450.2,327.8,450z"/>
	<path fill="#52331F" d="M339.9,453.2c-0.6,0-1.3,0.7-1.4,1.3c0,0.1,0,0.1,0,0.2c0.1,0.8,1,1.1,1.5,1.6l0.3,0.1
		c0.4-0.2,0.7-0.3,0.9-0.4l-0.7-2.6c-0.1,0-0.1-0.1-0.2-0.1C340.1,453.2,340,453.2,339.9,453.2z"/>
	<path fill="#52331F" d="M325.7,443.5C325.7,443.4,325.7,443.4,325.7,443.5C325.7,443.4,325.7,443.4,325.7,443.5z"/>
	<path fill="#916338" d="M218.4,487.5"/>
	<path fill="#916338" d="M218.4,487.5c0-0.2-0.1-0.4-0.1-0.7c0-1.2,1.3-2.6,0.5-3.8c-0.1-0.2-0.3-0.3-0.4-0.5
		c-0.7-0.6-1.6-0.6-2.3-0.2l-0.9,5.3"/>
	<path fill="#52331F" d="M215.1,487.5c-0.1-0.1-0.2-0.2-0.3-0.3"/>
	<path fill="#52331F" d="M215.1,487.5"/>
	<path fill="#52331F" d="M221.3,487.2c0.1-0.1,0.1-0.3,0.2-0.4l-3.1,0.7"/>
	<path fill="#52331F" d="M220.8,483.3c-0.3-2,0.6-2.9-1.1-4.8c-0.8-0.8-1.7-1.4-2.6-1.8l-0.9,4.9c0,0,0.1,0,0.1,0
		c0.8,0.2,1.5,0.4,2.1,0.9c0,0,0.1,0,0.1,0c0.1,0.1,0.3,0.3,0.4,0.4c0.8,1.2-0.5,2.6-0.5,3.8c0,0.2,0,0.5,0.1,0.7l3.1-0.7
		C222.2,485.2,221,484.7,220.8,483.3z"/>
	<path fill="#52331F" d="M218.5,482.6C218.4,482.5,218.4,482.5,218.5,482.6c0.1,0.1,0.2,0.2,0.4,0.4
		C218.7,482.8,218.6,482.7,218.5,482.6z"/>
	<path fill="#916338" d="M314.9,431.4c2.4-0.5,3.2-0.3,3.9-2.6c0.5-1.6,1.1-3-0.1-4.1c-3.2-2.9-4.9,4.1-6.7,3.8
		c-0.1,0.5-0.1,1.1-0.1,1.5C312.4,432.1,312.6,431.8,314.9,431.4z"/>
	<path fill="#52331F" d="M311.9,428.4c1.8,0.3,3.5-6.7,6.7-3.8c1.2,1.1,0.7,2.5,0.1,4.1c-0.7,2.3-1.5,2.1-3.9,2.6
		c-2.4,0.5-2.5,0.7-3.1-1.4c0-0.1,0-0.2-0.1-0.3c-0.4,0.4-0.4,2.9,0.1,3.5c1.3,1.4,3.2-0.4,4.7-0.7c1.7-0.3,3.2,1,4.7-0.1
		c2-1.4,0.3-2.5,0.4-4c0.1-1.9,1.9-2.8,1-4.9c-0.7-1.8-2.9-2.9-4.9-2.4c-1.6,0.4-7.9,4.7-6.7,6.6
		C311.3,428.2,311.6,428.4,311.9,428.4z"/>
</g>
<g>
	<path fill="none" d="M237.8,249.8l0.1-0.2c0,0-0.1,0-0.1,0C237.8,249.6,237.8,249.7,237.8,249.8z"/>
	
		<radialGradient id="SVGID_6_" cx="198.711" cy="422.9297" r="119.0495" gradientTransform="matrix(0.8629 0 0 0.7515 41.5564 46.7218)" gradientUnits="userSpaceOnUse">
		<stop  offset="0" style="stop-color:#FFBD47"/>
		<stop  offset="1" style="stop-color:#E89232"/>
	</radialGradient>
	<path fill="url(#SVGID_6_)" d="M178.1,406.2l-0.2,0.6c0.1-0.2,0.2-0.3,0.2-0.5C178.1,406.2,178.1,406.2,178.1,406.2z"/>
	
		<radialGradient id="SVGID_7_" cx="198.711" cy="422.9297" r="119.0495" gradientTransform="matrix(0.8629 0 0 0.7515 41.5564 46.7218)" gradientUnits="userSpaceOnUse">
		<stop  offset="0" style="stop-color:#FFBD47"/>
		<stop  offset="1" style="stop-color:#E89232"/>
	</radialGradient>
	<path fill="url(#SVGID_7_)" d="M186.9,383.4c0.3-0.6,0.8-1.2,1.2-1.7c-0.2-0.1-0.3-0.4-0.4-0.7l-0.8,2c0,0,0,0,0,0
		C186.9,383.2,186.9,383.3,186.9,383.4z"/>
	
		<radialGradient id="SVGID_8_" cx="198.711" cy="422.9297" r="119.0495" gradientTransform="matrix(0.8629 0 0 0.7515 41.5564 46.7218)" gradientUnits="userSpaceOnUse">
		<stop  offset="0" style="stop-color:#FFBD47"/>
		<stop  offset="1" style="stop-color:#E89232"/>
	</radialGradient>
	<path fill="url(#SVGID_8_)" d="M208.6,482l1.9,2.3c0.2,0,0.4-0.1,0.6-0.1l0.4-2.4c-0.2,0.1-0.4,0.2-0.6,0.2
		C210.1,482.2,209.4,481.9,208.6,482z"/>
	
		<radialGradient id="SVGID_9_" cx="198.711" cy="422.9297" r="119.0495" gradientTransform="matrix(0.8629 0 0 0.7515 41.5564 46.7218)" gradientUnits="userSpaceOnUse">
		<stop  offset="0" style="stop-color:#FFBD47"/>
		<stop  offset="1" style="stop-color:#E89232"/>
	</radialGradient>
	<path fill="url(#SVGID_9_)" d="M242.7,303.4c0.2,0.6,0.2,1.3,0.2,1.9c0.8-0.2,1.8-0.1,2.6,0.2c0.1-0.7,0.3-1.3,0.4-2
		C245,303.7,243.8,303.5,242.7,303.4z"/>
	
		<radialGradient id="SVGID_10_" cx="198.711" cy="422.9297" r="119.0495" gradientTransform="matrix(0.8629 0 0 0.7515 41.5564 46.7218)" gradientUnits="userSpaceOnUse">
		<stop  offset="0" style="stop-color:#FFBD47"/>
		<stop  offset="1" style="stop-color:#E89232"/>
	</radialGradient>
	<path fill="url(#SVGID_10_)" d="M249.2,288c0.3-1.5,0.6-2.9,0.9-4.4c-0.8,0.6-1.6,1.2-2.1,2.1c-1.1,1.7-0.8,5.3-3.4,5.4
		c-1,0-3.7-2.2-3.7-3c0.1,0.1,0.2,0.1,0.3,0.2c2.7,1.3,2.6,0.9,4.2-2c1.6-2.9,2.5-3.6,0.7-6.4c-1.3-2-2.2-3.8-4.5-3.6
		c-5.9,0.8-0.1,8.8-2,10.4c-0.3,0.3-0.8,0.4-1.6,0.2c-3-0.5-1.9-10.9-0.9-12.9c1.2-2.4,4.3-3.7,6.8-2.9c3,1,2.3,3.7,4.2,5.5
		c0.9,0.9,2.2,1,3.1,1.6c0.1-0.6,0.3-1.3,0.4-1.9l6.1-28.6l-8.7-1.7l-9.2-1.8l-1,2.7c0.1,0,0.2,0,0.3,0c0.5,1.3-0.3,2.4-1.3,2.6
		l-0.1,0.2c0.1,0.7,0.1,1.4-0.1,2.1c0.1,0,0.3,0,0.4,0.1c1.6,0.6,2,4.3,1.8,6.3c-0.2,3.2-3.5,6.2-6.8,4.7c-0.1-0.1-0.2-0.1-0.3-0.2
		l-3.7,9.6c0,0.3,0,0.5,0.1,0.8c0.2,1.4,1.5,1.8,0.4,3.5c-0.9,1.4-1.9,1.7-2.4,0.8l-2.9,7.5c1.8,0.7,3.4,1.8,4.1,3.3
		c0.6,1.3,1.5,6.2-0.2,7.1c-0.9,0.5-1.7,0.2-2.4-0.5c-0.2,0.5-0.4,1-0.7,1.6c0,0.1-0.1,0.1-0.1,0.2c0.7,0.5,1.1,1.4,1.2,2.4
		c-1.2,0.8-2.5,0.2-2.8-0.9c-0.7,0.4-1.5,0.5-2.3,0.4c0,0.1,0,0.3,0,0.4c-0.1,1-1.5,1.8-3,2.4l-2.4,6.3c0.3-0.1,0.6-0.2,1-0.2
		c2.1-0.2,3.1,0.7,2.5,1.9c0.2,0,0.4,0,0.7,0c0.5,0,1,0.1,1.4,0.2c-0.1-1.3-0.2-2.7,1.2-3.2c2.5-0.8,2.8,1.4,3.3,3.2
		c0.5,2,2,3.9,2.4,5.8c0.3,1.3-0.2,1.7-0.5,2.8c-0.3,1.2-0.4,1.5-0.4,2.9c0,1.6,0,4.9-1.7,5.9c-2,1.1-2.9,0.2-3.3-1.2
		c-0.2,0.2-0.5,0.3-0.8,0.4c0,0,0,0.1,0,0.1c-0.9,2.3-4.5,0.2-5.5-0.8c-0.7-0.7-0.8-1.6-1.4-2.3c-0.8-0.9-1.9-1.3-2.8-2.2
		c-0.3-0.3-0.6-0.6-0.8-1l-4.7,12.5c0.8,0,1.5,0.1,1.9,0.2c2.6,0.8,4.4,3.6,3.9,6.3c-0.5,3.1-3.3,2.9-4.7,5
		c-1.2,1.8-0.1,4.3-3.3,4.5c-1.5,0.1-2.4-0.7-3.3-1.6l-4.8,12.6c0.7-0.9,1.4-1.6,1.8-1.9c2.2-1.5,5.4-1.3,7.2,0.6
		c2.1,2.2,0.3,4.2,1.1,6.6c0.7,2,3.3,2.6,1.5,5.2c-1.4,2.1-3.8,1.2-5.8,2.4c-1.7,1-3.1,4.2-5.5,3.1c-0.9-0.4-2.2-3.6-1.8-4.3
		c0.1,0.1,0.1,0.2,0.2,0.3c-0.3-0.6-0.5-1.3-0.6-2c-0.4,0.1-0.9,0-1.5-0.5c-0.1-0.1-0.2-0.2-0.2-0.3l-3.8,9.9
		c2.7-1.7,9.8-2,11.5-1.5c2.6,0.8,4.4,3.6,3.9,6.3c-0.5,3.1-3.3,2.9-4.7,5c-1.2,1.8-0.1,4.3-3.3,4.5c-2.5,0.2-3.3-2.3-5.6-3.2
		c-1.6-0.7-4.4-0.1-5.5-1.6l-5.3,13.9c2.4-0.6,5.2,2.7,3.4,5.7c-1.3,2.2-5.1,5-6.2,1.7l-2.1,5.5c1.4,1.4,2.8,3.3,2.5,4.9
		c-0.6,2.7-2.2,2.9-3.8,2.1c0,0.4-0.2,0.7-0.3,1.1c-0.3-0.5-0.7-0.8-1.1-0.9l-3.9,10.3l0.3,0.4c0.4-1.4,1.4-2.6,3.1-3
		c2.7-0.6,4,1.5,5,3.7c0.4-0.5,0.9-0.9,1.5-1.3c0.2,0.2,0.4,0.3,0.6,0.4c1.2,0.4,3-0.5,3.6-1.7c0.4,0.5,0.8,1,1.2,1.6
		c0.1-0.2,0.3-0.3,0.6-0.4c1.4-0.6,2.7,1.4,3.3,2.4c1.3,2.5,1.7,6.7,0,8.9c-0.9,1.2-4.8,4.1-6.4,3.1c-0.9-0.6-0.9-1.5-0.6-2.4
		c-0.5,0.1-1.1,0.1-1.7,0.1c-0.1,0-0.2,0-0.2,0c0,0.3-0.1,0.5-0.3,0.8l9.1,11.4c1.8-3.5,8-1.8,6.6,1.9c2.7,0.2,4.3-0.6,2.8,2.6
		c-0.5,1.1-2.1,2.3-3.5,2.8l5.8,7c0-0.1,0.1-0.2,0.1-0.3c0.3-0.4,0.6-0.8,0.9-1.1c-1.2-0.6-2.4-1.2-2.1-2.7c0.5-2.5,2.6-1.7,4.4-1.2
		c2,0.6,4.4,0.3,6.2,1c1.2,0.4,1.3,1,2.2,1.9c0.9,0.9,1.1,1.1,2.3,1.8c0.2,0.1,0.4,0.2,0.6,0.4l1.5-8.4c0,0,0,0,0,0
		c-1.1,0.6-1.8-0.1-2.6-0.9c-0.1,0.3-0.3,0.5-0.4,0.7c0.5,0.2,1.1,1,1.2,1.4c0.3,1.2-0.3,0.9-1.2,1.4l-0.3-0.1
		c-0.4-0.4-1.3-0.8-1.3-1.5c0-0.1,0-0.1,0-0.2c-0.2-0.1-0.5-0.3-0.7-0.5c0,0.1-0.1,0.2-0.2,0.3c-0.5,0.4-1.3-0.2-1.7-0.6
		c-0.9-0.8-1.6-2.5-1.2-3.7c0.2-0.6,1.5-2.3,2.3-2.1c0.4,0.1,0.6,0.5,0.6,0.9c0.2-0.1,0.4-0.2,0.7-0.3c0,0,0.1,0,0.1,0
		c-0.1-0.4,0.1-0.8,0.4-1.1c0.6,0.1,0.8,0.7,0.6,1.2c0.3,0.1,0.6,0.3,0.8,0.6c0,0,0.1-0.1,0.1-0.1c0.6-0.4,2,0.3,2.7,0.9
		c0.2,0.2,0.4,0.4,0.6,0.7l3.1-16.9c0.3-1.9,0.7-3.7,1-5.4c-1.1-0.9-1.7-3.2-1.7-4.3c0-1,0.6-1.7,0.7-2.6c0.1-1.1-0.4-2.2-0.4-3.5
		c0-2.4,1.2-4.4,3.3-5.7c0.5-0.3,0.8-0.5,1.2-0.6c0.6-3.4,1.2-6.6,1.8-9.5c-0.4-0.2-2.1-0.8-2.1-0.8c-1.8-2.6,0.7-4.5,3-4.1
		c0.5-2.4,0.9-4.7,1.3-6.9c-0.7-0.7-0.9-1.2,0.3-1.8c2-10.6,3.3-17.5,4.5-23.4c-0.7-0.6-0.9-0.9-1-1.9c-0.1-1.4,0.8-2.2,1.9-2.5
		c0.3-1.6,0.6-3.1,0.9-4.7c-0.1-0.1-0.2-0.2-0.3-0.3c-0.9-0.8-1.1-2-1.9-2.8c-1-1.1-2.4-1.5-3.6-2.6c-2.3-2-3-4.8-2.5-7.8
		c0.6-3.5,2.4-3.4,4.3-5.4c1.5-1.6,0.7-3.5,3.8-3.8c2.5-0.3,3.9,0.7,3.2,2.2c0.3,0,0.5,0,0.8,0c0.1,0,0.1,0,0.1,0
		c0.7-3.5,1.5-7.2,2.3-11c-0.7,0.8-1.9,1-2.6,1.9c-0.9,1.1-1,3.4-2.8,3.3c-0.7-0.1-2.2-1.8-2.2-2.3c0.1,0.1,0.1,0.1,0.2,0.1
		c-0.3-0.3-0.6-0.7-0.9-1.1c-0.2,0.2-0.6,0.2-1.1,0c-1.9-0.6-0.3-7.3,0.6-8.5c1-1.5,3.1-2.1,4.7-1.3c1.9,0.9,1.2,2.6,2.3,4
		c0.7,0.8,1.8,0.9,2.1,1.7c0.7-3.5,1.5-7.2,2.3-10.9c-1-0.1-1.8-0.8-1.7-2c-1.7,0.3-2.6,1-2.2-1.2c0.2-1,1.5-2.4,2.5-2.6
		c0.9-0.2,1.8,0,2.5,0.4c0.2-1.2,0.5-2.3,0.7-3.5c-1,0-2,0-2.7-0.8c-0.1-0.1-0.2-0.2-0.2-0.4c-0.6,0.1-1.3,0.1-2,0.1
		c0.1,0.2,0.1,0.4,0,0.7c-0.3,1.5-2.7,1.4-3.8,1.3c-2.8-0.3-6.4-2.4-7.3-5.1c-0.4-1.4-0.6-6.3,1.2-7c1-0.4,1.7,0.1,2.3,0.9
		c0.2-0.5,0.5-1,0.9-1.5c0.1-0.1,0.1-0.1,0.2-0.2c-0.6-0.6-0.9-1.6-0.8-2.6c1.3-0.6,2.5,0.2,2.7,1.3c0.8-0.2,1.5-0.2,2.3,0
		c0-0.1,0-0.3,0.1-0.4c0.5-1.7,4.2-2.2,6.2-2.2c1.4,0,2.8,0.7,3.9,1.7c0.5-2.4,1-4.8,1.5-7.1c-0.1-0.1-0.3-0.2-0.4-0.3
		C248.7,288.6,248.9,288.3,249.2,288z M252.7,266.7c-0.8,1.2-3.3,2.2-4.7,1.9c-3.2-0.5-4.9-4.6-3.2-7.4c2.1-3.3,7.7-0.5,5.8,2.6
		C253,264.6,254.6,264.1,252.7,266.7z M245.5,252.2c1-0.3,1.5,1,2.3,1c0.4,0,2.2-0.5,2.2-0.5c4,1.6,0.5,6.7-3.1,5
		C244.9,256.8,241.9,253.3,245.5,252.2z M236.3,318.2c2.5-0.7,3.5,1.7,2.1,3.5c0.4-0.5-1.7,1.4-1.1,1.2c-0.9,0.3-1.2,0.4-2-0.1
		C233.2,321.6,234.3,318.8,236.3,318.2z M208.1,355.8c-0.7,0.8-1.6,1.6-2.6,1c-1.9-1-0.7-2.5,0.1-3.8c0.9-1.4,1.3-3.4,2.2-4.7
		c0.6-0.9,1.1-0.8,2-1.3c0.9-0.5,1.1-0.6,2-1.4c1-0.9,3-2.8,4.5-2.3c1.8,0.6,1.8,1.7,1.1,2.7c0.2,0.1,0.5,0.1,0.7,0.3
		c0,0,0.1,0,0.1-0.1c1.9-0.7,2.7,2.6,2.6,3.8c0,0.8-0.5,1.4-0.6,2.2c-0.1,0.9,0.3,1.9,0.3,2.9c0,2-1.1,3.6-2.8,4.6
		c-2,1.2-2.7,0.3-4.6,0.2c-1.5-0.1-2,1.2-3.6-0.2c-1.3-1.1-1.3-2.3-0.3-2.6c-0.1-0.1-0.3-0.2-0.4-0.4
		C208.5,356.5,208.3,356.2,208.1,355.8z M212.3,379.7c1,1.6,1.5,5.4-1.4,4.5c-0.8-0.3-0.6-1.4-1.2-1.8c-0.3-0.2-1.8-0.7-1.8-0.7
		C206,378.9,210.6,376.9,212.3,379.7z M197.6,397.7c0.9-1.4,1.3-3.4,2.2-4.7c0.6-0.9,1.1-0.8,2-1.3c0.9-0.5,1.1-0.6,2-1.4
		c1-0.9,3-2.8,4.5-2.3c1.7,0.6,1.8,1.7,1.1,2.7c0.2,0.1,0.5,0.1,0.7,0.3c0,0,0.1,0,0.1-0.1c1.7-0.6,2.5,1.9,2.6,3.3
		c-0.1,0.6-0.2,1.2-0.4,1.8c-0.1,0.3-0.2,0.5-0.2,0.8c0,0.1,0,0.2,0,0.3c-0.4,2.1-0.8,4.1-1.2,6.1c-0.4,0.4-0.8,0.8-1.4,1.1
		c-2,1.2-2.7,0.3-4.6,0.2c-1.5-0.1-2,1.2-3.6-0.2c-1.3-1.1-1.3-2.3-0.3-2.6c-0.1-0.1-0.3-0.3-0.4-0.4c-0.3-0.3-0.5-0.6-0.7-1
		c-0.7,0.8-1.5,1.6-2.6,1C195.6,400.4,196.8,399,197.6,397.7z M187.7,392.4c3.2-1.9,6.3,1.9,5.5,5.1c-1,4-5.1,3.5-6.5,0.1
		c0.4,0.9-0.5-3.4-0.7-2.5C186.3,393.6,186.4,393.1,187.7,392.4z M186,423.2c-0.9,1.1-1.9,0.3-2.9,0.8c-0.9,0.4-1,1.7-2.3,0.9
		c-1-0.6-0.7-1.8-1.3-2.7c-0.1-0.1-0.1-0.2-0.2-0.2c-0.7-0.7-1.1-1.6-1.2-2.5l0,0c0.4-0.4,1.4-0.9,1.6-0.8c0,0-0.1,0.1-0.1,0.1
		c0.3-0.2,0.6-0.3,0.9-0.4c-0.1-0.2,0-0.4,0.2-0.7c0.7-1.2,4.8,1.2,5.4,2C186.8,420.7,186.8,422.2,186,423.2z M186.8,410.5
		c-3.5-2.7,0.2-8.7,3.6-6.2c1-2.5,0.6-4.4,3.4-2c1.2,1.1,2.1,3.9,1.7,5.5C194.5,411.3,189.8,412.8,186.8,410.5z M188.6,452.3
		c-2.5-0.6-6.5-3.8-2.8-5.7c1-0.5,1.8,0.7,2.7,0.6c0.4-0.1,2.3-1,2.3-1C195.5,447.2,192.9,453.3,188.6,452.3z M200.9,458.9
		c-3.9,0.1-4.7-3.7-2-6c0,0,0,0,0.1-0.1c0,0-0.1,0.1-0.1,0.1c-0.1,0.2,3.1-1.5,2.2-1.4c1.5-0.1,1.9-0.1,3,0.9
		C206.8,454.9,204.1,458.7,200.9,458.9z M204.1,439.5c0.8-0.2-3.1-0.1-2.3,0.2c-1.2-0.5-1.6-0.7-2.1-2c-1.1-3.1,2.7-5.2,5.3-3.9
		C208.4,435.4,207.3,438.9,204.1,439.5z M212.2,450c-1.1,0-1.2-1.4-2-1.6c-0.4-0.1-2.3-0.1-2.3-0.1c-3.3-2.7,1.4-6.6,4.4-4
		C214.1,445.8,216,450.1,212.2,450z M215.4,441.6c-2.9,2.6-7.6-1.6-4.8-4.1c-2.1-1.3-3.8-1.3-1.2-3.3c1.1-0.9,3.8-1.2,5.1-0.6
		C217.4,435,217.8,439.4,215.4,441.6z M218,418.8c-0.1,0.1-0.3,0.1-0.4,0.2c-0.1,0.6-0.2,1.3-0.4,1.9c-1.2,0-1.8,1.7-2.5,2.4
		c-1.6,1.5-1.8,1.9-4.1,2.3c-0.8,0.1-2.7,0.2-4.1,0.7c-0.4-0.3-0.8-0.7-1.2-1.2c-0.1-0.1-0.1-0.1-0.1-0.2c0.4-0.3,0.7-0.7,0.8-1.4
		l-0.6-0.2c-0.3-0.3-0.7-0.5-1-0.5c-0.1-0.8,0.1-1.6,0.5-2.3c-0.1,0-0.2-0.1-0.4-0.2c-0.3-0.2-0.5-0.5-0.7-0.9
		c1.1,2.8-1.3,4-1.3,6.5c-0.1,2.1,2.2,3.6-0.4,5.5c-2,1.5-4-0.2-6.3,0.2c-2,0.4-4.4,2.9-6.3,1c-0.7-0.7-0.8-4.2-0.2-4.7
		c0,0.1,0.1,0.2,0.1,0.3c0-0.7,0-1.4,0.1-2.1c-0.4-0.1-0.8-0.4-1.2-1c-1.6-2.5,6.8-8.5,9-9c2.5-0.6,5.4,0.7,6.5,3
		c-0.5-1.5-0.3-3.9,0.1-5.4c0.8-3.1,4.5-5.5,7.5-3.5c2.3,1.6,1.6,3.9,0.7,6.2c0.7,0,1.3,0.1,1.9,0.2c0-1.3,0.9-3.2,1.8-3.8
		c2.2-1.7,2.1-0.3,4.2,1.1l0.1,0.6C219.3,415.9,219.4,418.1,218,418.8z M218.7,382.5c-0.1-0.2,0-0.4,0.2-0.7c0.7-1.2,4.8,1.2,5.4,2
		c0.8,1,0.8,2.5,0,3.5c-0.9,1.1-1.9,0.3-2.9,0.8c-0.9,0.4-1,1.7-2.3,0.9c-1-0.6-0.7-1.8-1.3-2.7c-0.1-0.1-0.1-0.2-0.2-0.2
		c-0.7-0.7-1.1-1.6-1.2-2.5l0,0c0.4-0.4,1.4-0.9,1.6-0.8c0,0-0.1,0.1-0.1,0.1C218.1,382.7,218.4,382.6,218.7,382.5z M221.3,400.2
		c0.8,0.1-2.9-1-2.2-0.4c-1-0.9-1.3-1.2-1.4-2.5c-0.1-3.3,4.1-4.2,6.2-2.2C226.6,397.5,224.6,400.5,221.3,400.2z M226.7,368.3
		c2,1.3,2.7,4.1,1.7,6.2c-1.2,2.5-3.5,1.6-5.2,3c-1.5,1.2-1.1,3.6-3.9,2.9c-2.2-0.5-2.2-2.8-3.8-4.1c-1.4-1.1-4.5-1.3-4.3-3.6
		c0.1-0.9,2.3-3,3-2.9c-0.1,0.1-0.1,0.2-0.2,0.3c0.4-0.4,0.9-0.8,1.5-1.1c-0.2-0.3-0.2-0.7,0-1.4
		C216.2,365.1,225.1,367.2,226.7,368.3z M228.7,334.7c-0.1,2.3-2.1,2.3-3,4c-0.7,1.4,0.3,3.1-2,3.5c-1.8,0.3-2.6-1.4-4.2-1.9
		c-1.4-0.4-3.9,0.5-4.4-1.3c-0.2-0.7,0.8-3,1.4-3.2c0,0.1,0,0.2,0,0.3c0.2-0.4,0.5-0.9,0.8-1.3c-0.2-0.2-0.4-0.5-0.5-1.1
		c-0.2-2.2,7.2-3.4,8.8-3.1C227.3,330.9,228.8,332.7,228.7,334.7z"/>
	<path fill="#916338" d="M175.2,441.1c-0.1,0.1-0.2,0.2-0.3,0.2c0.3,0.8,0.7,1.4,1.4,1.9c0.1-0.1,0.3-0.2,0.4-0.3L175.2,441.1z"/>
	<path fill="#916338" d="M242.2,305.6c0.2-0.1,0.4-0.2,0.7-0.3c0-0.6,0-1.3-0.2-1.9c-0.4-0.1-0.9-0.1-1.3-0.2
		c-0.9-1.9-4.6-3-4.2-5.8c-0.8-0.2-1.6-0.2-2.3,0c0,0.4,0,0.8-0.3,1.1l-0.1,0.7c-0.6,0-1.1-0.2-1.5-0.5c-0.1,0.1-0.1,0.1-0.2,0.2
		c-0.4,0.5-0.7,1-0.9,1.5c0.8,1.2,1.3,3,1.6,3.8c0.9,2.2,1.3,2.3,3.1,3.5c0.8,0.6,2.5,0.8,2.8,1.9c0.7,0,1.3,0,2-0.1
		C240.9,308.4,241.2,306.3,242.2,305.6z"/>
	<path fill="#916338" d="M222.6,289.7l-2.5,6.6c0.7,0.6,1.1,1.3,1.1,2.2c0.8,0.1,1.6,0,2.3-0.4c-0.1-0.4-0.1-0.7,0.1-1.2l0-0.7
		c0.6-0.1,1.2,0,1.6,0.3c0-0.1,0.1-0.1,0.1-0.2c0.3-0.5,0.5-1.1,0.7-1.6c-1-1-1.7-2.8-2.2-3.5C223.3,290.6,222.9,290.1,222.6,289.7z
		"/>
	<path fill="#916338" d="M215.3,374c2.3,1.8,2.8,2.5,5.4,1.3c1.9-0.9,3.6-1.5,3.6-3.5c0-5.2-7.6-1.1-8.8-2.9
		c-0.5,0.3-1.1,0.7-1.5,1.1C212.6,372.4,213,372.3,215.3,374z"/>
	<path fill="#916338" d="M235.5,334.8c1.3-1.8,1.9-2.1,1-4.1c-0.6-1.4-1.1-2.7-2.6-2.7c-3.9,0-0.9,5.7-2.2,6.6
		c0.3,0.4,0.5,0.8,0.9,1.1C234.2,336.8,234.1,336.6,235.5,334.8z"/>
	<path fill="#916338" d="M218.4,310.3c-1.1,0.9-3.2,0.6-3.8,2.1c-0.7,2.1,1.2,3.7,1.1,5.9c-0.1,2.2-1.2,3.7,1.5,5
		c1,0.5,5.3,0.3,4.4,2.8c0.3-0.1,0.6-0.2,0.8-0.4c-0.3-1.2-0.2-2.7,0.1-3.7c0.8-2.3,0.7-2.2-0.6-4.3c-1.9-3-0.8-3.9-0.5-6.9
		c0-0.4,0-0.9-0.1-1.4c-0.4-0.1-0.9-0.2-1.4-0.2c-0.2,0-0.5,0-0.7,0C219.1,309.6,218.9,309.9,218.4,310.3z"/>
	<path fill="#916338" d="M236.6,343.8c-0.2,0.4-0.5,0.9-1.1,1.3c-1.3,1.1-4,0.8-4.6,2.8c-0.8,2.6,1.6,4.6,1.6,7.3
		c-0.1,2.6-1.2,4.5,1.6,5.9c1-4.8,2.2-10.7,3.5-17.4c-0.1,0-0.1,0-0.1,0C237.1,343.8,236.8,343.8,236.6,343.8z"/>
	<path fill="#916338" d="M237.7,251.9c0.2-0.7,0.3-1.4,0.1-2.1l-0.8,2.1C237.2,251.8,237.4,251.8,237.7,251.9z"/>
	<path fill="#916338" d="M218.5,338.6c2.4,0.6,3,1,4.6-0.7c1.1-1.3,2.2-2.3,1.6-3.8c-1.7-4-6.1,1.6-7.6,0.6
		c-0.3,0.4-0.6,0.9-0.8,1.3C216,338.1,216.2,338,218.5,338.6z"/>
	<path fill="#916338" d="M175.2,441.1l1.5,1.8c0.2-0.1,0.4-0.2,0.7-0.2l0.6-0.3c0.4,0.5,0.5,1,0.4,1.5c0.1,0,0.2,0,0.2,0
		c0.6,0,1.2,0,1.7-0.1c0.5-1.4,1.7-2.8,2.2-3.5c1.2-2,1.1-2.4,1.1-4.6c0-1-0.8-2.5-0.1-3.4c-0.3-0.6-0.7-1.1-1.2-1.6
		c-0.6,1.2-2.5,2.1-3.6,1.7c-0.2-0.1-0.4-0.2-0.6-0.4c-0.5,0.3-1,0.8-1.5,1.3c0.2,0.4,0.4,0.8,0.6,1.2
		C176.2,436.3,177.2,439.7,175.2,441.1z"/>
	<path fill="#916338" d="M209.7,479.9c0.6-0.4,1.6-2,2.7-2.6l0.3-1.5c-0.5-0.3-0.9-0.7-1.2-1.1c-1.6-1.9-1.5-1.8-4-1.7
		c-3.5,0.1-3.7-1.3-6.2-3.1c-0.3-0.2-0.8-0.4-1.2-0.7c-0.3,0.3-0.6,0.7-0.9,1.1c-0.1,0.1-0.1,0.2-0.1,0.3l8.2,9.9
		C207.9,480.6,208.6,480.6,209.7,479.9z"/>
	<path fill="#916338" d="M173.1,423c0.2-0.3,0.3-0.7,0.3-1.1c-0.4-0.2-0.7-0.4-1.1-0.7l-0.3,0.8C172.5,422.2,172.8,422.5,173.1,423z
		"/>
	<path fill="#916338" d="M199.3,371.8c2.8-1.8,3.8-2,3.5-5.2c-0.2-2.3-0.2-4.3-2.2-5.1c-5.5-2-4.1,7.5-6.5,8.1
		c0.1,0.7,0.3,1.4,0.6,2C196.6,373.9,196.6,373.5,199.3,371.8z"/>
	<path fill="#916338" d="M189.5,387.3c3.2,1.2,3.9,1.9,6.4-0.3c1.8-1.6,3.4-2.8,2.8-5c-1.7-5.7-8.7,1.3-10.6-0.3
		c-0.5,0.6-0.9,1.1-1.2,1.7C186.1,386.3,186.4,386.2,189.5,387.3z"/>
	<path fill="#916338" d="M212.3,457.6c-0.2-0.3-0.5-0.5-0.8-0.6c-0.1,0.1-0.2,0.2-0.4,0.3l-0.2,0.2c-0.2-0.2-0.3-0.4-0.4-0.6
		c0,0-0.1,0-0.1,0c-0.3,0.1-0.5,0.2-0.7,0.3c0,0.6-0.4,1.4-0.4,1.7c-0.3,1-0.1,1.1,0.1,2c0.1,0.4,0.7,0.9,0.5,1.4
		c0.2,0.2,0.5,0.4,0.7,0.5c0.1-0.6,0.7-1.2,1.3-1.2c0.1,0,0.2,0,0.3,0.1c0.2-0.2,0.3-0.5,0.4-0.7c-0.1-0.1-0.3-0.3-0.4-0.4
		C212.4,459.8,211.4,458.4,212.3,457.6z"/>
	<path fill="#916338" d="M203.9,342.4c1.8-1.6,3.4-2.8,2.8-5c-0.3-1.1-0.9-1.7-1.5-2l-3.1,8.2C202.5,343.4,203.1,343.1,203.9,342.4z
		"/>
	<path fill="#916338" d="M207.1,392.6c-1.8,0.8-1.7,0.8-2.3,2.8c-0.8,2.8-1.9,2.6-3.9,4.2c-0.3,0.2-0.5,0.5-0.8,0.8
		c0.2,0.3,0.4,0.6,0.7,1c0.1,0.1,0.3,0.3,0.4,0.4c0.3-0.1,0.7-0.1,1.1,0c1.1,0.2,2.2,1.6,3.4,1.1c1.7-0.7,1.6-2.8,3-4
		c1.4-1.2,2.9-1.4,2.2-3.7c-0.3-0.9-2.8-3.3-0.8-4.2c-0.2-0.1-0.4-0.2-0.7-0.3C208.9,391.5,207.9,392.3,207.1,392.6z"/>
	<path fill="#916338" d="M209.2,357.2c0.3-0.1,0.6-0.1,1.1,0c1.1,0.2,2.2,1.6,3.4,1.1c1.6-0.7,1.6-2.8,3-4c1.4-1.2,2.9-1.4,2.2-3.7
		c-0.3-0.9-2.8-3.3-0.8-4.2c-0.2-0.1-0.4-0.2-0.7-0.3c-0.5,0.8-1.5,1.6-2.3,1.9c-1.8,0.8-1.8,0.8-2.3,2.8c-0.8,2.8-1.9,2.6-3.9,4.2
		c-0.3,0.2-0.5,0.5-0.8,0.8c0.2,0.3,0.4,0.6,0.7,1C208.9,356.9,209,357.1,209.2,357.2z"/>
	<path fill="#52331F" d="M240.3,331.8c0.1-0.6,0.1-1,0-1.3c-0.2,0.8-0.3,1.5-0.5,2.3C240,332.5,240.2,332.2,240.3,331.8z"/>
	<path fill="#52331F" d="M187.6,380.2c0,0.4,0,0.6,0.1,0.9l0.9-2.4C188,379.1,187.6,379.6,187.6,380.2z"/>
	<path fill="#52331F" d="M176.7,408.8c0,0.2,0.1,0.4,0.2,0.6l1-2.6C177.5,407.4,176.6,407.9,176.7,408.8z"/>
	<line fill="#52331F" x1="192.4" y1="368.8" x2="196" y2="359.4"/>
	<path fill="#52331F" d="M243.7,314.2c-0.4,1.8-0.8,3.6-1.1,5.4"/>
	<path fill="#52331F" d="M223.5,297c-0.2,0.4-0.2,0.8-0.1,1.2c0.3,1.1,1.6,1.7,2.8,0.9c-0.1-1-0.4-2-1.2-2.4
		c-0.4-0.3-0.9-0.4-1.6-0.3L223.5,297z"/>
	<path fill="#52331F" d="M211,484.9l0.1-0.7c-0.2,0-0.4,0.1-0.6,0.1L211,484.9z"/>
	<path fill="#52331F" d="M225.4,330.5c-1.6-0.3-9,0.9-8.8,3.1c0.1,0.6,0.2,0.9,0.5,1.1c1.5,1,6-4.6,7.6-0.6c0.6,1.5-0.5,2.5-1.6,3.8
		c-1.6,1.8-2.2,1.3-4.6,0.7c-2.3-0.6-2.5-0.4-2.2-2.6c0-0.1,0-0.2,0-0.3c-0.6,0.1-1.6,2.5-1.4,3.2c0.6,1.8,3,1,4.4,1.3
		c1.7,0.5,2.4,2.2,4.2,1.9c2.3-0.4,1.3-2.1,2-3.5c0.9-1.7,2.9-1.7,3-4C228.8,332.7,227.3,330.9,225.4,330.5z"/>
	<path fill="#52331F" d="M234.7,298.5c0.2-0.4,0.3-0.8,0.3-1.1c-0.1-1.1-1.3-1.9-2.7-1.3c-0.1,1,0.1,2,0.8,2.6
		c0.4,0.3,0.9,0.5,1.5,0.5L234.7,298.5z"/>
	<path fill="#52331F" d="M238.1,328.8c-1.1-1.3-0.4-3-2.3-4c-1.6-0.8-3.7-0.2-4.7,1.3c-0.8,1.2-2.5,7.9-0.6,8.5
		c0.5,0.2,0.9,0.1,1.1,0c1.4-0.9-1.7-6.7,2.2-6.6c1.5,0,2,1.3,2.6,2.7c0.9,2,0.3,2.3-1,4.1c-1.3,1.7-1.3,2-3,0.9
		c-0.1,0-0.1-0.1-0.2-0.1c-0.1,0.5,1.5,2.2,2.2,2.3c1.8,0.2,1.9-2.2,2.8-3.3c0.8-0.9,1.9-1.2,2.6-1.9c0.2-0.7,0.3-1.5,0.5-2.3
		C239.9,329.7,238.8,329.6,238.1,328.8z"/>
	<path fill="#52331F" d="M214.4,433.6c-1.3-0.6-3.9-0.3-5.1,0.6c-2.5,2-0.8,2,1.2,3.3c-2.7,2.5,1.9,6.7,4.8,4.1
		C217.8,439.4,217.4,435,214.4,433.6z"/>
	<path fill="#52331F" d="M236.7,307.7c-1.8-1.3-2.2-1.4-3.1-3.5c-0.3-0.8-0.8-2.6-1.6-3.8c-0.6-0.8-1.3-1.2-2.3-0.9
		c-1.8,0.7-1.7,5.6-1.2,7c0.8,2.7,4.5,4.8,7.3,5.1c1.1,0.1,3.6,0.2,3.8-1.3c0.1-0.3,0-0.5,0-0.7
		C239.3,308.4,237.5,308.2,236.7,307.7z"/>
	<path fill="#52331F" d="M242.9,305.3c-0.3,0.1-0.5,0.1-0.7,0.3c-1,0.7-1.3,2.8-0.7,4c0.1,0.1,0.1,0.3,0.2,0.4
		c0.7,0.7,1.7,0.8,2.7,0.8c0.4-1.7,0.7-3.5,1.1-5.2C244.7,305.2,243.6,305.1,242.9,305.3z"/>
	<path fill="#52331F" d="M241.2,313.8c-1,0.3-2.3,1.6-2.5,2.6c-0.4,2.2,0.5,1.5,2.2,1.2c-0.1,1.2,0.7,1.8,1.7,2
		c0.4-1.8,0.8-3.6,1.1-5.4C243,313.7,242.1,313.5,241.2,313.8z"/>
	<path fill="#52331F" d="M215.5,367.6c-0.2,0.7-0.2,1.1,0,1.4c1.2,1.8,8.8-2.3,8.8,2.9c0,2-1.7,2.6-3.6,3.5
		c-2.6,1.2-3.1,0.4-5.4-1.3c-2.3-1.7-2.6-1.7-1.2-3.9c0.1-0.1,0.1-0.2,0.2-0.3c-0.7-0.1-2.9,2-3,2.9c-0.2,2.3,2.9,2.5,4.3,3.6
		c1.6,1.3,1.7,3.6,3.8,4.1c2.8,0.7,2.4-1.7,3.9-2.9c1.7-1.4,4-0.5,5.2-3c1-2.1,0.2-4.9-1.7-6.2C225.1,367.2,216.2,365.1,215.5,367.6
		z"/>
	<path fill="#52331F" d="M239.9,258.3c0.2-2-0.2-5.8-1.8-6.3c-0.1,0-0.3-0.1-0.4-0.1c-0.2-0.1-0.5,0-0.7,0l-4.2,10.9
		c0.1,0.1,0.2,0.1,0.3,0.2C236.4,264.5,239.7,261.5,239.9,258.3z"/>
	<path fill="#52331F" d="M229.7,276.7c1.1-1.8-0.2-2.1-0.4-3.5c0-0.3,0-0.6-0.1-0.8l-1.9,5.1C227.7,278.4,228.8,278.1,229.7,276.7z"
		/>
	<path fill="#52331F" d="M244.1,271.3c-2.5-0.8-5.6,0.5-6.8,2.9c-1,2-2.1,12.4,0.9,12.9c0.8,0.1,1.3,0,1.6-0.2
		c1.9-1.7-3.9-9.6,2-10.4c2.2-0.3,3.2,1.6,4.5,3.6c1.7,2.8,0.9,3.4-0.7,6.4c-1.6,2.9-1.5,3.2-4.2,2c-0.1-0.1-0.2-0.1-0.3-0.2
		c0,0.8,2.7,3,3.7,3c2.7-0.1,2.4-3.7,3.4-5.4c0.6-0.9,1.4-1.5,2.1-2.1c0.4-1.8,0.8-3.6,1.1-5.3c-0.8-0.6-2.1-0.7-3.1-1.6
		C246.3,274.9,247,272.2,244.1,271.3z"/>
	<path fill="#52331F" d="M239.2,246.9c-0.1,0-0.2,0-0.3,0l-1,2.6C238.9,249.4,239.7,248.3,239.2,246.9z"/>
	<path fill="#52331F" d="M234,361.1c-2.8-1.4-1.6-3.3-1.6-5.9c0.1-2.7-2.4-4.7-1.6-7.3c0.6-1.9,3.3-1.6,4.6-2.8
		c0.5-0.5,0.9-0.9,1.1-1.3c0.6-1.5-0.7-2.5-3.2-2.2c-3.1,0.4-2.3,2.3-3.8,3.8c-1.9,2-3.7,1.9-4.3,5.4c-0.5,3,0.2,5.7,2.5,7.8
		c1.2,1.1,2.6,1.5,3.6,2.6c0.8,0.9,1,2,1.9,2.8c0.1,0.1,0.2,0.2,0.3,0.3c0,0,0,0,0,0C233.6,363.3,233.8,362.2,234,361.1z"/>
	<path fill="#52331F" d="M230.6,371.5c0,1,0.3,1.3,1,1.9c0.3-1.5,0.6-3,0.9-4.5C231.4,369.3,230.5,370.2,230.6,371.5z"/>
	<path fill="#52331F" d="M247,257.8c3.6,1.7,7-3.4,3.1-5c0,0-1.8,0.5-2.2,0.5c-0.8,0-1.3-1.3-2.3-1
		C241.9,253.3,244.9,256.8,247,257.8z"/>
	<path fill="#52331F" d="M248.5,289.1c0.1,0.1,0.3,0.2,0.4,0.3c0.1-0.5,0.2-0.9,0.3-1.4C248.9,288.3,248.7,288.6,248.5,289.1z"/>
	<path fill="#52331F" d="M197.5,401.5c1.1,0.6,1.9-0.2,2.6-1c0.3-0.3,0.5-0.6,0.8-0.8c2-1.6,3.1-1.4,3.9-4.2c0.6-2,0.5-2,2.3-2.8
		c0.8-0.3,1.8-1.1,2.3-2c0.6-1,0.6-2.1-1.1-2.7c-1.5-0.5-3.6,1.4-4.5,2.3c-0.9,0.8-1.1,0.9-2,1.4c-0.9,0.5-1.4,0.4-2,1.3
		c-0.9,1.3-1.3,3.3-2.2,4.7C196.8,399,195.6,400.4,197.5,401.5z"/>
	<path fill="#52331F" d="M201.2,451.4c0.9-0.1-2.3,1.6-2.2,1.4c-2.7,2.3-2,6.1,2,6c3.2-0.1,5.9-4,3.2-6.5
		C203.1,451.3,202.6,451.3,201.2,451.4z"/>
	<path fill="#52331F" d="M210.9,395.2c0.7,2.3-0.8,2.5-2.2,3.7c-1.4,1.1-1.3,3.2-3,4c-1.2,0.5-2.3-0.9-3.4-1.1c-0.5-0.1-0.8,0-1.1,0
		c-1,0.3-1,1.4,0.3,2.6c1.5,1.4,2.1,0.2,3.6,0.2c1.9,0.1,2.6,1,4.6-0.2c0.5-0.3,1-0.7,1.4-1.1c0.4-2,0.8-4.1,1.2-6.1
		c0-0.1,0-0.2,0-0.3c0-0.3,0.1-0.5,0.2-0.8c0.1-0.6,0.2-1.2,0.4-1.8c-0.1-1.4-0.9-4-2.6-3.3c0,0-0.1,0-0.1,0.1
		C208.1,391.8,210.6,394.3,210.9,395.2z"/>
	<path fill="#52331F" d="M190.9,446.2c0,0-1.9,0.9-2.3,1c-0.9,0.1-1.7-1.1-2.7-0.6c-3.7,1.9,0.3,5.1,2.8,5.7
		C192.9,453.3,195.5,447.2,190.9,446.2z"/>
	<path fill="#52331F" d="M186.7,397.6c1.4,3.4,5.5,3.9,6.5-0.1c0.8-3.2-2.2-7-5.5-5.1c-1.3,0.8-1.5,1.2-1.8,2.7
		C186.1,394.1,187,398.4,186.7,397.6z"/>
	<path fill="#52331F" d="M195.5,407.7c0.4-1.6-0.5-4.4-1.7-5.5c-2.8-2.4-2.4-0.5-3.4,2c-3.3-2.5-7.1,3.6-3.6,6.2
		C189.8,412.8,194.5,411.3,195.5,407.7z"/>
	<path fill="#52331F" d="M243.6,294.8c-2,0-5.8,0.5-6.2,2.2c0,0.1-0.1,0.3-0.1,0.4c-0.4,2.8,3.3,3.9,4.2,5.8
		c0.4,0.1,0.8,0.1,1.3,0.2c1.1,0.2,2.3,0.3,3.2,0.1c0.5-2.3,1-4.7,1.5-7C246.4,295.5,245,294.9,243.6,294.8z"/>
	<path fill="#52331F" d="M208.9,355c2-1.6,3.1-1.4,3.9-4.2c0.5-2,0.5-2,2.3-2.8c0.8-0.3,1.8-1.1,2.3-1.9c0.6-1,0.6-2.1-1.1-2.7
		c-1.5-0.5-3.6,1.4-4.5,2.3c-0.9,0.8-1.1,0.9-2,1.4c-0.9,0.5-1.4,0.4-2,1.3c-0.9,1.3-1.3,3.3-2.2,4.7c-0.8,1.3-2,2.8-0.1,3.8
		c1.1,0.6,1.9-0.2,2.6-1C208.4,355.5,208.6,355.2,208.9,355z"/>
	<path fill="#52331F" d="M244.9,261.3c-1.7,2.8-0.1,6.9,3.2,7.4c1.4,0.2,3.9-0.8,4.7-1.9c1.9-2.6,0.3-2.2-2.1-2.8
		C252.6,260.8,246.9,258,244.9,261.3z"/>
	<path fill="#52331F" d="M235.2,322.8c0.8,0.5,1.1,0.4,2,0.1c-0.6,0.2,1.5-1.6,1.1-1.2c1.4-1.8,0.4-4.2-2.1-3.5
		C234.3,318.8,233.2,321.6,235.2,322.8z"/>
	<path fill="#52331F" d="M199,452.9C199,452.9,199,452.8,199,452.9C199,452.8,199,452.9,199,452.9z"/>
	<path fill="#52331F" d="M205.1,433.8c-2.6-1.2-6.4,0.8-5.3,3.9c0.4,1.3,0.8,1.5,2.1,2c-0.8-0.4,3.1-0.4,2.3-0.2
		C207.3,438.9,208.4,435.4,205.1,433.8z"/>
	<path fill="#52331F" d="M218.9,350.6c0.7,2.3-0.8,2.5-2.2,3.7c-1.4,1.1-1.3,3.2-3,4c-1.2,0.5-2.3-0.9-3.4-1.1c-0.5-0.1-0.8,0-1.1,0
		c-1,0.3-1,1.4,0.3,2.6c1.5,1.4,2.1,0.2,3.6,0.2c1.9,0.1,2.6,1,4.6-0.2c1.7-1,2.8-2.6,2.8-4.6c0-1.1-0.4-2-0.3-2.9
		c0.1-0.8,0.6-1.3,0.6-2.2c0.1-1.2-0.7-4.5-2.6-3.8c0,0-0.1,0-0.1,0.1C216.1,347.3,218.6,349.7,218.9,350.6z"/>
	<path fill="#52331F" d="M212.3,444.3c-3-2.6-7.7,1.3-4.4,4c0,0,1.9,0,2.3,0.1c0.8,0.3,0.9,1.6,2,1.6
		C216,450.1,214.1,445.8,212.3,444.3z"/>
	<path fill="#52331F" d="M177.9,442.5l-0.6,0.3c-0.2,0-0.5,0.1-0.7,0.2l1.4,1.8c0.1-0.2,0.2-0.5,0.3-0.8
		C178.4,443.5,178.3,443,177.9,442.5z"/>
	<path fill="#52331F" d="M212.4,457.5c-0.1,0-0.1,0.1-0.1,0.1c-0.9,0.8,0.1,2.2-0.1,3.1c0.1,0.1,0.3,0.3,0.4,0.4
		c0.7,0.8,1.5,1.5,2.6,0.9c0,0,0,0,0,0l0.5-2.9c-0.1-0.3-0.3-0.5-0.6-0.7C214.4,457.8,213,457,212.4,457.5z"/>
	<path fill="#52331F" d="M222,317.7c1.3,2.1,1.4,2,0.6,4.3c-0.3,1-0.5,2.5-0.1,3.7c0.4,1.4,1.3,2.2,3.3,1.2c1.7-0.9,1.7-4.3,1.7-5.9
		c0-1.4,0.1-1.7,0.4-2.9c0.3-1.2,0.7-1.5,0.5-2.8c-0.4-1.9-1.8-3.8-2.4-5.8c-0.5-1.8-0.8-4-3.3-3.2c-1.4,0.5-1.3,1.9-1.2,3.2
		c0,0.5,0.1,1,0.1,1.4C221.2,313.8,220.1,314.7,222,317.7z"/>
	<path fill="#52331F" d="M214.6,323.1c0.6,0.7,0.7,1.6,1.4,2.3c1,1,4.6,3.1,5.5,0.8c0,0,0-0.1,0-0.1c0.9-2.5-3.4-2.3-4.4-2.8
		c-2.7-1.2-1.6-2.8-1.5-5c0.1-2.1-1.8-3.8-1.1-5.9c0.5-1.5,2.7-1.2,3.8-2.1c0.4-0.3,0.7-0.7,0.9-1c0.6-1.2-0.5-2.1-2.5-1.9
		c-0.4,0-0.8,0.1-1,0.2l-4.7,12.3c0.2,0.3,0.5,0.7,0.8,1C212.8,321.8,213.9,322.2,214.6,323.1z"/>
	<path fill="#52331F" d="M183.1,407.7c1.7-3-1-6.3-3.4-5.7l-1.6,4.1c0,0,0,0.1,0,0.1c0,0.2-0.1,0.4-0.2,0.5l-1,2.6
		C178,412.7,181.9,409.9,183.1,407.7z"/>
	<path fill="#52331F" d="M190.5,389.8c2.2,0.9,3,3.4,5.6,3.2c3.3-0.2,2.1-2.7,3.3-4.5c1.4-2.2,4.2-1.9,4.7-5
		c0.4-2.6-1.3-5.4-3.9-6.3c-1.7-0.6-8.9-0.3-11.5,1.5l-0.9,2.4c0.1,0.3,0.2,0.5,0.4,0.7c1.9,1.6,8.9-5.4,10.6,0.3
		c0.6,2.2-1,3.4-2.8,5c-2.5,2.2-3.2,1.5-6.4,0.3c-3.1-1.1-3.4-1-2.6-3.9c0-0.1,0.1-0.2,0.1-0.4c0,0,0,0,0,0l-1.9,5.1
		C186.1,389.6,188.9,389.1,190.5,389.8z"/>
	<path fill="#52331F" d="M210.6,462.9c0,0.1,0,0.1,0,0.2c0.1,0.7,0.9,1,1.3,1.5l0.3,0.1c0.9-0.6,1.5-0.3,1.2-1.4
		c-0.1-0.4-0.7-1.2-1.2-1.4c-0.1,0-0.2-0.1-0.3-0.1C211.3,461.7,210.6,462.3,210.6,462.9z"/>
	<path fill="#52331F" d="M211.1,457.3c0.2-0.1,0.3-0.2,0.4-0.3c0.2-0.4,0-1-0.6-1.2c-0.3,0.3-0.5,0.7-0.4,1.1c0,0.2,0.2,0.4,0.4,0.6
		L211.1,457.3z"/>
	<path fill="#52331F" d="M194.1,369.6c2.4-0.6,1-10.1,6.5-8.1c2.1,0.8,2.1,2.8,2.2,5.1c0.2,3.2-0.8,3.4-3.5,5.2
		c-2.7,1.8-2.8,2.1-4.6-0.2c-0.1-0.1-0.1-0.2-0.2-0.3c-0.4,0.7,0.9,3.9,1.8,4.3c2.4,1.1,3.8-2.1,5.5-3.1c2-1.2,4.4-0.4,5.8-2.4
		c1.8-2.7-0.8-3.2-1.5-5.2c-0.8-2.4,1-4.4-1.1-6.6c-1.8-1.9-5-2.2-7.2-0.6c-0.4,0.3-1.1,1-1.8,1.9l-3.6,9.3c0.1,0.1,0.1,0.2,0.2,0.3
		C193.3,369.5,193.8,369.6,194.1,369.6z"/>
	<path fill="#52331F" d="M209.4,461c-0.3-0.9-0.4-1.1-0.1-2c0.1-0.4,0.4-1.1,0.4-1.7c0-0.4-0.1-0.8-0.6-0.9c-0.8-0.2-2,1.5-2.3,2.1
		c-0.4,1.1,0.3,2.8,1.2,3.7c0.4,0.3,1.2,1,1.7,0.6c0.1-0.1,0.1-0.2,0.2-0.3C210,461.9,209.5,461.4,209.4,461z"/>
	<path fill="#52331F" d="M207.4,343.9c1.4-2.2,4.2-1.9,4.7-5c0.4-2.6-1.3-5.4-3.9-6.3c-0.4-0.1-1-0.2-1.9-0.2l-1.1,3
		c0.7,0.3,1.2,0.9,1.5,2c0.6,2.2-1,3.4-2.8,5c-0.7,0.7-1.3,1-1.9,1.2l-1.2,3.2c0.9,0.9,1.8,1.6,3.3,1.6
		C207.3,348.2,206.2,345.7,207.4,343.9z"/>
	<path fill="#52331F" d="M177.2,434.6c-0.2-0.4-0.4-0.8-0.6-1.2c-1.1-2.2-2.3-4.3-5-3.7c-1.6,0.4-2.6,1.5-3.1,3l6.7,8.4
		C177.2,439.7,176.2,436.3,177.2,434.6z"/>
	<path fill="#52331F" d="M183.6,435.8c0,2.2,0.2,2.6-1.1,4.6c-0.4,0.7-1.7,2.1-2.2,3.5c-0.3,0.9-0.3,1.8,0.6,2.4
		c1.6,1.1,5.5-1.9,6.4-3.1c1.7-2.2,1.3-6.4,0-8.9c-0.6-1-1.9-3-3.3-2.4c-0.3,0.1-0.4,0.3-0.6,0.4
		C182.7,433.3,183.5,434.8,183.6,435.8z"/>
	<path fill="#52331F" d="M221.1,299c0-0.1,0-0.3,0-0.4c0-1-0.5-1.7-1.1-2.2l-1.9,5C219.6,300.8,221,300,221.1,299z"/>
	<path fill="#52331F" d="M196.6,460.7c1.5-3.2-0.2-2.4-2.8-2.6c1.4-3.7-4.9-5.5-6.6-1.9l1.1,1.4l1.7,2.1l3.2,3.8
		C194.6,463,196.1,461.8,196.6,460.7z"/>
	<path fill="#52331F" d="M223.8,291.4c0.4,0.7,1.1,2.5,2.2,3.5c0.7,0.7,1.5,1,2.4,0.5c1.7-1,0.8-5.8,0.2-7.1
		c-0.7-1.5-2.3-2.6-4.1-3.3l-1.8,4.7C222.9,290.1,223.3,290.6,223.8,291.4z"/>
	<path fill="#52331F" d="M210.7,468.1c-0.9-0.8-0.9-1.4-2.2-1.9c-1.8-0.7-4.2-0.4-6.2-1c-1.8-0.5-3.9-1.4-4.4,1.2
		c-0.3,1.5,0.9,2.1,2.1,2.7c0.4,0.2,0.9,0.4,1.2,0.7c2.5,1.8,2.7,3.2,6.2,3.1c2.5,0,2.4-0.1,4,1.7c0.3,0.4,0.7,0.8,1.2,1.1l1-5.4
		c-0.2-0.1-0.4-0.3-0.6-0.4C211.8,469.2,211.6,469,210.7,468.1z"/>
	<path fill="#52331F" d="M209.7,479.9c-1.1,0.7-1.8,0.8-2.5,0.5l1.3,1.6c0.8-0.1,1.6,0.2,2.4,0c0.2,0,0.4-0.1,0.6-0.2l0.8-4.5
		C211.3,477.9,210.3,479.5,209.7,479.9z"/>
	<path fill="#52331F" d="M173.5,421.9c1.6,0.8,3.2,0.6,3.8-2.1c0.4-1.6-1.1-3.5-2.5-4.9l-2.4,6.4
		C172.7,421.5,173.1,421.7,173.5,421.9z"/>
	<path fill="#52331F" d="M222.5,409.7c0,0,1.7,0.5,2.1,0.8c0.3-1.7,0.6-3.3,0.9-4.9C223.2,405.2,220.7,407.1,222.5,409.7z"/>
	<path fill="#52331F" d="M226.8,398.7c0.1-0.6,0.2-1.2,0.3-1.8C225.8,397.5,226,398,226.8,398.7z"/>
	<path fill="#52331F" d="M217.6,397.3c0.1,1.4,0.4,1.7,1.4,2.5c-0.7-0.6,3.1,0.5,2.2,0.4c3.3,0.3,5.3-2.7,2.6-5.2
		C221.7,393.1,217.5,394,217.6,397.3z"/>
	<path fill="#916338" d="M213.9,417.4c-0.1-0.2-0.1-0.4-0.1-0.7c-0.6-0.2-1.3-0.3-1.9-0.2c-0.2,0.4-0.3,0.8-0.5,1.2
		c-2.1,0.4-3.9,3.8-6.5,2.8c-0.4,0.7-0.6,1.5-0.5,2.3c0.4,0,0.7,0.2,1,0.5l0.6,0.2c-0.1,0.6-0.4,1.1-0.8,1.4c0,0.1,0.1,0.1,0.1,0.2
		c0.4,0.5,0.8,0.9,1.2,1.2c1.3-0.6,3.2-0.6,4.1-0.7c2.3-0.4,2.5-0.8,4.1-2.3c0.7-0.7,1.3-2.3,2.5-2.4c0.2-0.6,0.3-1.3,0.4-1.9
		C216.3,419.3,214.4,418.6,213.9,417.4z"/>
	<path fill="#52331F" d="M215.6,412.9c-0.8,0.6-1.8,2.5-1.8,3.8c0,0.3,0,0.5,0.1,0.7c0.5,1.1,2.4,1.9,3.7,1.5c0.1,0,0.3-0.1,0.4-0.2
		c1.4-0.8,1.3-2.9,1.8-4.2l-0.1-0.6C217.7,412.6,217.7,411.2,215.6,412.9z"/>
	<path fill="#52331F" d="M211.4,417.7c0.2-0.4,0.3-0.8,0.5-1.2c0.9-2.3,1.6-4.6-0.7-6.2c-2.9-2-6.7,0.4-7.5,3.5
		c-0.4,1.5-0.6,3.9-0.1,5.4c0,0.1,0.1,0.1,0.1,0.2c0,0.1,0,0.1,0,0.1c0.2,0.4,0.4,0.7,0.7,0.9c0.1,0.1,0.2,0.1,0.4,0.2
		C207.4,421.5,209.3,418.1,211.4,417.7z"/>
	<path fill="#916338" d="M193.5,430.1c3.2-0.7,4.3-0.5,5.2-3.6c0.7-2.2,1.4-4.2-0.3-5.6c-4.4-3.9-6.6,5.6-9,5.3
		c-0.1,0.7-0.2,1.4-0.1,2.1C190.1,431.2,190.3,430.8,193.5,430.1z"/>
	<path fill="#52331F" d="M197.1,416.1c-2.1,0.5-10.5,6.5-9,9c0.4,0.7,0.8,1,1.2,1c2.4,0.3,4.6-9.2,9-5.3c1.7,1.5,0.9,3.4,0.3,5.6
		c-0.9,3.1-1.9,2.9-5.2,3.6c-3.2,0.7-3.4,1-4.2-1.8c0-0.1-0.1-0.2-0.1-0.3c-0.6,0.5-0.5,4,0.2,4.7c1.8,1.9,4.3-0.6,6.3-1
		c2.3-0.4,4.3,1.2,6.3-0.2c2.6-1.9,0.4-3.3,0.4-5.5c0.1-2.5,2.4-3.8,1.3-6.5c0-0.1-0.1-0.2-0.1-0.3
		C202.5,416.8,199.6,415.5,197.1,416.1z"/>
	<path fill="#52331F" d="M203.6,419.1c0,0.1,0.1,0.2,0.1,0.3c0-0.1,0-0.1,0-0.1C203.7,419.3,203.6,419.2,203.6,419.1z"/>
	<path fill="#916338" d="M220.4,431.8c0,0.1,0.1,0.2,0.2,0.3c0.2-1.2,0.4-2.4,0.7-3.6C220.4,429.2,219.8,430,220.4,431.8z"/>
	<path fill="#52331F" d="M218.4,426.3c0,1.3,0.5,2.4,0.4,3.5c-0.1,0.9-0.6,1.6-0.7,2.6c0,1,0.5,3.4,1.7,4.3c0.3-1.6,0.6-3.1,0.8-4.6
		c-0.1-0.1-0.1-0.2-0.2-0.3c-0.6-1.8-0.1-2.5,0.8-3.2c0.5-3,1.1-5.8,1.6-8.5c-0.4,0.1-0.8,0.3-1.2,0.6
		C219.6,421.9,218.3,423.9,218.4,426.3z"/>
	<path fill="#916338" d="M179.7,421c0.9,1.2,1,1.7,2.5,1.5c1-0.2,2-0.3,2.2-1.3c0.7-2.7-3.5-1.7-3.9-2.8c-0.3,0.1-0.6,0.2-0.9,0.4
		C178.6,419.8,178.8,419.8,179.7,421z"/>
	<path fill="#52331F" d="M180.6,417.7c-0.2,0.3-0.2,0.6-0.2,0.7c0.3,1.1,4.6,0.1,3.9,2.8c-0.3,1-1.2,1.1-2.2,1.3
		c-1.4,0.2-1.6-0.2-2.5-1.5c-0.9-1.2-1.1-1.2-0.1-2.2c0,0,0.1-0.1,0.1-0.1c-0.3-0.1-1.2,0.3-1.6,0.8l0,0c0.1,1,0.5,1.8,1.2,2.5
		c0.1,0.1,0.1,0.2,0.2,0.2c0.6,0.9,0.3,2.1,1.3,2.7c1.3,0.7,1.4-0.5,2.3-0.9c1-0.5,2,0.3,2.9-0.8c0.8-0.9,0.8-2.5,0-3.5
		C185.4,418.9,181.3,416.5,180.6,417.7z"/>
	<path fill="#916338" d="M217.9,385c0.9,1.2,1,1.7,2.5,1.5c1-0.2,2-0.3,2.2-1.3c0.7-2.7-3.5-1.7-3.9-2.8c-0.3,0.1-0.6,0.2-0.9,0.4
		C216.9,383.8,217,383.8,217.9,385z"/>
	<path fill="#52331F" d="M216.3,383.5L216.3,383.5c0.1,1,0.5,1.9,1.2,2.5c0.1,0.1,0.1,0.2,0.2,0.2c0.6,0.9,0.3,2.1,1.3,2.7
		c1.3,0.7,1.4-0.5,2.3-0.9c1-0.5,2,0.3,2.9-0.8c0.8-0.9,0.8-2.5,0-3.5c-0.6-0.8-4.7-3.2-5.4-2c-0.2,0.3-0.2,0.6-0.2,0.7
		c0.3,1.1,4.6,0.1,3.9,2.8c-0.3,1-1.2,1.1-2.2,1.3c-1.4,0.2-1.6-0.2-2.5-1.5c-0.9-1.2-1.1-1.2-0.1-2.2c0,0,0.1-0.1,0.1-0.1
		C217.7,382.6,216.8,383.1,216.3,383.5z"/>
	<path fill="#52331F" d="M209.7,382.4c0.5,0.4,0.3,1.5,1.2,1.8c3,0.9,2.5-2.9,1.4-4.5c-1.7-2.7-6.4-0.8-4.4,2.1
		C208,381.7,209.5,382.2,209.7,382.4z"/>
</g>
<path fill="#FFBE87" d="M186.1,305.4c1.4,2.4,47.7-35.1,53.9-34.7c3.3,0.2,19.6,1.8,8.2,18.9c-14.3,21.7-65.2,37.6-66.2,37.6"/>
<path fill="#F0986B" d="M178.3,297.7c0.3,3.1,0.2,6.2-0.4,9.3c0.4-1.4,1.2-2.6,1.9-3.8c2.1-3.7,1.5-4.4,4.8-7l39.7-28.1
	c-6.1,5.5-36.4,28.9-44.2,24.2"/>
<g>
	<path fill="#E68F70" d="M256.7,241.2l12.4,1.5c-0.2,4.2-0.1,7.9,0.2,11c-3-0.5-8.3-1.9-12.3-5.1
		C257.1,244.3,256.7,241.2,256.7,241.2z"/>
	<g>
		<g>
			<path fill="#F0B6A5" d="M316,198.9c-0.1-2.3,0.1-4.6,0.4-6.9c0.6-3.4,2-6.2,1.5-9.8c-0.6-4.4-2.6-9.1-2.9-13.8
				c-1.2-22.4-27-31.8-46.3-31.5c-26.4,0.4-47.6,18.3-47.8,42.6c-0.1,14.6,4.6,28.3,10.5,41.4c3.8,8.5,11.1,14.5,18.5,19.7
				c7.3,5.2,15.4,9.8,24.4,11c4.2,0.6,9,0.3,13-1.2c7.4-2.8,14.1-7.6,19.5-13.4c4.2-4.5,7.8-10,9.6-15.9
				C319.8,210.3,316.4,206.6,316,198.9z"/>
			<path fill="#FFC9BA" d="M314.5,199c-0.1-2.3,0.1-4.6,0.4-6.8c0.5-3.4,2-6.1,1.5-9.7c-0.6-4.4-2.5-9-2.8-13.7
				c-1.1-22.2-26.1-31.5-44.7-31.2c-25.5,0.4-45.9,18.2-46.1,42.2c-0.1,14.5,4.5,28,10.2,41c3.7,8.4,10.7,14.4,17.8,19.6
				c7.1,5.1,14.9,9.7,23.6,10.9c4.1,0.6,8.7,0.3,12.6-1.2c7.1-2.8,13.6-7.5,18.8-13.3c4-4.5,7.6-9.9,9.3-15.8
				C318.1,210.2,314.8,206.6,314.5,199z"/>
			
				<linearGradient id="SVGID_11_" gradientUnits="userSpaceOnUse" x1="682.4385" y1="175.7713" x2="682.4385" y2="195.2261" gradientTransform="matrix(-1 0 0 1 952 0)">
				<stop  offset="0" style="stop-color:#FFD8CC"/>
				<stop  offset="1" style="stop-color:#FFC9BA"/>
			</linearGradient>
			<path fill="url(#SVGID_11_)" d="M268.8,137.6c18.6-0.3,43.6,9.1,44.7,31.2c0.2,4.7,2.2,9.3,2.8,13.7c0.5,3.6-0.9,6.3-1.5,9.7
				c-0.2,1.5-0.4,3.1-0.4,4.7l-15.1,1.1h-74.5c-1.4-5.9-2.2-12-2.2-18.2C222.9,155.7,243.4,138,268.8,137.6z"/>
			<g>
				
					<radialGradient id="SVGID_12_" cx="2943.1545" cy="-1393.3052" r="77.4943" gradientTransform="matrix(-0.1538 9.903100e-02 0.1398 0.2171 893.8466 224.4108)" gradientUnits="userSpaceOnUse">
					<stop  offset="5.524860e-03" style="stop-color:#FFAEBE"/>
					<stop  offset="1" style="stop-color:#FFC9BA"/>
				</radialGradient>
				<path fill="url(#SVGID_12_)" d="M235.7,196.6c6.6-4.2,16.8-0.1,22.8,9.1c6,9.3,5.5,20.3-1.1,24.5c-6.6,4.2-16.8,0.1-22.7-9.1
					C228.7,211.8,229.1,200.9,235.7,196.6z"/>
				
					<radialGradient id="SVGID_13_" cx="3406.0435" cy="901.0761" r="77.4894" gradientTransform="matrix(-0.134 -3.914700e-02 -6.457500e-02 0.2211 832.8679 145.4222)" gradientUnits="userSpaceOnUse">
					<stop  offset="5.524860e-03" style="stop-color:#FFAEBE"/>
					<stop  offset="1" style="stop-color:#FFC9BA"/>
				</radialGradient>
				<path fill="url(#SVGID_13_)" d="M307.9,208.3c1.4-4.7,3.8-8.7,6.6-11.2c0,0.6,0,1.3,0,1.9c0.3,7.6,3.7,11.2,0.5,22.1
					c-0.7,2.4-1.7,4.7-2.9,6.9C307.2,225.5,305.3,217.1,307.9,208.3z"/>
			</g>
			<g>
				
					<linearGradient id="SVGID_14_" gradientUnits="userSpaceOnUse" x1="689.2103" y1="194.2978" x2="689.2103" y2="171.1358" gradientTransform="matrix(-1 0 0 1 952 0)">
					<stop  offset="0" style="stop-color:#FFC9BA"/>
					<stop  offset="1" style="stop-color:#F0A48C"/>
				</linearGradient>
				<path fill="url(#SVGID_14_)" d="M252.7,171.6c12.4-2.2,25.9,7.1,25.9,7.1c7.3,6.9,6.9,19.6,6.9,19.6c-4.2,8-15.4,9.6-15.4,9.6
					l-7.7-4.2c0,0-12.5-4.9-18.2-10.3c-5.7-5.4-4.9-11.7-2.2-15.7C244.9,173.6,252.7,171.6,252.7,171.6z"/>
				
					<linearGradient id="SVGID_15_" gradientUnits="userSpaceOnUse" x1="645.2529" y1="192.5759" x2="645.2529" y2="172.0081" gradientTransform="matrix(-1 0 0 1 952 0)">
					<stop  offset="0" style="stop-color:#FFC9BA"/>
					<stop  offset="1" style="stop-color:#F0A48C"/>
				</linearGradient>
				<path fill="url(#SVGID_15_)" d="M306.8,201.4c-0.6,0.3-3.9,3.2-3.9,3.2l-5.9-6c0,0,0.9-18.2,8.2-24.2c0,0,3.1-2.8,5.2-2.2
					c2.2,0.6,4.3,3.6,4.8,5.9c0.1,0.3,0.2,0.5,0.3,0.7c0.3,1.2,0.6,2.5,0.7,3.7c0.5,3.6-0.9,6.3-1.5,9.7c-0.2,1.1-0.3,2.1-0.4,3.2
					l-1.3,2.1C313.3,197.5,307.4,201.1,306.8,201.4z"/>
			</g>
			<path fill="#E68F70" d="M268,185c-3.2-1.6-7.1-1.8-10.6-1.1c-1.7,0.4-3.3,1-4.8,1.9c-0.8,0.5-1.5,1-2.2,1.7
				c-0.3,0.3-0.6,0.6-0.8,0.9c-0.3,0.3-0.8,0.8-0.9,1.2c0,0.1-0.1,0.1-0.1,0c0-0.6,0.7-1.3,1-1.7c0.6-0.7,1.3-1.4,2.1-2
				c1.5-1.2,3.3-2,5.1-2.5C260.7,182.6,264.6,183.1,268,185C268,185,268,185,268,185L268,185z"/>
			<path fill="#E68F70" d="M312.6,189.1c-1.1-1.8-2.7-3-4.9-3.2c-2-0.2-3.9,0.9-5.4,2c-0.1,0-0.1,0-0.1-0.1c1.5-1.6,3.5-2.5,5.7-2.3
				C310,185.6,311.7,187.3,312.6,189.1C312.7,189.1,312.6,189.1,312.6,189.1L312.6,189.1z"/>
		</g>
		<path d="M278.6,178.9c0,0-2.8-0.4-10.2-4.4c-6.2-3.4-19.6-4.8-26.6,3.6c0,0,4.4-6.8,13.5-7.1C264.5,170.6,276.1,173,278.6,178.9z"
			/>
		<path d="M300.8,180.9c0,0,1.9-1.9,3.8-4.9c2.3-3.6,7.5-5.8,10.7,2.2c0,0-2.1-6.6-5.7-6.4C305.9,171.9,301.5,174.9,300.8,180.9z"/>
		<g>
			<path fill="#FF6473" d="M262.6,225.8l27.5,1.5l4.8-0.1l0.7-1.1l5.9,0.6c-6.4,3.4-3.8,15-12.7,16.2c-9.3,1.2-23.2-6.5-30.4-17.6
				L262.6,225.8z"/>
			<path fill="#F04858" d="M262.6,225.8l27.5,1.5l4.8-0.1l0.7-1.1l5.9,0.6c-1.4,0.7-2.4,1.9-3.1,3.2c-0.7-0.2-2-0.1-2.9,2.2
				c-1.2,3.2-1.2,7.7-7.1,7.9c-5.9,0.2-18.7-3.2-26.3-11.1c0,0-0.5-0.1-1.2-0.1c-0.9-1.1-1.8-2.2-2.5-3.4L262.6,225.8z"/>
			<path fill="#FFFFFF" d="M297,227.6c-0.7-0.1-2,3.9-2.3,4.4c-1.7,2.9-1.7,6.1-5.7,6.5c-2.5,0.2-5.2-0.2-7.7-0.6
				c-8-1.5-15.7-6.5-21.5-12.2h10C270,225.6,297,227.6,297,227.6z"/>
			<g>
				<path fill="#FF6473" d="M258.6,225.5c12.4,1.7,21.4,1.4,33.8,2c5.9,0.3,6.9,1.1,12.2-2.5c0,0-1.4,1.1-8.3,0.6
					c-6.9-0.5-14.8-0.9-14.8-0.9S268,224.3,258.6,225.5z"/>
				<path fill="#F04858" d="M304.6,225c-2.3,1.5-4.6,2.9-7.4,3.2c-1.6,0.2-3.3-0.2-4.8-0.3c-2.5-0.2-5-0.3-7.6-0.4
					c-8.8-0.4-17.6-0.5-26.3-1.9c-0.1,0-0.1-0.2,0-0.2c4.3,0.4,8.6,0.9,12.9,1.1c4.1,0.1,8.2,0.3,12.2,0.4c4,0.1,8.1,0.1,12.1,0.4
					c1.3,0.1,2.7,0.3,4,0.1C301.6,227,303.1,226,304.6,225C304.6,225,304.6,225,304.6,225L304.6,225z"/>
			</g>
		</g>
		<g>
			<path fill="#E68F70" d="M299.7,211.7c-1.2,2.7-4.2,1.8-6.5,1.7c-0.8,0-3.7,0.3-2.4,1.6c0.8,0.8,2.7,0.8,3.7,0.8
				c1.2,0,2.4-0.2,3.5-0.7c1-0.5,2.1-1.4,2-2.6L299.7,211.7z"/>
			<path fill="#F0A48C" d="M299.9,211.9c-0.1,1.9-2.3,2.6-3.9,2.6c-1.7,0-3.2-1-4.8-0.8c-2.1,0.2-1.5,2.6-0.5,3.8
				c1,1.2,2.3,2,3.8,2.2c1.8,0.2,3.4-1.2,4.1-2.8c0.5-1.1,2.6-3,1.6-4.3L299.9,211.9z"/>
			
				<linearGradient id="SVGID_16_" gradientUnits="userSpaceOnUse" x1="656.1625" y1="212.0198" x2="657.8095" y2="205.9465" gradientTransform="matrix(-1 0 0 1 952 0)">
				<stop  offset="0" style="stop-color:#FFD8CC"/>
				<stop  offset="1" style="stop-color:#FFC9BA"/>
			</linearGradient>
			<path fill="url(#SVGID_16_)" d="M297.2,208.8c0.9,0.9,2.9,1.5,2.4,3c-0.4,1.1-2.1,2-3.2,2c-2,0-4.2-1.3-4.9-3.2
				c-0.6-1.5-0.7-3.5,0-5c0.5-1,2.6-2.6,3.8-1.6c0.5,0.4,0.6,1.9,0.7,2.5C296.3,207.4,296.5,208.1,297.2,208.8z"/>
			<path fill="#E68F70" d="M298.6,215.9c1.1-1.3,1.7-2.8,0.8-4.3c-0.6-1.1-1.9-1.4-2.6-2.3c-1-1.2-1.4-3.3-1.1-4.8
				c0-0.1,0.1,0,0.1,0c0,1.4,0.5,2.7,1.1,3.9c0.6,1.1,2.1,1.4,2.9,2.4c1.6,1.9,0.7,4.1-1.2,5.3C298.6,216.2,298.5,216,298.6,215.9
				L298.6,215.9z"/>
		</g>
	</g>
	<g>
		<path fill="#F0B6A5" d="M226.8,198.6c0,0-2.7-3.9-4-6c-1.3-2.2-5.4-3.7-7.5-2.3c-2.2,1.3-3.5,9.4-0.6,13.4c2.8,4,9.7,9.9,11.2,8.9
			c1.5-0.9,3.2-2.2,3.2-2.2L226.8,198.6z"/>
		<path fill="#FFC9BA" d="M227.4,198.8c-1.3-3.3-2-2.4-3.6-4.9c-1.2-1.9-5.9-3.4-7.9-2.2c-1.9,1.2-3.1,8.5-0.6,12.1
			c2.6,3.6,8.8,8.9,10.1,8.1c1.4-0.8,4.4-2.1,4.4-2.1L227.4,198.8z"/>
		
			<linearGradient id="SVGID_17_" gradientUnits="userSpaceOnUse" x1="733.9698" y1="206.9292" x2="729.0299" y2="198.6959" gradientTransform="matrix(-1 0 0 1 952 0)">
			<stop  offset="0" style="stop-color:#FFC9BA"/>
			<stop  offset="1" style="stop-color:#F0A48C"/>
		</linearGradient>
		<path fill="url(#SVGID_17_)" d="M225.9,204c-2.2-2.8-4-6-7.3-7.4c-3.1-1.4-4,0-3.7,3.1c0,0,2.6,5.7,4.9,6.8
			c2.3,1.1,5.1-0.5,6.9,0.6L225.9,204z"/>
		<path fill="#E68F70" d="M215.2,196.4c0.8-0.9,2.1-0.6,3.1-0.2c3.6,1.4,5.4,4.9,7.6,7.8c0,0,0,0.1,0,0c-1-1.3-1.9-2.6-2.9-3.8
			c0,0-0.1,0.1-0.1,0.1c-2.6-0.2-2.6,2.8-1.1,4.1c0,0,0,0.1,0,0c-1.7-1.4-1.8-4.7,1-4.5c-0.9-1-1.9-2-3.1-2.7
			c-0.9-0.6-2.6-1.4-3.7-0.8c-1,0.5-0.8,2.3-0.8,3.2c0,0.1-0.2,0.2-0.2,0C214.6,198.7,214.5,197.3,215.2,196.4z"/>
	</g>
	<g>
		<g>
			<path d="M273.6,194.8c0,0-3.5-7.9-11.2-9.2c-7.7-1.2-12.7,5.3-14.1,8.6c0,0-2.5,0.2-4.1-1.3c0,0,1.2,3.7,4.7,5.9
				c0,0,0.7,5.2,4.3,8.2c0,0,6.4,3,14.8,1C276.1,206.2,273.6,194.8,273.6,194.8z"/>
			<g>
				<path fill="#FFFFFF" d="M250.1,197.4c3.1-12,17.5-13.1,23.5-2.6c0,0,1.4,3.5,0.6,7.4c-0.8,3.9-4.3,5.7-4.3,5.7
					c-5,1.3-11,0.5-15.9-1.3c0,0-2.2-1.9-3.1-4.6C250,199.4,250.1,197.4,250.1,197.4z"/>
				<g>
					
						<linearGradient id="SVGID_18_" gradientUnits="userSpaceOnUse" x1="692.4709" y1="201.8648" x2="692.4709" y2="192.9081" gradientTransform="matrix(-1 0 0 1 952 0)">
						<stop  offset="0" style="stop-color:#2495AE"/>
						<stop  offset="1" style="stop-color:#004D74"/>
					</linearGradient>
					<path fill="url(#SVGID_18_)" d="M267.6,197c0,5.5-3.6,10.1-8,10.1c-4.4,0-8-4.5-8-10.1c0-1.6,0.3-3.1,0.8-4.4
						c2.5-3.4,6.3-5.1,10.2-4.9C265.5,189.1,267.6,192.8,267.6,197z"/>
					
						<linearGradient id="SVGID_19_" gradientUnits="userSpaceOnUse" x1="692.4719" y1="201.5672" x2="692.4719" y2="193.1581" gradientTransform="matrix(-1 0 0 1 952 0)">
						<stop  offset="0" style="stop-color:#2DB8D7"/>
						<stop  offset="1" style="stop-color:#00689D"/>
					</linearGradient>
					<path fill="url(#SVGID_19_)" d="M266.9,197c0,5.2-3.3,9.4-7.4,9.4c-4.1,0-7.4-4.2-7.4-9.4c0-2.4,0.7-4.7,1.9-6.4
						c1.9-1.7,4.3-2.7,6.7-2.9C264.3,188.5,266.9,192.3,266.9,197z"/>
					<ellipse cx="259.5" cy="197" rx="4.8" ry="6"/>
					
						<linearGradient id="SVGID_20_" gradientUnits="userSpaceOnUse" x1="692.4713" y1="204.7976" x2="692.4713" y2="198.6219" gradientTransform="matrix(-1 0 0 1 952 0)">
						<stop  offset="0" style="stop-color:#FFFFFF"/>
						<stop  offset="1" style="stop-color:#000000"/>
					</linearGradient>
					<ellipse fill="url(#SVGID_20_)" cx="259.5" cy="197" rx="4" ry="5"/>
					<ellipse fill="#FFFFFF" cx="262.6" cy="194" rx="1.8" ry="2.3"/>
					<ellipse fill="#FFFFFF" cx="257.1" cy="200" rx="0.8" ry="1"/>
				</g>
				<path d="M273.6,194.8c-2.7-4.3-7.4-7.1-12.5-6.8c-5.4,0.3-9.2,4.5-10.8,9.4c-0.1,0.3-0.5,0.2-0.4-0.1c1.2-5.2,5.2-9.5,10.6-10
					C266.1,186.7,270.9,190,273.6,194.8C273.6,194.8,273.6,194.9,273.6,194.8L273.6,194.8z"/>
				<path d="M269.9,207.9c-5.2,1.4-11,0.7-16-1.3c-0.1,0,0-0.1,0-0.1C259.2,208.2,264.5,209.1,269.9,207.9
					C269.9,207.9,270,207.9,269.9,207.9L269.9,207.9z"/>
			</g>
		</g>
		<g>
			<path d="M299.5,197c0,0,1.2-8.9,6.6-9.3c5.4-0.4,7.5,5,8,6.6c0,0,1.5-0.8,2.2-2.3c0,0,0.1,3.2-2.4,6c0,0-0.3,5.4-2.6,8.3
				c0,0-3.6,2.2-8.5,1.3L299.5,197z"/>
			<g>
				<path fill="#FFFFFF" d="M312.7,197.9c0,0,0.2,2.5-0.4,4.5c-0.6,2-1.5,3.6-1.5,3.6c-3.1,1.8-6.8,2.9-10.2,1.3
					c0,0-1.6-2.5-1.6-5.1c0-2.6,0.1-4.3,0.1-4.3C300.2,187.9,312.2,186.9,312.7,197.9z"/>
				<g>
					
						<linearGradient id="SVGID_21_" gradientUnits="userSpaceOnUse" x1="647.8226" y1="202.5934" x2="647.8226" y2="194.5726" gradientTransform="matrix(-1 0 0 1 952 0)">
						<stop  offset="0" style="stop-color:#2495AE"/>
						<stop  offset="1" style="stop-color:#004D74"/>
					</linearGradient>
					<path fill="url(#SVGID_21_)" d="M309.3,198.2c0,5-2.4,9-5.4,9c-2.1,0-4-2.1-4.9-5.2c0-2.6,0.1-4.2,0.1-4.2c0.5-5,3.8-7.7,7-7.8
						C308,191.4,309.3,194.6,309.3,198.2z"/>
					
						<linearGradient id="SVGID_22_" gradientUnits="userSpaceOnUse" x1="648.0796" y1="202.2937" x2="648.0796" y2="194.8201" gradientTransform="matrix(-1 0 0 1 952 0)">
						<stop  offset="0" style="stop-color:#2DB8D7"/>
						<stop  offset="1" style="stop-color:#00689D"/>
					</linearGradient>
					<path fill="url(#SVGID_22_)" d="M308.7,198.2c0,4.5-2.2,8.4-4.8,8.4s-4.8-3.8-4.8-8.4c0-0.3,0-0.6,0-0.9c0.6-4.1,3.2-6.6,6-7.2
						C307.2,191.1,308.7,194.4,308.7,198.2z"/>
					<ellipse cx="303.9" cy="198.2" rx="3.2" ry="5.3"/>
					
						<linearGradient id="SVGID_23_" gradientUnits="userSpaceOnUse" x1="648.0796" y1="205.2183" x2="648.0796" y2="199.6876" gradientTransform="matrix(-1 0 0 1 952 0)">
						<stop  offset="0" style="stop-color:#FFFFFF"/>
						<stop  offset="1" style="stop-color:#000000"/>
					</linearGradient>
					<ellipse fill="url(#SVGID_23_)" cx="303.9" cy="198.2" rx="2.7" ry="4.5"/>
					<ellipse fill="#FFFFFF" cx="306" cy="195.5" rx="1.2" ry="2"/>
					<ellipse fill="#FFFFFF" cx="302.6" cy="201.1" rx="0.7" ry="1.1"/>
				</g>
				<path d="M299.1,197.9c0.4-4.1,2.5-8,7-8.3c4.4-0.3,6.8,4.5,6.7,8.3c0,0.1-0.1,0.1-0.2,0c-0.6-3.7-2.2-7.5-6.5-7.4
					C302.3,190.5,299.6,194.5,299.1,197.9C299.1,197.9,299.1,197.9,299.1,197.9L299.1,197.9z"/>
				<path d="M310.9,206c-3.1,1.8-6.8,2.9-10.2,1.3c0,0,0-0.1,0-0.1C304.2,208.6,307.6,207.7,310.9,206
					C310.9,205.9,310.9,206,310.9,206L310.9,206z"/>
			</g>
		</g>
	</g>
	<g>
		<path fill="#DB4219" d="M274.6,251.8c-1.8-0.3-3.6-0.7-5.4-1.2c0,0.2,0,0.4,0,0.6c0,0.1,0,0.2,0,0.4c0.1,0.7,0.1,1.5,0.2,2.1
			c0,0.1,0,0.1,0,0.2c0,0.3,0.1,0.5,0.1,0.8c0,0.1,0,0.2,0,0.3c0,0,0,0,0,0c0,0.3,0.1,0.5,0.1,0.8c0,0.1,0,0.3,0.1,0.4c0,0,0,0,0,0
			c0,0.2,0.1,0.5,0.1,0.7c0,0.1,0.1,0.3,0.1,0.4c0,0,0,0.1,0,0.1c0,0.2,0.1,0.4,0.1,0.6c0,0.1,0.1,0.3,0.1,0.4
			c0,0.2,0.1,0.4,0.2,0.6c0,0.1,0.1,0.3,0.1,0.4c0.1,0.2,0.1,0.4,0.2,0.6c0,0.1,0.1,0.3,0.1,0.4c0.1,0.2,0.1,0.4,0.2,0.6
			c0,0.1,0.1,0.3,0.1,0.4c0.1,0.2,0.1,0.4,0.2,0.5c0,0.1,0.1,0.2,0.1,0.4c0.1,0.2,0.1,0.3,0.2,0.5c0,0.1,0.1,0.2,0.1,0.3
			c0.1,0.2,0.2,0.3,0.2,0.5c0,0.1,0.1,0.2,0.1,0.3c0.1,0.2,0.2,0.3,0.2,0.5l0,0.1c0,0.1,0.1,0.2,0.1,0.2c0.1,0.2,0.2,0.3,0.3,0.5
			c0,0.1,0.1,0.1,0.1,0.2c0.1,0.2,0.2,0.3,0.3,0.5c0,0,0,0.1,0.1,0.1c0,0,0,0,0,0.1c0.1,0.1,0.2,0.3,0.3,0.4c0,0,0.1,0.1,0.1,0.1
			c0.1,0.2,0.2,0.3,0.3,0.5c0,0,0,0.1,0.1,0.1c0.1,0.2,0.3,0.4,0.4,0.5c0,0,0,0,0,0c0.1,0.1,0.3,0.3,0.4,0.4c0,0,0,0,0,0
			c0,0,0.1,0.1,0.1,0.1c0.1,0.1,0.2,0.2,0.3,0.3c0,0,0.1,0.1,0.1,0.1c0.1,0.1,0.2,0.2,0.4,0.3c0.1,0,0.1,0.1,0.2,0.1
			c0.1,0.1,0.2,0.2,0.4,0.3c0.1,0,0.1,0.1,0.2,0.1c0.1,0.1,0.2,0.2,0.4,0.3c0.1,0,0.1,0.1,0.2,0.1c0.1,0.1,0.2,0.2,0.4,0.2
			c0.1,0,0.1,0.1,0.2,0.1c0.1,0.1,0.2,0.2,0.4,0.2c0.1,0,0.1,0.1,0.2,0.1c0.1,0.1,0.3,0.1,0.4,0.2c0.1,0,0.1,0.1,0.2,0.1
			c0.1,0.1,0.3,0.1,0.4,0.2c0.1,0,0.1,0.1,0.2,0.1c0.1,0.1,0.3,0.1,0.4,0.2c0,0,0.1,0,0.1,0.1c0.1,0.1,0.3,0.1,0.4,0.2
			c0,0,0.1,0,0.1,0c0.2,0.1,0.3,0.1,0.5,0.2c0,0,0,0,0,0c1.1,0.4,2.2,0.7,3.3,0.9c0,0,0,0,0,0c0.2,0,0.3,0.1,0.5,0.1l0.1,0
			c0.2,0,0.3,0.1,0.5,0.1c0,0,0,0,0.1,0c0.2,0,0.3,0.1,0.5,0.1c0,0,0,0,0,0c2,0.3,3.9,0.5,5.5,0.7c0,0,0,0,0.1,0
			c0.1,0,0.2,0,0.4,0.1c0,0,0.1,0,0.1,0c0.1,0,0.2,0,0.3,0.1c0,0,0.1,0,0.1,0c0.1,0,0.2,0,0.2,0.1c0,0,0.1,0,0.1,0
			c0.1,0,0.2,0,0.2,0.1c0,0,0.1,0,0.1,0c0.1,0,0.1,0,0.2,0.1c0,0,0,0,0.1,0c1,0,2.8,0.1,4.9,0.9c0,0,0,0,0,0c0.3,0.1,0.6,0.3,1,0.4
			c0,0,0,0,0,0c0.2,0.1,0.3,0.1,0.5,0.2c0,0,0,0,0.1,0c0.1,0.1,0.3,0.2,0.4,0.2c0,0,0,0,0.1,0c0.3,0.2,0.7,0.4,1,0.6
			c0,0,0,0,0.1,0.1c0.1,0.1,0.3,0.2,0.4,0.3c0,0,0.1,0.1,0.1,0.1c0.1,0.1,0.3,0.2,0.4,0.3c0,0,0.1,0,0.1,0.1
			c0.3,0.3,0.6,0.6,0.9,0.9c0,0,0.1,0.1,0.1,0.1c0.1,0.1,0.2,0.3,0.4,0.4c0,0,0.1,0.1,0.1,0.1c0.1,0.1,0.2,0.3,0.4,0.4
			c0,0,0.1,0.1,0.1,0.1c0.1,0.2,0.3,0.4,0.4,0.6c0,0,0,0,0,0c0.1,0.2,0.3,0.4,0.4,0.6c0,0.1,0.1,0.1,0.1,0.2
			c0.1,0.2,0.2,0.3,0.3,0.5c0,0.1,0.1,0.1,0.1,0.2c0.1,0.2,0.2,0.4,0.3,0.6c0,0,0.1,0.1,0.1,0.1c0.1,0.2,0.3,0.5,0.4,0.8
			c0,0,0,0.1,0.1,0.1c0.1,0.2,0.2,0.4,0.3,0.7c0,0.1,0.1,0.2,0.1,0.3c0.1,0.2,0.2,0.4,0.2,0.6c0,0.1,0.1,0.2,0.1,0.3
			c0.1,0.2,0.2,0.5,0.2,0.7c0,0.1,0,0.1,0.1,0.2c0.1,0.3,0.2,0.6,0.3,1c0,0.1,0,0.2,0.1,0.2c0.1,0.3,0.1,0.5,0.2,0.8
			c0,0.1,0.1,0.2,0.1,0.3c0.1,0.2,0.1,0.5,0.2,0.8c0,0.1,0,0.2,0.1,0.3c0.1,0.3,0.1,0.6,0.2,1c0,0.1,0,0.1,0,0.2
			c0.1,0.4,0.1,0.8,0.2,1.2c0,0.1,0,0.2,0,0.3c0,0.3,0.1,0.6,0.1,0.9c0,0.1,0,0.3,0,0.4c0,0.3,0,0.6,0.1,0.9c0,0,0,0.1,0,0.1
			c6.4-2.5,4.5-9.6,4.5-9.6c10.1-1.4,11.8-6.6,11.8-6.6c2.6-9.8-7.2-11-7.8-20.2c-0.6-9.2,26.9-17.9,28.6-26.9
			c1.7-9-6.6-17.3-6.6-17.3l2.3-9l0.3-2.6l0.3-5.8c0,0-0.9-7.5-1.7-10.7c-0.9-3.2-6.6-8.1-9.2-10.4s-9-6.6-11.6-9.2
			c-1.9-1.9-5.9-6.9-8.3-10.2c2.1,3.6,3.4,7.6,3.6,12.3c0.2,4.7,2.3,9.4,2.9,13.8c0.5,3.6-0.9,6.4-1.5,9.8c-0.4,2.2-0.5,4.6-0.4,6.9
			c0.3,7.7,3.8,11.3,0.5,22.3c-1.8,5.9-5.4,11.4-9.6,15.9c-5.4,5.9-12.1,10.6-19.5,13.4C283.6,252.1,278.8,252.4,274.6,251.8z
			 M186.1,282.5c5.2,4.9,13,4.6,13,4.6c-4,4,0,11.3,13.6,12.7c0.6,0.1,1.3,0.1,2.2,0.2c0,0,0-0.1,0-0.1c0,0,0-0.1,0-0.1
			c0-0.4,0-0.9,0.1-1.3c0-0.1,0-0.3,0-0.4c0-0.3,0-0.6,0.1-0.9c0-0.1,0-0.3,0-0.4c0-0.3,0.1-0.6,0.1-1c0-0.1,0-0.2,0-0.3
			c0.1-0.4,0.1-0.8,0.2-1.2c0-0.1,0-0.1,0-0.1c0.1-0.3,0.1-0.7,0.2-1c0-0.1,0-0.2,0.1-0.3c0.1-0.3,0.1-0.5,0.2-0.8
			c0-0.1,0-0.2,0.1-0.3c0.1-0.3,0.1-0.6,0.2-0.8c0-0.1,0-0.1,0.1-0.2c0.1-0.3,0.2-0.7,0.3-1c0-0.1,0-0.1,0-0.2
			c0.1-0.3,0.2-0.5,0.3-0.8c0-0.1,0.1-0.2,0.1-0.3c0.1-0.2,0.2-0.4,0.2-0.6c0-0.1,0.1-0.2,0.1-0.2c0.1-0.2,0.2-0.5,0.3-0.7
			c0,0,0-0.1,0-0.1c0.1-0.3,0.2-0.5,0.4-0.8c0,0,0-0.1,0.1-0.1c0.1-0.2,0.2-0.4,0.3-0.6c0-0.1,0.1-0.1,0.1-0.2
			c0.1-0.2,0.2-0.3,0.3-0.5c0-0.1,0.1-0.1,0.1-0.2c0.1-0.2,0.3-0.4,0.4-0.6c0,0,0,0,0,0c0.1-0.2,0.3-0.4,0.4-0.6c0,0,0-0.1,0.1-0.1
			c0.1-0.2,0.3-0.3,0.4-0.5c0,0,0.1-0.1,0.1-0.1c0.1-0.1,0.2-0.3,0.4-0.4c0,0,0.1-0.1,0.1-0.1c0.3-0.3,0.6-0.6,1-0.9c0,0,0,0,0.1,0
			c0.1-0.1,0.3-0.2,0.4-0.4c0,0,0.1,0,0.1-0.1c0.1-0.1,0.3-0.2,0.4-0.3c0,0,0,0,0,0c0.3-0.2,0.7-0.5,1-0.7c0,0,0,0,0,0
			c0.2-0.1,0.3-0.2,0.5-0.3c0,0,0,0,0,0c3.7-1.9,7.1-1.5,7.1-1.5l0,0.3c8-0.3,17-3.7,17-3.7c0.2-0.1,0.4-0.2,0.6-0.4
			c0.1,0,0.1-0.1,0.2-0.1c0.1-0.1,0.3-0.2,0.4-0.3c0.1,0,0.1-0.1,0.2-0.2c0.1-0.1,0.2-0.2,0.3-0.3c0.1-0.1,0.1-0.1,0.2-0.2
			c0.1-0.1,0.2-0.2,0.4-0.3c0.1,0,0.1-0.1,0.1-0.1c0.3-0.3,0.6-0.7,0.9-1.1c0-0.1,0.1-0.1,0.1-0.2c0.1-0.1,0.2-0.3,0.3-0.4
			c0-0.1,0.1-0.1,0.1-0.2c0.1-0.1,0.2-0.3,0.3-0.4c0-0.1,0.1-0.1,0.1-0.2c0.1-0.1,0.2-0.3,0.3-0.5c0-0.1,0.1-0.1,0.1-0.2
			c0.2-0.4,0.5-0.8,0.7-1.2c0.1-0.3,0.3-0.6,0.4-0.9c0,0,0-0.1,0.1-0.1c0.1-0.3,0.2-0.6,0.4-0.9c0-0.1,0.1-0.2,0.1-0.2
			c0.1-0.3,0.2-0.5,0.3-0.8c0-0.1,0-0.1,0.1-0.2c0.1-0.3,0.2-0.6,0.3-1c0,0,0-0.1,0-0.1c0.1-0.3,0.2-0.6,0.3-0.9
			c0-0.1,0-0.2,0.1-0.2c0.1-0.3,0.1-0.6,0.2-0.8c0-0.1,0-0.1,0.1-0.2c0.2-0.7,0.3-1.4,0.4-2.1c0-0.1,0-0.2,0-0.3
			c0-0.3,0.1-0.6,0.1-0.8c0-0.1,0-0.2,0-0.2c0.1-0.7,0.2-1.4,0.3-2.1c0-0.1,0-0.2,0-0.3c0-0.3,0.1-0.5,0.1-0.8c0-0.1,0-0.2,0-0.3
			c0-0.3,0.1-0.7,0.1-1c0,0,0,0,0-0.1c0-0.3,0-0.6,0.1-1c0-0.1,0-0.2,0-0.3c0-0.2,0-0.5,0-0.7c0-0.1,0-0.2,0-0.3c0-0.3,0-0.6,0-0.9
			c0,0,0-0.1,0-0.1c0-0.7,0-1.3,0-1.9c0,0,0,0,0-0.1c0-0.2,0-0.3,0-0.5c0-0.2,0-0.4,0-0.5c0-0.1,0-0.2,0-0.3c0-0.4,0-0.8,0-1.2
			c0,0,0-0.1,0-0.1c0-0.2,0-0.3,0-0.5c0-0.1,0-0.2,0-0.3c0-0.1,0-0.2,0-0.4c-2.4-1.4-4.7-2.9-7-4.5c-7.4-5.2-14.7-11.3-18.5-19.7
			c-1.4-3.2-2.8-6.4-4-9.6c-0.5,0.4-1.2,0.8-1.8,1.2c-1.5,0.9-8.3-4.9-11.2-8.9c-2.8-4-1.5-12.1,0.6-13.4c1.8-1.1,5-0.2,6.8,1.4
			c-0.7-4-1-8-1-12.1c0-0.9,0.1-1.7,0.1-2.6c-4.8,6-9.4,11.9-9.4,11.9s-10.1,43.9-12.1,47.4c-2,3.5-0.9,9.2-0.3,12.4
			c0.6,3.2,3.2,8.4,2,10.7c-1.2,2.3-6.6,3.2-9.8,4.3c-3.2,1.2-4.3,3.8-5.8,4.3c-1.4,0.6-3.2,4-4.6,5.2
			C179.8,274.5,180.9,277.6,186.1,282.5z"/>
		<g>
			<path fill="#FF521A" d="M322.7,225.3c0,0,26.3-15,13.4-37.1c-12.9-22.1-39.6-22.9-44.6-45.5c0,0-17.1,34.2-48.4,37.1
				c0,0-12.5,17.9-22.1,23.4c-9.6,5.4,7.5,14.2,4.2,25.9c-3.3,11.7-21.3,12.1-16.3,19.2c5,7.1,20.4,3.8,17.9,10.4
				c-2.5,6.7-50.5,7.1-40,24.2c0,0-14.2-7.5-6.7-15c7.5-7.5,20.9-13.8,9.2-16.7c-11.7-2.9-17.9-7.1-18.8-13.8c0,0-22.1-7.9-15-19.2
				c7.1-11.3,20-12.1,15-20c-5-7.9-12.1-8.3,3.3-20.4c0,0-7.5-10.8-0.8-16.7c6.7-5.8,26.7-6.7,40.5-30c13.8-23.4,63.4-40,86.4-4.6
				c0,0,28.4,3.8,30,10.4c1.7,6.7-14.2,11.3-7.5,22.1c6.7,10.8,26.7,17.9,26.3,33.8C348.2,208.6,339,219.9,322.7,225.3z"/>
			<path fill="#FF784F" d="M291.4,142.8c0.7,3.3,1.9,6.1,3.5,8.6c3.6-0.2,7.3-0.2,10.8,0.9c2.7,0.8,4.5,2.8,6.6,0.6
				c2-2.2,2.5-5.5,5-7.6c2.7-2.3,5.3-2,7.6,0.4c2.8-3,5.7-5.6,4.9-8.7c-0.1-0.5-0.5-1.1-0.9-1.6c0.5,0.7,0.7,1.5,0.5,2.4
				c-2.4,1.1-5.2-0.7-7.8,0c-3.4,0.9-4.5,4.1-6.9,6.4c-2.9,2.7-3.8,1.7-7.2,0.2c-2.9-1.3-5.2-1.8-8.4-1.9
				C296.5,142.3,294,142.5,291.4,142.8z M243.5,145.4c3.1,0.4,6.4,1.1,9,2.8c2.1,1.3,2.9,3.5,4.8,4.8c2.5,1.6,5.4,0.3,8.2,0
				c6.6-0.7,13.4-0.7,20.1-0.9c3.6-5,5.5-8.8,5.8-9.2c-9.9,1.1-19.6,4.4-29.5,4.6c-7.7,0.2-8.5-8-14.6-11.3
				c-5.1-2.8-15.3-3.6-18.4-8.9c-2.3-3.9,2.1-6.2,4.6-8.1c2.5-1.9,3.9-4.5,6.1-6.6c1.6-1.6,3.4-2.7,5.2-3.8
				c-13.7,4.1-25.6,12.7-31.4,22.4c-1.3,2.1-2.6,4.1-3.9,5.9c0,0,0,0,0.1,0c2.8,0,3.2,6,4.1,8.6C222.9,144,234.1,144.1,243.5,145.4z
				 M221,203.2c5.4-3.1,11.7-10,16.2-15.6c-0.9,0.3-1.7,0.4-2.2,0.4c-2.2-0.1-2.7-1.5-4.3-2.8c-4.1-3.4-8.5-3.3-13.6-2.3
				c-4.3,0.9-8.5,2-12.7,3.1c-2.7,0.7-8.4,3.6-11.2,2.6c-3.3-1.1-0.9-5.3-2.4-7.7c-2.8-4.5-11.3-1-10.9-9
				c0.6-10.7,11.7-17.4,18.6-24c-9.2,6.7-18.3,8.8-23.4,11.8c4.3,1,4,4.5,3.1,9.3c-1.3,6.8-6.4,15.4-4.6,22.5
				c2,7.8,13.7,3.8,19.4,2.7c7.9-1.5,15.6-2.1,22.5,3C217.7,198.8,219.4,201,221,203.2z M156.5,228.6c7.5-3.3,14.3,1.5,20.9,5.6
				c3.2,2,6.3,3.8,10.2,3c4.3-0.8,7.5-4,11.9-5.1c6.6-1.7,12.1-0.5,17.9,3c0.8,0.5,1.6,1,2.3,1.5c2.4-1.9,4.5-4.3,5.5-7.6
				c0.9-3.1,0.3-6-0.8-8.7c0,3-0.5,6.2-3.2,7.6c-3.5,1.8-6.9-2.2-10-3.5c-4.4-1.8-6.5,0.5-10.1,3c-4.1,2.8-10.7,6.8-15.9,5.9
				c-8.7-1.5-7.4-14.9-15.6-15.3c-3.8-0.2-8-0.1-10.7-3.4c-0.1-0.1-0.2-0.2-0.2-0.3c-1.1,1.1-2.1,2.4-3,3.9
				C152.9,222.2,154,225.7,156.5,228.6z"/>
			<path fill="#FFA68A" d="M318.8,142.1c2.4-0.3,5,0.6,7.6,1.8c1-1,1.9-2.1,2.5-3.1C325.7,139.9,321.5,140.5,318.8,142.1z
				 M233.7,140.1c4.4,0.2,8.6,0.9,12.7,2.4c3,1.1,5.5,2.2,7.9,4.3c1.5,1.3,3.9,4.7,5.8,5.2c1.8,0.5,5.9-1.1,7.8-1.4
				c3-0.5,6-1.1,9-1.5c3.5-0.4,7.4-0.7,11.3-0.7c0.4-0.7,0.8-1.3,1.1-1.8c-6.1,0.3-11.7,1.4-17.8,2.3c-5.8,0.8-11.8,1.1-16.5-2.4
				c-5.4-3.9-8.6-8.7-15.8-9.8c-5.9-0.9-11.9-0.2-15.4-6.3c-1.4-2.4-2.5-5.3-2.9-8.3c-3,2.8-5.5,5.8-7.3,8.9
				c-0.5,0.8-0.9,1.5-1.4,2.3c0.9,0.4,1.8,1,2.7,1.8c1.6,1.5,2.2,3.3,3.5,4.9c1.4,1.8,0.4,1.4,2.7,1.4
				C225,141.6,229.3,139.9,233.7,140.1z M292.5,146.5c0.3,0.7,0.5,1.4,0.8,2c6.1,0.4,12,1.4,17,3.5l2-3.5
				C305.6,148.8,299.4,146.6,292.5,146.5z M211.5,191c4.8,0,8.6,0.9,13,2.9c1.6,0.8,3.2,1.6,4.7,2.6c1.5-1.5,3-3.1,4.4-4.7
				c-0.8-0.7-1.7-1.3-2.8-1.7c-3.6-1.5-7.8-2.5-11.8-2.3c-6.8,0.3-13.7,2.4-20.4,3.3c-3.6,0.5-9.3,1.6-12.5-0.7
				c-3.6-2.6-0.4-5.1-1.5-8c-0.8-2.1-3.7-3.2-4.6-5.5c-0.8-1.9-0.6-4-0.2-6.1c0.2-1.8,0.8-3.4,1.5-5c0.5-1.2,1-2.4,1.5-3.6
				c0.5-1.1,2.5-4.8,3.8-7.6c-1.8,0.8-3.5,1.5-5.1,2.1c0.3,4-1.3,9.1-2.1,12.1c-1.7,6.1-4.7,14.2-2.4,20.5c2.5,6.8,11,6,16.6,4.6
				C199.6,192.4,205.3,190.9,211.5,191z M194.4,231.3c-0.5,0.3-0.9,0.7-1.3,1c4.8-1.6,11.9-2.9,16.9-1.8c3.7,0.8,6.7,3.5,9.9,5.3
				c0.2,0.1,0.3,0.2,0.5,0.3c1.7-1.5,3.1-3.2,4.1-5.4c-3.1,0.6-6.6,0.5-8.3,0c-2.6-0.9-4.8-2.8-7.6-3.3c-3-0.5-7.2,0.5-10.8,2
				C196.8,230,195.6,230.7,194.4,231.3z M154.1,223.8c2.9-0.7,5.8-0.8,9.3,0.1c4.8,1.3,9.1,4.5,13,7.5c3.4,2.6,8.2,6.2,12.6,3.7
				c-3.6-0.8-6.3-0.3-9.4-2.8c-2.9-2.3-3.4-6-5.8-8.6c-2.9-3.1-8.8-3.8-12.7-4.7c-1.8-0.4-3.7-0.7-5.5-0.8c0,0,0,0,0,0
				C154.2,220.2,153.8,222.1,154.1,223.8z"/>
			<path fill="#DB4219" d="M320.2,159c5,13.8,22.9,17.1,26.7,32.1c2.7,10.7-5,21.1-9.6,26.3l0,0c0,0,0,0,0,0
				c1.8-1.5,3.3-3.1,4.7-4.9c0,0,0-0.1,0.1-0.1c1-1.3,1.9-2.7,2.7-4.1c0-0.1,0.1-0.1,0.1-0.2c0.2-0.4,0.4-0.8,0.6-1.3
				c0-0.1,0.1-0.1,0.1-0.2c0.4-1,0.8-2,1.2-3c0-0.1,0.1-0.2,0.1-0.3c0.1-0.4,0.3-0.8,0.4-1.3c0-0.1,0.1-0.3,0.1-0.4
				c0.1-0.4,0.2-0.9,0.3-1.3c0-0.1,0-0.2,0.1-0.3c0.1-0.5,0.2-1.1,0.3-1.6c0-0.1,0-0.2,0-0.3c0.1-0.4,0.1-0.9,0.2-1.3
				c0-0.2,0-0.4,0.1-0.5c0-0.4,0.1-0.8,0.1-1.2c0-0.2,0-0.3,0-0.5c0-0.6,0.1-1.1,0.1-1.7c0.4-15.9-19.6-22.9-26.3-33.8
				c-6.7-10.8,9.2-15.4,7.5-22.1c0-0.2-0.1-0.3-0.2-0.5c0,0,0,0,0,0c-0.1-0.2-0.2-0.3-0.3-0.5C330.6,142.3,315.5,145.9,320.2,159z
				 M205.5,244.9c0,0,12.9-8.3,11.3-17.5c-1.7-9.2-15-10.8-11.7-22.9c3.3-12.1,30.5-26.3,38.8-53.8c0,0-8.8,21.7-32.5,40.1
				c-19.7,15.2-7.5,25.9-0.8,32.1C217.2,229.1,213,236.2,205.5,244.9z M170.4,237.4c0,0.4,0.1,0.8,0.2,1.1c0,0.1,0.1,0.2,0.1,0.3
				c0.1,0.2,0.1,0.5,0.2,0.7c0,0.1,0.1,0.3,0.1,0.4c0.1,0.2,0.2,0.5,0.3,0.7c0.1,0.1,0.1,0.2,0.2,0.4c0.1,0.3,0.3,0.5,0.4,0.8
				c0,0.1,0.1,0.1,0.1,0.2c0.2,0.3,0.4,0.6,0.6,0.9c0.1,0.1,0.2,0.2,0.3,0.3c0.2,0.2,0.3,0.4,0.5,0.5c0.1,0.1,0.2,0.3,0.4,0.4
				c0.2,0.2,0.3,0.3,0.5,0.5c0.1,0.1,0.3,0.2,0.4,0.4c0.2,0.2,0.4,0.3,0.6,0.5c0.2,0.1,0.4,0.3,0.6,0.4c0.3,0.2,0.6,0.4,0.9,0.6
				c0.2,0.1,0.4,0.2,0.6,0.4c0.2,0.1,0.4,0.2,0.6,0.3c0.2,0.1,0.5,0.2,0.7,0.4c0.2,0.1,0.4,0.2,0.6,0.3c0.3,0.1,0.5,0.2,0.8,0.4
				c0.2,0.1,0.4,0.2,0.6,0.3c0.6,0.3,1.3,0.5,2,0.8c0.1,0,0.2,0.1,0.2,0.1h0c-5.4-2.7-15.2-8.9-9.7-16.9
				c7.5-10.8,18.8-9.6,20.9-24.2c0.5-3.7,0.6-7,0.8-10.2c1,3.2,3.1,13.2-4.1,23.1c-8.8,12.1,2.9,21.3,5.4,29.2
				c1,3.2-1.3,5.4-4.7,7.6c-2.9,2.8-7.9,6.2-11.6,9.9c-1,1-1.6,2.1-2,3.1c3.7-8,21.6-10.2,20.7-20.2c-0.7-7.9-15.4-17.5-5.8-29.6
				c8-10.1,4.1-24.6,2.6-29.1c1-6.7,4.1-13.2,14.9-21.8c0,0-15.9,5.4-17.5,23.4c-1.7,17.9-2.1,21.3-15,30c-5.2,3.5-8.1,6.9-9.8,9.9
				c-4.2-1.6-16.3-6.8-11.1-13.7c6.3-8.3,15.4-11.7,17.5-16.7c2.1-5-10.4-9.6-7.5-15.9c2.9-6.3,17.9-17.9,30.9-20.9
				c0,0-11.2,0.3-21.4,7.8c-0.9-1-6.1-7.4-1.1-12c5.4-5,26.7-6.7,39.6-33.4c0.2-0.4,0.4-0.9,0.6-1.3c-0.2,0.2-0.3,0.4-0.5,0.6
				c-0.1,0.1-0.2,0.2-0.3,0.3c-0.1,0.2-0.3,0.4-0.4,0.5c-0.1,0.2-0.2,0.3-0.4,0.5c-0.1,0.1-0.2,0.3-0.3,0.4c-0.2,0.3-0.4,0.6-0.6,1
				c-13.8,23.4-33.8,24.2-40.5,30c-6.7,5.8,0.8,16.7,0.8,16.7c-15.4,12.1-8.3,12.5-3.3,20.4c5,7.9-7.9,8.8-15,20
				C148.3,229.5,170.4,237.4,170.4,237.4z M264.3,147.3c-5.8,16.7-12.1,16.7-20.9,32.1c0,0,18.4-19.6,25-35
				c6.7-15.4,14.6-19.6,14.6-19.6S270.1,130.6,264.3,147.3z M243.4,179.4c0,0,0.1,0.1,0.4,0.3c0,0,0,0,0,0c29.3-3.3,46-34,47.5-36.8
				l0,0c0.1-0.1,0.1-0.2,0.1-0.2c0.2,0.7,0.3,1.4,0.5,2c0.1,0.2,0.1,0.4,0.2,0.6c0.1,0.4,0.3,0.8,0.4,1.2c0.1,0.3,0.2,0.5,0.3,0.7
				c0.1,0.3,0.3,0.7,0.4,1c0.1,0.3,0.2,0.5,0.4,0.8c0.2,0.3,0.3,0.6,0.5,0.9c0.1,0.3,0.3,0.5,0.4,0.8c0.2,0.3,0.3,0.6,0.5,0.8
				c0.2,0.2,0.3,0.5,0.5,0.7c0.2,0.3,0.4,0.5,0.5,0.8c0.2,0.2,0.4,0.5,0.6,0.7c0.2,0.2,0.4,0.5,0.6,0.7c0.2,0.2,0.4,0.5,0.6,0.7
				c0.2,0.2,0.4,0.4,0.6,0.7c0.2,0.2,0.4,0.5,0.7,0.7c0.2,0.2,0.4,0.4,0.6,0.6c0.2,0.2,0.5,0.4,0.7,0.7c0.2,0.2,0.4,0.4,0.6,0.6
				c0.3,0.2,0.5,0.4,0.8,0.7c0.2,0.2,0.4,0.3,0.6,0.5c0.3,0.2,0.5,0.4,0.8,0.7c0.2,0.2,0.4,0.3,0.6,0.5c0.3,0.2,0.6,0.5,0.9,0.7
				c0.2,0.1,0.4,0.3,0.6,0.4c0.3,0.2,0.6,0.5,1,0.7c0.2,0.1,0.3,0.2,0.5,0.3c0.4,0.3,0.7,0.5,1.1,0.8c0.1,0.1,0.2,0.2,0.3,0.2
				c0.4,0.3,0.9,0.6,1.3,0.9c-6.4-6.3-21.2-22.9-12.3-35.9c0,0-7.5,8.3-12.1,18.8C280.6,158.2,263.5,176.9,243.4,179.4z
				 M266.1,118.6c-13.7-0.2-31.6,1.3-39.3,17.4c-9.6,20-21.7,30.5-21.7,30.5c11.3-4.6,17.1-20.9,28-35.9
				C240.1,120.8,256,118.8,266.1,118.6z M227.2,164c0.1-0.1,0.3-0.3,0.5-0.6C227.3,163.8,227.2,164,227.2,164z M285.2,121l3.8,0.8
				c0,0-9.6-15-32.5-11.7c-22.9,3.3-34.2,18.4-34.2,18.4s35-32.5,62-8.4c-2.7-0.7-6.3-1.4-10.4-1.3c-1.6-0.1-4.3-0.2-7.6-0.2
				c2.4,0,4.7,0.1,6.8,0.2c-9,0.5-20.4,4.9-30.3,20.1c0,0-11.8,20.3-15,24.5c2.2-2.7,11.5-14.1,16.6-23.6
				c5.4-10,22.2-23.6,40.3-19.3C284.8,120.7,285,120.8,285.2,121z"/>
		</g>
	</g>
	<g>
		<g>
			<path d="M293.3,196.8c0,0-1-2.5-3.8-2.5c-2.8,0-5.7,2.9-5.7,2.9l1.3-9.8c0,0,4,3.6,7.5-0.3L293.3,196.8z"/>
			
				<linearGradient id="SVGID_24_" gradientUnits="userSpaceOnUse" x1="662.9097" y1="186.1993" x2="663.1881" y2="191.2154" gradientTransform="matrix(-1 0 0 1 952 0)">
				<stop  offset="0" style="stop-color:#5D6164"/>
				<stop  offset="0.3149" style="stop-color:#54595C"/>
				<stop  offset="1" style="stop-color:#000000"/>
			</linearGradient>
			<path fill="url(#SVGID_24_)" d="M284.8,195.5c1.2-0.9,3-1.9,4.8-1.9c1.3,0,2.2,0.4,2.9,1l-0.4-5.8c-0.9,0.7-2,1-3.1,1
				c-1.3,0-2.5-0.5-3.3-1L284.8,195.5L284.8,195.5z"/>
		</g>
		<g>
			<path d="M240.2,203.6c0,0,0.1-8.6-18.8-9.8l-2.1-4.7c0,0,15.6,1.1,20.8-4.6l0.7,4.3L240.2,203.6z"/>
			
				<linearGradient id="SVGID_25_" gradientUnits="userSpaceOnUse" x1="721.9957" y1="186.1026" x2="721.5778" y2="191.3952" gradientTransform="matrix(-1 0 0 1 952 0)">
				<stop  offset="0" style="stop-color:#5D6164"/>
				<stop  offset="0.3149" style="stop-color:#54595C"/>
				<stop  offset="1" style="stop-color:#000000"/>
			</linearGradient>
			<path fill="url(#SVGID_25_)" d="M239.7,200.1l0.4-11.2l-0.5-2.9c-4.3,3.4-12.4,4-17.2,4c-0.8,0-1.5,0-2,0l1.5,3.3
				C233.2,193.9,237.8,197.3,239.7,200.1L239.7,200.1z"/>
		</g>
		<path d="M240.2,206.5c0.6,7.5,9.2,9.7,19.2,10c10,0.3,16.7-3.9,20.1-8.6c3.3-4.7,6.1-15.9,6.1-15.9c1.1-8.6-7-11.7-7-11.7
			c-8.1-3.9-28.1-4.2-35.1-0.6C236.6,183.4,239.7,199,240.2,206.5z M245.5,182.2c2.5-1.3,7.8-2.2,13.7-2.4
			c6.9-0.1,13.4,0.7,16.9,2.3c0,0,0.1,0,0.1,0.1c0.3,0.1,6.3,2.4,6,8.9c-0.2,1.1-2.2,10.9-4.9,15.2c-1.5,2.5-6.4,8.3-17.3,8.3
			c-0.3,0-0.6,0-0.9,0c-16.6-0.5-16.7-6.6-16.8-8.6c0-1.2-0.1-2.7-0.2-4.2C241.8,194.7,241.2,184.5,245.5,182.2z M292.1,191.3
			c0,0,1.7,10.6,3.8,15.1c2.1,4.5,6.2,8.5,12.5,8.2c6.2-0.3,11.6-2.4,11.9-9.5c0.3-7.1,2.2-22-2.1-25.4c-4.3-3.4-16.8-3.2-21.8,0.5
			C296.4,180.2,291.4,183.1,292.1,191.3z M294.2,190.4c-0.2-6.2,3.5-8.4,3.7-8.5c0,0,0.1,0,0.1-0.1c2.2-1.5,6.2-2.3,10.5-2.2
			c3.7,0.1,6.9,1,8.5,2.2c2.7,2.2,2.3,11.9,2,18.7c-0.1,1.4-0.1,2.8-0.1,4c0,1.9-0.1,7.7-10.4,8.2c-0.2,0-0.4,0-0.6,0
			c-6.8,0-9.8-5.6-10.7-7.9C295.6,200.8,294.3,191.5,294.2,190.4z"/>
	</g>
</g>
<g>
	<path fill="#F0986B" d="M195.5,311.3c-5.9-13.2-14.4-31.8-20.1-47.6c-0.5,0.2-2.1,0.3-2.6,0.6c3.1,14.6,19.9,47.5,18.2,50.5"/>
	<path fill="#FFBE87" d="M181.4,326.4c-2.5-1.7-17.5-47-19.4-70.6c-0.1-0.8-13.7-14.1-17.5-18c0-1.4,0.1-2.9,0.4-4.3
		c1.3-6.4,5.8-12,11.4-15.4c1-0.6,2.1-1.1,3.1-0.7c1,0.4,1.5,1.5,1.9,2.5c0.7,1.8,3.4,13.3,5.1,13.7c3.8,1,1.9-14.4,2-16.5
		c0.2-4.3,1.6-8.9,5-11.6c1,7.7,2,15.4,3,23.1c0.3,1.9,0.5,3.9,0.3,5.8c-0.2,1.9-0.9,3.7-1.5,5.6c-2.3,7.2-2.2,10.6,0.4,17.4
		c2.4,6.2,22.1,49.3,21.7,53.5"/>
	<path opacity="0.3" fill="#231F20" d="M171.7,289.5c0-0.1,0.1-0.1,0.1-0.2c-0.7-2.1-1.6-4.1-2.2-6.1c-1.1-3.5-2.2-7-3-10.6
		c-1.4-6.2-3.2-16.5-3.6-22.8c-2,0.4-3.1,4.9-5.1,5.4c1.9,2,3.3,3.5,3.3,3.7c0.7,9.4,3.6,22.3,6.9,34.5
		C169.4,292.2,170.6,290.9,171.7,289.5z"/>
	<g>
		<path fill="#A97139" d="M161.2,263c5.3-31.7,17.8-102.8,23.4-135.4c0.1-0.5-26,102.3-29.7,135.1
			C154.6,265.9,160.7,266.4,161.2,263z"/>
		<path opacity="0.5" fill="#231F20" d="M174.9,170.6c1.7-8.3,3.3-16.6,4.9-24.9c-8,30.9-23.5,92.8-24.9,117.1
			c0,0.2,0.3,2.2,2.8,2.2C158.2,263,172,185.1,174.9,170.6z"/>
	</g>
	<g>
		<path fill="#FFBE87" d="M170.8,235.4c0.2-0.6,0.3-1.1,0.4-1.7c1-5.4-1.3-10-4.4-14.3c-0.2-0.3-0.5-0.7-0.9-0.9
			c-0.4-0.2-0.9-0.3-1.3-0.3c-1.8-0.2-3.6-0.4-5.4-0.6c-0.5-0.1-1.1-0.1-1.6,0c-0.5,0.2-1,0.5-1.4,0.9c-4,3.6-7.4,7.9-9.7,12.8
			c-1.7,3.6-3.5,7.8-0.8,11.3c1.6,2.1,4.1,3.4,6.5,4.6c1.1,0.6,2.4,1.1,3.6,0.6c0.4-0.2,0.8-0.6,1.2-0.9c2-1.5,5.7,0,7,2.2
			C166.8,245.3,169.5,240.2,170.8,235.4z"/>
		<path opacity="0.3" fill="#231F20" d="M165.8,246c1-2.7,2-5.4,2.9-8.1c1-2.7,2-5.4,2.2-8.3c0.2-2.4-0.3-4.9-1.6-6.9
			c-0.4-1.7-1.9-3.6-3-4.3c-1.7-1-5.1-0.8-7-0.9c-0.8,0-1.7-0.1-2.4,0.3c-0.7,0.4-7.6,8.2-10.4,12.5c-1.8,2.8-3.2,8-2.1,11.2
			c0.4,1.2,8.5,9.9,12.3,12c0-2.5-0.2-4.8,1.3-6.8c1.7,0.1,3.3,0.6,4.7,1.4c0.7,0.4,1.1,1,0.8,1.8
			C164.4,248.8,165.3,247.5,165.8,246z M161.6,245c0.3,0.3-4.9-5.1-6.4-5.6c-2.4-0.7-4.8-1.5-7.3-1.8c0.2-0.9,0.8-4.1,1.7-4
			c1.1,0.1,5.5,0.9,9,3c0.1-0.3,0.2-0.7,0.4-1c-0.3-0.4-0.5-0.7-0.7-0.8c-0.9-0.5-7.9-2.9-8.3-2.7c0.8-1.3,2.8-4.4,3-4.4
			c2.5-0.2,5.6,1.1,8.1,2.6c0.1-0.3,0.3-0.6,0.4-1c-2-1.5-4.6-2.2-7.8-3.1c0.7-1.2,1.4-2.3,2.9-3.5c2.7,0.9,5.1,0.9,7,2.2
			c0.2-0.3,0.4-0.5,0.6-0.7c-1.4-1.5-3.6-2-6-3.2c0-1.5,0.7-2.5,2.1-2c1,0.4,3.5-0.1,4.6,0.9c1.6,1.5,5,6.4,4.4,7.7
			C169.3,227.7,161.2,244.6,161.6,245z"/>
		<path opacity="0.2" fill="#FFFFFF" d="M163.4,225.7c-0.6,0.1-1.2,0.3-1.7,0.8c-1,1-1.3,2.4-0.8,3.5c-0.2,0.1-0.3,0.1-0.5,0.2
			c-1.2,0.7-2.1,2.5-1.5,3.6c0.2,0.4,0.4,0.8,0.6,1.2c-0.2,0.1-0.4,0.1-0.6,0.3c-1.1,0.7-2.7,3-2.1,4.2c0,0.1,0.1,0.1,0.1,0.2
			c1.7,1.5,3.5,2.9,5.3,4.3c0.4-0.1,0.8-0.3,1.2-0.7c1.1-1,1.5-2.8,0.7-3.7c0,0,0,0,0-0.1c0,0,0.1,0,0.1-0.1
			c1.2-0.7,2.1-2.5,1.5-3.6c-0.2-0.3-0.3-0.7-0.5-1c0.2-0.1,0.4-0.1,0.6-0.3c1.2-0.7,2-2.4,1.5-3.6c-0.1-0.3-0.3-0.7-0.4-1
			c0.7,0.1,1.5-0.2,2.1-0.8c1.2-1.1,1.3-2.6,0.7-3.7c-0.7-1.1-1.4-2.2-2.1-3.2c-0.8-1-2.2-1-3.4,0
			C163.1,223.1,162.8,224.7,163.4,225.7z"/>
	</g>
	<path fill="#F0986B" d="M195.8,307.9c-5.9-13.2-14.4-31.8-20.1-47.6c-0.5,0.2-2.1,0.3-2.6,0.6c3.1,14.6,19.9,47.5,18.2,50.5"/>
</g>
</svg>
