<?xml version="1.0" encoding="utf-8"?>
<!-- Generator: Adobe Illustrator 21.0.2, SVG Export Plug-In . SVG Version: 6.00 Build 0)  -->
<svg version="1.2" baseProfile="tiny" id="Layer_1" xmlns="http://www.w3.org/2000/svg" xmlns:xlink="http://www.w3.org/1999/xlink"
	 x="0px" y="0px" viewBox="0 0 512 512" xml:space="preserve">
<g>
	<path d="M83.4,260.3c-0.5,0.6-1.1,0.9-1.8,0.9s-1.3-0.3-1.8-0.9c-0.5-0.6-0.8-1.3-0.8-2.2V236c0-0.9,0.2-1.6,0.8-2.2
		c0.5-0.6,1.1-0.9,1.8-0.9c0.4,0,0.7,0.1,1,0.3c0.3,0.2,0.6,0.4,0.9,0.7c2.3,2.4,4.3,4.3,5.9,5.7c1.7,1.4,3.2,2.4,4.6,3.1
		c1.4,0.7,2.7,1.1,3.9,1.3c1.2,0.2,2.5,0.3,3.9,0.3s2.7-0.1,3.9-0.2c1.2-0.2,2.5-0.6,3.8-1.3c1.3-0.7,2.8-1.7,4.5-3.1
		c1.7-1.4,3.6-3.3,6-5.8c0.6-0.6,1.2-0.9,1.8-0.9c0.7,0,1.3,0.3,1.8,0.9c0.5,0.6,0.8,1.3,0.8,2.2v22.1c0,0.9-0.2,1.6-0.8,2.2
		c-0.5,0.6-1.1,0.9-1.8,0.9s-1.3-0.3-1.8-0.9c-0.5-0.6-0.8-1.3-0.8-2.2v-15.4c-1.6,1.6-3.2,2.9-4.6,3.9s-2.9,1.9-4.3,2.5
		c-1.4,0.6-2.8,1.1-4.2,1.3c-1.4,0.3-2.8,0.4-4.2,0.4c-1.5,0-3-0.1-4.4-0.4c-1.4-0.3-2.8-0.7-4.2-1.3c-1.4-0.6-2.8-1.5-4.3-2.5
		c-1.4-1-3-2.3-4.6-3.9v15.4C84.1,259,83.9,259.7,83.4,260.3z M98.3,258.1c0-1.1,0.3-2.1,1-2.9c0.6-0.8,1.4-1.2,2.4-1.2
		c0.9,0,1.7,0.4,2.4,1.2c0.6,0.8,1,1.7,1,2.9c0,1.1-0.3,2.1-1,2.9c-0.6,0.8-1.4,1.2-2.4,1.2c-0.9,0-1.7-0.4-2.4-1.2
		C98.6,260.2,98.3,259.2,98.3,258.1z"/>
	<path d="M133.9,249.5c-0.9-0.5-1.6-1.1-2.2-1.9c-0.6-0.8-1.2-1.7-1.5-2.7s-0.6-2.2-0.6-3.4c0-1.2,0.2-2.3,0.6-3.4s0.9-2,1.5-2.7
		c0.6-0.8,1.4-1.4,2.2-1.9c0.9-0.5,1.8-0.7,2.8-0.7h32.5c0.7,0,1.3,0.3,1.8,0.9c0.5,0.6,0.8,1.3,0.8,2.2c0,0.9-0.3,1.6-0.8,2.2
		c-0.5,0.6-1.1,0.9-1.8,0.9h-32.6c-0.5,0-1,0.2-1.4,0.7s-0.6,1-0.6,1.7c0,0.6,0.2,1.2,0.6,1.7c0.4,0.5,0.9,0.7,1.4,0.7h29.6
		c1,0,1.9,0.2,2.8,0.7c0.9,0.5,1.6,1.1,2.3,1.9s1.2,1.7,1.5,2.8c0.4,1.1,0.6,2.2,0.6,3.4c0,1.2-0.2,2.3-0.6,3.4s-0.9,1.9-1.5,2.7
		c-0.6,0.8-1.4,1.4-2.3,1.8c-0.9,0.4-1.8,0.6-2.8,0.6h-32.4c-0.7,0-1.3-0.3-1.8-0.9c-0.5-0.6-0.8-1.3-0.8-2.2c0-0.9,0.2-1.6,0.8-2.2
		c0.5-0.6,1.1-0.9,1.8-0.9h32.7c0.5,0,1-0.2,1.4-0.7c0.4-0.5,0.6-1,0.6-1.7c0-0.7-0.2-1.3-0.6-1.8c-0.4-0.5-0.9-0.7-1.4-0.7h-29.7
		C135.7,250.2,134.7,249.9,133.9,249.5z"/>
	<path d="M178.7,258.1c0-1.1,0.3-2.1,1-2.9c0.6-0.8,1.4-1.2,2.4-1.2c0.9,0,1.7,0.4,2.4,1.2c0.6,0.8,1,1.7,1,2.9c0,1.1-0.3,2.1-1,2.9
		c-0.6,0.8-1.4,1.2-2.4,1.2c-0.9,0-1.7-0.4-2.4-1.2C179,260.2,178.7,259.2,178.7,258.1z"/>
	<path d="M197.7,247.1c0-1.6,0.2-3.3,0.7-5c0.4-1.7,1.1-3.2,2-4.5s1.9-2.5,3.1-3.3c1.2-0.9,2.6-1.3,4.1-1.3h31.2
		c0.7,0,1.3,0.3,1.8,0.9c0.5,0.6,0.7,1.3,0.7,2.2c0,0.9-0.2,1.6-0.7,2.2c-0.5,0.6-1.1,0.9-1.8,0.9h-30.1c-1.2,0-2.3,0.3-3,0.8
		c-0.8,0.5-1.4,1.2-1.8,2c-0.4,0.8-0.8,1.6-0.9,2.6c-0.2,0.9-0.2,1.8-0.2,2.6c0,0.8,0.1,1.6,0.2,2.6c0.2,0.9,0.5,1.8,0.9,2.6
		c0.4,0.8,1.1,1.4,1.8,2c0.8,0.5,1.8,0.8,3,0.8h30.1c0.7,0,1.3,0.3,1.8,0.9c0.5,0.6,0.7,1.3,0.7,2.2c0,0.9-0.2,1.6-0.7,2.2
		c-0.5,0.6-1.1,0.9-1.8,0.9H207c-1.5,0-2.8-0.4-3.9-1.3c-1.1-0.9-2.1-2-2.9-3.3c-0.8-1.4-1.4-2.9-1.8-4.6
		C197.9,250.3,197.7,248.7,197.7,247.1z"/>
	<path d="M290.2,247.1c0,1.6-0.2,3.3-0.7,5c-0.4,1.7-1.1,3.2-2,4.5c-0.9,1.4-1.9,2.5-3.1,3.3c-1.2,0.9-2.6,1.3-4.1,1.3H256
		c-1.5-0.1-2.8-0.6-3.9-1.5c-1.1-0.9-2.1-2-2.9-3.3c-0.8-1.3-1.4-2.8-1.8-4.5c-0.4-1.6-0.6-3.3-0.6-4.9c0-1.6,0.2-3.3,0.7-5
		c0.4-1.7,1.1-3.2,2-4.5c0.9-1.4,1.9-2.5,3.1-3.3c1.2-0.9,2.6-1.3,4.1-1.3h24.4c1.5,0.1,2.8,0.6,3.9,1.5c1.1,0.9,2.1,2,2.9,3.3
		c0.8,1.3,1.4,2.8,1.8,4.5C290,243.8,290.2,245.5,290.2,247.1z M282.3,254.2c0.8-0.5,1.4-1.2,1.8-2c0.4-0.8,0.8-1.6,0.9-2.6
		c0.2-0.9,0.2-1.8,0.2-2.6c0-0.8-0.1-1.6-0.2-2.6c-0.2-0.9-0.5-1.8-0.9-2.6c-0.4-0.8-1.1-1.4-1.8-2c-0.8-0.5-1.8-0.8-3-0.8h-21.6
		c-1.2,0-2.3,0.3-3,0.8c-0.8,0.5-1.4,1.2-1.8,2c-0.4,0.8-0.8,1.6-0.9,2.6c-0.2,0.9-0.2,1.8-0.2,2.6c0,0.8,0.1,1.6,0.2,2.6
		c0.2,0.9,0.5,1.8,0.9,2.6c0.4,0.8,1.1,1.4,1.8,2c0.8,0.5,1.8,0.8,3,0.8h21.6C280.5,255,281.5,254.7,282.3,254.2z"/>
	<path d="M301,249.6c0.2,0.9,0.5,1.8,0.9,2.6c0.4,0.8,1.1,1.4,1.8,2c0.8,0.5,1.8,0.8,3,0.8H328c1.2,0,2.2-0.3,3-0.8
		c0.8-0.5,1.4-1.2,1.8-2c0.4-0.8,0.7-1.6,0.9-2.6c0.2-0.9,0.2-1.8,0.2-2.6v-11c0-0.9,0.2-1.6,0.7-2.2c0.5-0.6,1.1-0.9,1.8-0.9
		s1.3,0.3,1.8,0.9c0.5,0.6,0.7,1.3,0.7,2.2v11c0,1.6-0.2,3.3-0.7,5c-0.4,1.7-1.1,3.2-2,4.5c-0.9,1.4-1.9,2.5-3.1,3.3
		c-1.2,0.9-2.6,1.3-4.1,1.3h-24.4c-1.5-0.1-2.8-0.6-3.9-1.5c-1.1-0.9-2.1-2-2.9-3.3c-0.8-1.3-1.4-2.8-1.8-4.5
		c-0.4-1.6-0.6-3.3-0.6-4.9v-11c0-0.9,0.2-1.6,0.7-2.2c0.5-0.6,1.1-0.9,1.8-0.9s1.3,0.3,1.8,0.9c0.5,0.6,0.7,1.3,0.7,2.2v11
		C300.7,247.8,300.8,248.7,301,249.6z"/>
	<path d="M381.7,233.8c0.5-0.6,1.1-0.9,1.8-0.9c0.7,0,1.3,0.3,1.8,0.9c0.5,0.6,0.8,1.3,0.8,2.2v18.9c0,1.8-0.5,3.3-1.5,4.5
		c-1,1.2-2.2,1.8-3.7,1.8c-0.5,0-1-0.1-1.5-0.3c-0.5-0.2-0.9-0.4-1.3-0.7L353.7,242c-0.7-0.5-1.2-0.9-1.7-1.1
		c-0.4-0.3-0.8-0.4-1.1-0.4c-0.5,0-0.9,0.4-1,1.2c-0.1,0.8-0.2,2-0.2,3.6v12.8c0,0.9-0.2,1.6-0.7,2.2c-0.5,0.6-1.1,0.9-1.8,0.9
		s-1.3-0.3-1.8-0.9c-0.5-0.6-0.7-1.3-0.7-2.2v-18.9c0-1.8,0.5-3.3,1.5-4.5c1-1.2,2.2-1.8,3.7-1.8c0.5,0,1,0.1,1.5,0.3
		c0.5,0.2,0.9,0.4,1.3,0.7l24.5,18.2c0.7,0.5,1.2,0.9,1.7,1.1c0.4,0.3,0.8,0.4,1.1,0.4c0.5,0,0.9-0.4,1-1.2c0.1-0.8,0.2-2,0.2-3.6
		V236C381,235.1,381.2,234.4,381.7,233.8z"/>
	<path d="M432.7,233.8c0.5,0.6,0.7,1.3,0.7,2.2c0,0.9-0.2,1.6-0.7,2.2c-0.5,0.6-1.1,0.9-1.8,0.9H415v19c0,0.9-0.2,1.6-0.7,2.2
		c-0.5,0.6-1.1,0.9-1.8,0.9c-0.7,0-1.3-0.3-1.8-0.9c-0.5-0.6-0.7-1.3-0.7-2.2v-19h-16.1c-0.6-0.1-1.2-0.4-1.7-1s-0.7-1.3-0.7-2.1
		c0-0.9,0.2-1.6,0.7-2.2c0.5-0.6,1.1-0.9,1.8-0.9h36.8C431.6,232.9,432.2,233.2,432.7,233.8z"/>
	<path d="M161.8,279.4c-0.2,0.3-0.5,0.4-0.8,0.4c-0.3,0-0.6-0.1-0.8-0.4c-0.2-0.3-0.3-0.6-0.3-1v-9.9c0-0.4,0.1-0.7,0.3-1
		c0.2-0.3,0.5-0.4,0.8-0.4c0.2,0,0.3,0,0.4,0.1c0.1,0.1,0.3,0.2,0.4,0.3c1,1.1,1.9,1.9,2.6,2.6c0.7,0.6,1.4,1.1,2,1.4
		c0.6,0.3,1.2,0.5,1.7,0.6c0.5,0.1,1.1,0.1,1.7,0.1s1.2,0,1.7-0.1c0.5-0.1,1.1-0.3,1.7-0.6c0.6-0.3,1.3-0.8,2-1.4
		c0.7-0.6,1.6-1.5,2.7-2.6c0.3-0.3,0.5-0.4,0.8-0.4c0.3,0,0.6,0.1,0.8,0.4c0.2,0.3,0.3,0.6,0.3,1v9.9c0,0.4-0.1,0.7-0.3,1
		c-0.2,0.3-0.5,0.4-0.8,0.4s-0.6-0.1-0.8-0.4c-0.2-0.3-0.3-0.6-0.3-1v-6.9c-0.7,0.7-1.4,1.3-2.1,1.7c-0.7,0.5-1.3,0.8-1.9,1.1
		s-1.3,0.5-1.9,0.6c-0.6,0.1-1.3,0.2-1.9,0.2c-0.7,0-1.3-0.1-2-0.2c-0.6-0.1-1.3-0.3-1.9-0.6c-0.6-0.3-1.3-0.7-1.9-1.1
		c-0.6-0.5-1.3-1-2-1.7v6.9C162.1,278.8,162,279.2,161.8,279.4z M168.5,278.5c0-0.5,0.1-0.9,0.4-1.3c0.3-0.3,0.6-0.5,1.1-0.5
		s0.8,0.2,1.1,0.5c0.3,0.3,0.4,0.8,0.4,1.3s-0.1,0.9-0.4,1.3c-0.3,0.3-0.6,0.5-1.1,0.5s-0.8-0.2-1.1-0.5S168.5,279,168.5,278.5z"/>
	<path d="M182.4,268.6c0-0.4,0.1-0.7,0.3-1c0.2-0.3,0.5-0.4,0.8-0.4h16.9c0.3,0,0.6,0.1,0.8,0.4c0.2,0.3,0.3,0.6,0.3,1
		c0,0.4-0.1,0.7-0.3,1c-0.2,0.3-0.5,0.4-0.8,0.4h-16.9c-0.3,0-0.6-0.1-0.8-0.4C182.5,269.3,182.4,269,182.4,268.6z M185.3,279.9
		c-0.4,0-0.7-0.1-1.1-0.3c-0.4-0.2-0.7-0.4-0.9-0.8c-0.3-0.3-0.5-0.7-0.7-1.2c-0.2-0.5-0.3-1-0.3-1.6v-2.6c0-0.5,0.1-0.9,0.4-1
		c0.2-0.2,0.6-0.3,1.2-0.3h16c0.3,0,0.6,0.1,0.8,0.4c0.2,0.3,0.3,0.6,0.3,1s-0.1,0.7-0.3,1c-0.2,0.3-0.5,0.4-0.8,0.4h-15.3v1.4
		c0,0.2,0.1,0.4,0.2,0.5c0.1,0.1,0.3,0.2,0.5,0.2h15.1c0.3,0,0.6,0.1,0.8,0.4c0.2,0.3,0.3,0.6,0.3,1s-0.1,0.7-0.3,1
		c-0.2,0.3-0.5,0.4-0.8,0.4H185.3z"/>
	<path d="M222.4,267.6c0.2,0.3,0.3,0.6,0.3,1c0,0.4-0.1,0.7-0.3,1c-0.2,0.3-0.5,0.4-0.8,0.4h-7.1v8.5c0,0.4-0.1,0.7-0.3,1
		c-0.2,0.3-0.5,0.4-0.8,0.4s-0.6-0.1-0.8-0.4c-0.2-0.3-0.3-0.6-0.3-1V270h-7.2c-0.3,0-0.5-0.2-0.7-0.4c-0.2-0.3-0.3-0.6-0.3-0.9
		c0-0.4,0.1-0.7,0.3-1c0.2-0.3,0.5-0.4,0.8-0.4h16.4C221.9,267.2,222.2,267.3,222.4,267.6z"/>
	<path d="M241.8,276c0.4,0.4,0.9,0.8,1.4,1.2c0.2,0.2,0.3,0.3,0.5,0.5c0.1,0.2,0.2,0.4,0.2,0.7c0,0.4-0.1,0.7-0.3,1
		c-0.2,0.3-0.5,0.4-0.8,0.4c-0.3,0-0.5-0.1-0.8-0.4c-0.7-0.6-1.3-1.1-2-1.7c-0.7-0.5-1.4-1-2.1-1.4s-1.5-0.8-2.3-1
		c-0.8-0.3-1.6-0.4-2.5-0.4h-4.8c-0.2,0-0.4,0.2-0.5,0.3c-0.1,0.2-0.2,0.4-0.2,0.7v2.5c0,0.4-0.1,0.7-0.3,1
		c-0.2,0.3-0.5,0.4-0.8,0.4c-0.3,0-0.6-0.1-0.8-0.4c-0.2-0.3-0.3-0.6-0.3-1v-2.8c0-0.5,0.1-0.9,0.2-1.4c0.2-0.4,0.4-0.8,0.6-1.1
		c0.3-0.3,0.6-0.6,0.9-0.8c0.4-0.2,0.7-0.3,1.1-0.3h12.7c0.2,0,0.4-0.1,0.6-0.3c0.2-0.2,0.3-0.5,0.3-0.8c0-0.3-0.1-0.5-0.3-0.8
		c-0.2-0.2-0.4-0.3-0.6-0.3h-14.4c-0.3,0-0.6-0.1-0.8-0.4c-0.2-0.3-0.3-0.6-0.3-1c0-0.4,0.1-0.7,0.3-1c0.2-0.3,0.5-0.4,0.8-0.4h14.3
		c0.4,0,0.9,0.1,1.3,0.3s0.7,0.5,1,0.8c0.3,0.3,0.5,0.8,0.7,1.2s0.2,1,0.2,1.5c0,0.5-0.1,1-0.2,1.5s-0.4,0.9-0.7,1.2
		c-0.3,0.3-0.6,0.6-1,0.8s-0.8,0.3-1.3,0.3h-0.1C240.9,275.2,241.4,275.6,241.8,276z"/>
	<path d="M265.7,273.5c0,0.7-0.1,1.5-0.3,2.2c-0.2,0.7-0.5,1.4-0.9,2c-0.4,0.6-0.8,1.1-1.4,1.5c-0.5,0.4-1.2,0.6-1.8,0.6h-10.9
		c-0.7,0-1.2-0.3-1.7-0.7c-0.5-0.4-0.9-0.9-1.3-1.5c-0.4-0.6-0.6-1.3-0.8-2c-0.2-0.7-0.3-1.5-0.3-2.2c0-0.7,0.1-1.5,0.3-2.2
		c0.2-0.7,0.5-1.4,0.9-2c0.4-0.6,0.8-1.1,1.4-1.5c0.5-0.4,1.2-0.6,1.8-0.6h10.9c0.7,0,1.2,0.3,1.7,0.7c0.5,0.4,0.9,0.9,1.3,1.5
		c0.4,0.6,0.6,1.3,0.8,2C265.6,272.1,265.7,272.8,265.7,273.5z M262.1,276.7c0.4-0.2,0.6-0.5,0.8-0.9s0.3-0.7,0.4-1.1
		c0.1-0.4,0.1-0.8,0.1-1.1s0-0.7-0.1-1.1c-0.1-0.4-0.2-0.8-0.4-1.1s-0.5-0.6-0.8-0.9s-0.8-0.4-1.3-0.4h-9.7c-0.6,0-1,0.1-1.3,0.4
		c-0.3,0.2-0.6,0.5-0.8,0.9s-0.3,0.7-0.4,1.1c-0.1,0.4-0.1,0.8-0.1,1.1s0,0.7,0.1,1.1c0.1,0.4,0.2,0.8,0.4,1.1s0.5,0.6,0.8,0.9
		c0.3,0.2,0.8,0.4,1.3,0.4h9.7C261.3,277.1,261.7,276.9,262.1,276.7z"/>
	<path d="M284.7,267.6c0.2-0.3,0.5-0.4,0.8-0.4c0.3,0,0.6,0.1,0.8,0.4c0.2,0.3,0.3,0.6,0.3,1v8.4c0,0.8-0.2,1.5-0.7,2
		c-0.4,0.5-1,0.8-1.6,0.8c-0.2,0-0.4,0-0.7-0.1c-0.2-0.1-0.4-0.2-0.6-0.3l-10.9-8.1c-0.3-0.2-0.6-0.4-0.8-0.5
		c-0.2-0.1-0.4-0.2-0.5-0.2c-0.2,0-0.4,0.2-0.5,0.6s-0.1,0.9-0.1,1.6v5.7c0,0.4-0.1,0.7-0.3,1c-0.2,0.3-0.5,0.4-0.8,0.4
		s-0.6-0.1-0.8-0.4c-0.2-0.3-0.3-0.6-0.3-1V270c0-0.8,0.2-1.5,0.7-2c0.4-0.5,1-0.8,1.6-0.8c0.2,0,0.4,0,0.7,0.1
		c0.2,0.1,0.4,0.2,0.6,0.3l10.9,8.1c0.3,0.2,0.6,0.4,0.8,0.5c0.2,0.1,0.4,0.2,0.5,0.2c0.2,0,0.4-0.2,0.5-0.6
		c0.1-0.4,0.1-0.9,0.1-1.6v-5.7C284.3,268.2,284.4,267.9,284.7,267.6z"/>
	<path d="M308.4,273.5c0,0.7-0.1,1.5-0.3,2.2c-0.2,0.7-0.5,1.4-0.9,2c-0.4,0.6-0.8,1.1-1.4,1.5c-0.5,0.4-1.2,0.6-1.8,0.6h-10.9
		c-0.7,0-1.2-0.3-1.7-0.7c-0.5-0.4-0.9-0.9-1.3-1.5c-0.4-0.6-0.6-1.3-0.8-2c-0.2-0.7-0.3-1.5-0.3-2.2c0-0.7,0.1-1.5,0.3-2.2
		c0.2-0.7,0.5-1.4,0.9-2c0.4-0.6,0.8-1.1,1.4-1.5c0.5-0.4,1.2-0.6,1.8-0.6h10.9c0.7,0,1.2,0.3,1.7,0.7c0.5,0.4,0.9,0.9,1.3,1.5
		c0.4,0.6,0.6,1.3,0.8,2C308.3,272.1,308.4,272.8,308.4,273.5z M304.9,276.7c0.4-0.2,0.6-0.5,0.8-0.9s0.3-0.7,0.4-1.1
		c0.1-0.4,0.1-0.8,0.1-1.1s0-0.7-0.1-1.1c-0.1-0.4-0.2-0.8-0.4-1.1s-0.5-0.6-0.8-0.9s-0.8-0.4-1.3-0.4h-9.7c-0.6,0-1,0.1-1.3,0.4
		c-0.3,0.2-0.6,0.5-0.8,0.9s-0.3,0.7-0.4,1.1c-0.1,0.4-0.1,0.8-0.1,1.1s0,0.7,0.1,1.1c0.1,0.4,0.2,0.8,0.4,1.1s0.5,0.6,0.8,0.9
		c0.3,0.2,0.8,0.4,1.3,0.4h9.7C304.1,277.1,304.5,276.9,304.9,276.7z"/>
	<path d="M331,278.5c0,0.4-0.1,0.7-0.3,1c-0.2,0.3-0.5,0.4-0.8,0.4c-0.3,0-0.6-0.1-0.8-0.4c-0.2-0.3-0.3-0.6-0.3-1v-6.3
		c0-0.8,0-1.2-0.1-1.2c-0.1,0-0.3,0.3-0.7,0.8l-5.3,7.2c-0.2,0.3-0.5,0.5-0.8,0.7c-0.3,0.1-0.6,0.2-1,0.2c-0.4,0-0.7-0.1-1-0.2
		c-0.3-0.1-0.6-0.4-0.8-0.7l-5.3-7.2c-0.4-0.5-0.6-0.8-0.7-0.8c-0.1,0-0.1,0.4-0.1,1.2v6.3c0,0.4-0.1,0.7-0.3,1
		c-0.2,0.3-0.5,0.4-0.8,0.4s-0.6-0.1-0.8-0.4c-0.2-0.3-0.3-0.6-0.3-1V270c0-0.8,0.2-1.4,0.5-2c0.4-0.5,0.9-0.8,1.5-0.8
		c0.4,0,0.7,0.1,1,0.3s0.6,0.5,0.8,0.8l5.5,7.6c0.1,0.1,0.2,0.2,0.3,0.3c0.1,0.1,0.2,0.2,0.4,0.2c0.1,0,0.3-0.1,0.4-0.2
		c0.1-0.1,0.2-0.2,0.3-0.3l5.5-7.6h0c0.2-0.4,0.5-0.7,0.8-0.9c0.3-0.2,0.7-0.3,1.1-0.3c0.6,0,1.1,0.3,1.5,0.8c0.4,0.5,0.5,1.2,0.5,2
		V278.5z"/>
	<path d="M333.4,268.6c0-0.4,0.1-0.7,0.3-1c0.2-0.3,0.5-0.4,0.8-0.4h16.9c0.3,0,0.6,0.1,0.8,0.4c0.2,0.3,0.3,0.6,0.3,1
		c0,0.4-0.1,0.7-0.3,1c-0.2,0.3-0.5,0.4-0.8,0.4h-16.9c-0.3,0-0.6-0.1-0.8-0.4C333.5,269.3,333.4,269,333.4,268.6z M336.3,279.9
		c-0.4,0-0.7-0.1-1.1-0.3c-0.4-0.2-0.7-0.4-0.9-0.8c-0.3-0.3-0.5-0.7-0.7-1.2c-0.2-0.5-0.3-1-0.3-1.6v-2.6c0-0.5,0.1-0.9,0.4-1
		c0.2-0.2,0.6-0.3,1.2-0.3h16c0.3,0,0.6,0.1,0.8,0.4c0.2,0.3,0.3,0.6,0.3,1s-0.1,0.7-0.3,1c-0.2,0.3-0.5,0.4-0.8,0.4h-15.3v1.4
		c0,0.2,0.1,0.4,0.2,0.5c0.1,0.1,0.3,0.2,0.5,0.2h15.1c0.3,0,0.6,0.1,0.8,0.4c0.2,0.3,0.3,0.6,0.3,1s-0.1,0.7-0.3,1
		c-0.2,0.3-0.5,0.4-0.8,0.4H336.3z"/>
</g>
</svg>
