<svg id="Layer_1" data-name="Layer 1" xmlns="http://www.w3.org/2000/svg" viewBox="0 0 354.47 47.37"><title>Ms. Count wordmark</title><path d="M83.39,260.31a2.28,2.28,0,0,1-3.64,0A3.36,3.36,0,0,1,79,258.1V236a3.36,3.36,0,0,1,.75-2.21,2.28,2.28,0,0,1,1.82-.91,1.83,1.83,0,0,1,1,.26,5.71,5.71,0,0,1,.86.65,71,71,0,0,0,5.92,5.72,24.57,24.57,0,0,0,4.55,3.12,12.63,12.63,0,0,0,3.88,1.3,27.62,27.62,0,0,0,3.91.26,30.8,30.8,0,0,0,3.88-.23,11.45,11.45,0,0,0,3.8-1.27,25.62,25.62,0,0,0,4.5-3.12,71.58,71.58,0,0,0,6-5.78,2.62,2.62,0,0,1,1.82-.91,2.28,2.28,0,0,1,1.82.91,3.36,3.36,0,0,1,.75,2.21v22.1a3.36,3.36,0,0,1-.75,2.21,2.28,2.28,0,0,1-3.64,0,3.36,3.36,0,0,1-.75-2.21V242.7a38.47,38.47,0,0,1-4.63,3.9,26,26,0,0,1-4.34,2.5,18.77,18.77,0,0,1-4.2,1.33,23,23,0,0,1-4.23.39,24.31,24.31,0,0,1-4.42-.39A18.66,18.66,0,0,1,93,249.1a24.27,24.27,0,0,1-4.28-2.5,41.3,41.3,0,0,1-4.58-3.9v15.4A3.36,3.36,0,0,1,83.39,260.31Zm14.94-2.21a4.35,4.35,0,0,1,1-2.86,3,3,0,0,1,4.71,0,4.73,4.73,0,0,1,0,5.72,3,3,0,0,1-4.71,0A4.35,4.35,0,0,1,98.33,258.1Z" transform="translate(-79 -232.88)"/><path d="M133.88,249.49a7.37,7.37,0,0,1-2.25-1.85,9.11,9.11,0,0,1-1.53-2.73,10.44,10.44,0,0,1,0-6.76,9.11,9.11,0,0,1,1.53-2.73,7.37,7.37,0,0,1,2.25-1.85,5.84,5.84,0,0,1,2.78-.68h32.5a2.28,2.28,0,0,1,1.82.91,3.63,3.63,0,0,1,0,4.42,2.28,2.28,0,0,1-1.82.91H136.56a1.86,1.86,0,0,0-1.42.68,2.48,2.48,0,0,0-.62,1.72,2.51,2.51,0,0,0,.62,1.69,1.83,1.83,0,0,0,1.42.71h29.61a6,6,0,0,1,2.81.68,7.29,7.29,0,0,1,2.28,1.85,9,9,0,0,1,1.53,2.76,10.18,10.18,0,0,1,.56,3.41,9.89,9.89,0,0,1-.56,3.38,9.11,9.11,0,0,1-1.53,2.73,6.88,6.88,0,0,1-2.28,1.82,6.25,6.25,0,0,1-2.81.65H133.72a2.28,2.28,0,0,1-1.82-.91,3.63,3.63,0,0,1,0-4.42,2.28,2.28,0,0,1,1.82-.91h32.66a1.79,1.79,0,0,0,1.39-.68,2.45,2.45,0,0,0,.59-1.66,2.67,2.67,0,0,0-.59-1.75,1.76,1.76,0,0,0-1.39-.71H136.67A5.84,5.84,0,0,1,133.88,249.49Z" transform="translate(-79 -232.88)"/><path d="M178.7,258.1a4.35,4.35,0,0,1,1-2.86,3,3,0,0,1,4.71,0,4.73,4.73,0,0,1,0,5.72,3,3,0,0,1-4.71,0A4.35,4.35,0,0,1,178.7,258.1Z" transform="translate(-79 -232.88)"/><path d="M197.65,247.05a19.14,19.14,0,0,1,.67-5,16.53,16.53,0,0,1,2-4.55,11.68,11.68,0,0,1,3.11-3.35,6.92,6.92,0,0,1,4.12-1.3h31.22a2.28,2.28,0,0,1,1.82.91,3.63,3.63,0,0,1,0,4.42,2.28,2.28,0,0,1-1.82.91H208.63a5.14,5.14,0,0,0-3,.81,6.13,6.13,0,0,0-1.82,2,7.78,7.78,0,0,0-.91,2.57,13.84,13.84,0,0,0,0,5.13,7.78,7.78,0,0,0,.91,2.57,6.12,6.12,0,0,0,1.82,2,5.13,5.13,0,0,0,3,.81h30.09a2.29,2.29,0,0,1,1.82.91,3.64,3.64,0,0,1,0,4.42,2.28,2.28,0,0,1-1.82.91H207a6.29,6.29,0,0,1-3.91-1.3,11.36,11.36,0,0,1-2.92-3.35A17.45,17.45,0,0,1,198.3,252,20.1,20.1,0,0,1,197.65,247.05Z" transform="translate(-79 -232.88)"/><path d="M290.24,247.05a19.17,19.17,0,0,1-.67,5,16.57,16.57,0,0,1-2,4.55,11.68,11.68,0,0,1-3.11,3.35,6.92,6.92,0,0,1-4.12,1.3H256a6.88,6.88,0,0,1-3.91-1.46,11.93,11.93,0,0,1-2.92-3.35,17,17,0,0,1-1.85-4.48,18.82,18.82,0,0,1,0-9.85,16.56,16.56,0,0,1,2-4.55,11.69,11.69,0,0,1,3.11-3.35,6.92,6.92,0,0,1,4.12-1.3h24.42a6.9,6.9,0,0,1,3.91,1.46,12,12,0,0,1,2.92,3.35,17.05,17.05,0,0,1,1.85,4.48A19.3,19.3,0,0,1,290.24,247.05Zm-8,7.12a6,6,0,0,0,1.85-2,7.78,7.78,0,0,0,.91-2.57,13.78,13.78,0,0,0,0-5.13,7.78,7.78,0,0,0-.91-2.57,6,6,0,0,0-1.85-2,5.17,5.17,0,0,0-3-.81H257.63a5.14,5.14,0,0,0-3,.81,6.14,6.14,0,0,0-1.82,2,7.76,7.76,0,0,0-.91,2.57,13.78,13.78,0,0,0,0,5.13,7.75,7.75,0,0,0,.91,2.57,6.13,6.13,0,0,0,1.82,2,5.14,5.14,0,0,0,3,.81h21.63A5.16,5.16,0,0,0,282.26,254.17Z" transform="translate(-79 -232.88)"/><path d="M301,249.62a7.8,7.8,0,0,0,.91,2.57,6.14,6.14,0,0,0,1.82,2,5.13,5.13,0,0,0,3,.81H328a5.16,5.16,0,0,0,3-.81,6.05,6.05,0,0,0,1.85-2,7.82,7.82,0,0,0,.91-2.57,15.24,15.24,0,0,0,.24-2.57v-11a3.36,3.36,0,0,1,.75-2.21,2.28,2.28,0,0,1,3.64,0,3.37,3.37,0,0,1,.75,2.21v11a19.17,19.17,0,0,1-.67,5,16.57,16.57,0,0,1-2,4.55,11.68,11.68,0,0,1-3.11,3.35,6.92,6.92,0,0,1-4.12,1.3H304.91a6.88,6.88,0,0,1-3.91-1.46,11.93,11.93,0,0,1-2.92-3.35,17,17,0,0,1-1.85-4.48,19.29,19.29,0,0,1-.64-4.87v-11a3.36,3.36,0,0,1,.75-2.21,2.28,2.28,0,0,1,3.64,0,3.37,3.37,0,0,1,.75,2.21v11A15.24,15.24,0,0,0,301,249.62Z" transform="translate(-79 -232.88)"/><path d="M381.74,233.79a2.28,2.28,0,0,1,3.64,0,3.37,3.37,0,0,1,.75,2.21v18.92a6.9,6.9,0,0,1-1.47,4.48,4.54,4.54,0,0,1-3.67,1.82,4.31,4.31,0,0,1-1.47-.26,4.73,4.73,0,0,1-1.31-.72L353.69,242q-1-.71-1.69-1.14a2.24,2.24,0,0,0-1.1-.42q-.8,0-1,1.23a22.32,22.32,0,0,0-.21,3.58v12.8a3.36,3.36,0,0,1-.75,2.21,2.28,2.28,0,0,1-3.64,0,3.36,3.36,0,0,1-.75-2.21V239.19A6.9,6.9,0,0,1,346,234.7a4.54,4.54,0,0,1,3.67-1.82,4.34,4.34,0,0,1,1.47.26,4.81,4.81,0,0,1,1.31.72L377,252.06q1,.72,1.69,1.14a2.22,2.22,0,0,0,1.1.42q.8,0,1-1.23a22.43,22.43,0,0,0,.21-3.58V236A3.36,3.36,0,0,1,381.74,233.79Z" transform="translate(-79 -232.88)"/><path d="M432.72,233.79a3.63,3.63,0,0,1,0,4.42,2.28,2.28,0,0,1-1.82.91H415v19a3.36,3.36,0,0,1-.75,2.21,2.28,2.28,0,0,1-3.64,0,3.36,3.36,0,0,1-.75-2.21v-19H393.85a2.51,2.51,0,0,1-1.66-1,3.29,3.29,0,0,1-.7-2.11,3.36,3.36,0,0,1,.75-2.21,2.28,2.28,0,0,1,1.82-.91H430.9A2.28,2.28,0,0,1,432.72,233.79Z" transform="translate(-79 -232.88)"/><path d="M161.81,279.44a1,1,0,0,1-1.62,0,1.5,1.5,0,0,1-.33-1V268.6a1.5,1.5,0,0,1,.33-1,1,1,0,0,1,.81-.41.82.82,0,0,1,.43.12,2.5,2.5,0,0,1,.38.29,31.57,31.57,0,0,0,2.64,2.55,10.94,10.94,0,0,0,2,1.39,5.64,5.64,0,0,0,1.73.58,12.29,12.29,0,0,0,1.74.12,13.78,13.78,0,0,0,1.73-.1,5.12,5.12,0,0,0,1.7-.57,11.5,11.5,0,0,0,2-1.39,32,32,0,0,0,2.66-2.58,1.17,1.17,0,0,1,.81-.41,1,1,0,0,1,.81.41,1.5,1.5,0,0,1,.33,1v9.86a1.5,1.5,0,0,1-.33,1,1,1,0,0,1-1.62,0,1.5,1.5,0,0,1-.33-1v-6.87a17.23,17.23,0,0,1-2.07,1.74,11.65,11.65,0,0,1-1.94,1.12,8.37,8.37,0,0,1-1.87.59,10.25,10.25,0,0,1-1.89.17,10.83,10.83,0,0,1-2-.17,8.34,8.34,0,0,1-1.89-.59,10.86,10.86,0,0,1-1.91-1.12,18.46,18.46,0,0,1-2-1.74v6.87A1.5,1.5,0,0,1,161.81,279.44Zm6.67-1a1.94,1.94,0,0,1,.43-1.28,1.32,1.32,0,0,1,2.1,0,2.11,2.11,0,0,1,0,2.55,1.32,1.32,0,0,1-2.1,0A1.94,1.94,0,0,1,168.48,278.46Z" transform="translate(-79 -232.88)"/><path d="M182.4,268.6a1.5,1.5,0,0,1,.33-1,1,1,0,0,1,.81-.41h16.94a1,1,0,0,1,.81.41,1.62,1.62,0,0,1,0,2,1,1,0,0,1-.81.41H183.55a1,1,0,0,1-.81-.41A1.5,1.5,0,0,1,182.4,268.6Zm2.92,11.25a2.24,2.24,0,0,1-1.05-.28,3,3,0,0,1-.93-.77,4.16,4.16,0,0,1-.67-1.19,4.39,4.39,0,0,1-.26-1.57v-2.61a1.21,1.21,0,0,1,.37-1,2,2,0,0,1,1.16-.26h16a1,1,0,0,1,.81.41,1.62,1.62,0,0,1,0,2,1,1,0,0,1-.81.41H184.7v1.42a.72.72,0,0,0,.2.51.7.7,0,0,0,.54.22h15.05a1,1,0,0,1,.81.41,1.62,1.62,0,0,1,0,2,1,1,0,0,1-.81.41Z" transform="translate(-79 -232.88)"/><path d="M222.42,267.61a1.62,1.62,0,0,1,0,2,1,1,0,0,1-.81.41h-7.07v8.47a1.5,1.5,0,0,1-.33,1,1,1,0,0,1-1.62,0,1.5,1.5,0,0,1-.33-1V270h-7.17a1.12,1.12,0,0,1-.74-.45,1.47,1.47,0,0,1-.31-.94,1.5,1.5,0,0,1,.33-1,1,1,0,0,1,.81-.41h16.44A1,1,0,0,1,222.42,267.61Z" transform="translate(-79 -232.88)"/><path d="M241.82,276q.67.57,1.36,1.23a2.48,2.48,0,0,1,.46.54,1.31,1.31,0,0,1,.19.71,1.5,1.5,0,0,1-.33,1,1,1,0,0,1-.81.41,1.17,1.17,0,0,1-.81-.41q-1-.87-2-1.68a17.62,17.62,0,0,0-2.14-1.45,11.65,11.65,0,0,0-2.3-1,8.22,8.22,0,0,0-2.48-.38h-4.75a.84.84,0,0,0-.53.35,1.18,1.18,0,0,0-.21.73v2.47a1.47,1.47,0,0,1-.35,1,1,1,0,0,1-.8.41,1,1,0,0,1-.81-.41,1.49,1.49,0,0,1-.34-1v-2.78a4.14,4.14,0,0,1,.23-1.38,3.78,3.78,0,0,1,.61-1.13,2.86,2.86,0,0,1,.91-.75,2.44,2.44,0,0,1,1.15-.28h12.66a.83.83,0,0,0,.63-.3,1.1,1.1,0,0,0,.28-.77,1.12,1.12,0,0,0-.28-.75.82.82,0,0,0-.63-.32H226.29a1,1,0,0,1-.81-.41,1.62,1.62,0,0,1,0-2,1,1,0,0,1,.81-.41H240.6a2.68,2.68,0,0,1,1.25.3,3.38,3.38,0,0,1,1,.83,3.93,3.93,0,0,1,.69,1.22,4.67,4.67,0,0,1,0,3,3.93,3.93,0,0,1-.69,1.22,3.38,3.38,0,0,1-1,.83,2.68,2.68,0,0,1-1.25.3h-.1Q241.15,275.41,241.82,276Z" transform="translate(-79 -232.88)"/><path d="M265.66,273.53a8.54,8.54,0,0,1-.3,2.22,7.39,7.39,0,0,1-.87,2,5.23,5.23,0,0,1-1.39,1.49,3.09,3.09,0,0,1-1.84.58H250.37a3.07,3.07,0,0,1-1.74-.65,5.32,5.32,0,0,1-1.3-1.49,7.56,7.56,0,0,1-.82-2,8.38,8.38,0,0,1,0-4.39,7.37,7.37,0,0,1,.87-2,5.21,5.21,0,0,1,1.39-1.49,3.09,3.09,0,0,1,1.84-.58H261.5a3.08,3.08,0,0,1,1.74.65,5.34,5.34,0,0,1,1.3,1.49,7.62,7.62,0,0,1,.82,2A8.65,8.65,0,0,1,265.66,273.53Zm-3.56,3.18a2.69,2.69,0,0,0,.82-.88,3.46,3.46,0,0,0,.41-1.15,6.16,6.16,0,0,0,0-2.29,3.47,3.47,0,0,0-.41-1.15,2.69,2.69,0,0,0-.82-.88,2.3,2.3,0,0,0-1.34-.36h-9.65a2.29,2.29,0,0,0-1.35.36,2.74,2.74,0,0,0-.81.88,3.49,3.49,0,0,0-.41,1.15,6.16,6.16,0,0,0,0,2.29,3.49,3.49,0,0,0,.41,1.15,2.73,2.73,0,0,0,.81.88,2.29,2.29,0,0,0,1.35.36h9.65A2.3,2.3,0,0,0,262.1,276.7Z" transform="translate(-79 -232.88)"/><path d="M284.65,267.61a1,1,0,0,1,1.63,0,1.5,1.5,0,0,1,.33,1V277a3.07,3.07,0,0,1-.66,2,2,2,0,0,1-1.64.81,1.92,1.92,0,0,1-.66-.12,2.12,2.12,0,0,1-.58-.32l-10.94-8.12-.75-.51a1,1,0,0,0-.49-.19c-.24,0-.39.18-.45.55a10,10,0,0,0-.09,1.59v5.71a1.5,1.5,0,0,1-.33,1,1,1,0,0,1-1.62,0,1.5,1.5,0,0,1-.33-1V270a3.08,3.08,0,0,1,.66-2,2,2,0,0,1,1.64-.81,1.93,1.93,0,0,1,.66.12,2.15,2.15,0,0,1,.59.32l10.94,8.12.75.51a1,1,0,0,0,.49.19c.24,0,.39-.18.45-.55a10,10,0,0,0,.1-1.59V268.6A1.5,1.5,0,0,1,284.65,267.61Z" transform="translate(-79 -232.88)"/><path d="M308.44,273.53a8.54,8.54,0,0,1-.3,2.22,7.39,7.39,0,0,1-.87,2,5.23,5.23,0,0,1-1.39,1.49,3.09,3.09,0,0,1-1.84.58H293.16a3.07,3.07,0,0,1-1.74-.65,5.32,5.32,0,0,1-1.3-1.49,7.56,7.56,0,0,1-.82-2,8.38,8.38,0,0,1,0-4.39,7.37,7.37,0,0,1,.87-2,5.21,5.21,0,0,1,1.39-1.49,3.09,3.09,0,0,1,1.84-.58h10.89a3.08,3.08,0,0,1,1.74.65,5.34,5.34,0,0,1,1.3,1.49,7.62,7.62,0,0,1,.82,2A8.65,8.65,0,0,1,308.44,273.53Zm-3.56,3.18a2.69,2.69,0,0,0,.82-.88,3.46,3.46,0,0,0,.41-1.15,6.16,6.16,0,0,0,0-2.29,3.47,3.47,0,0,0-.41-1.15,2.69,2.69,0,0,0-.82-.88,2.3,2.3,0,0,0-1.34-.36H293.9a2.29,2.29,0,0,0-1.35.36,2.74,2.74,0,0,0-.81.88,3.49,3.49,0,0,0-.41,1.15,6.16,6.16,0,0,0,0,2.29,3.49,3.49,0,0,0,.41,1.15,2.73,2.73,0,0,0,.81.88,2.29,2.29,0,0,0,1.35.36h9.65A2.3,2.3,0,0,0,304.88,276.7Z" transform="translate(-79 -232.88)"/><path d="M331,278.46a1.5,1.5,0,0,1-.33,1,1,1,0,0,1-1.62,0,1.5,1.5,0,0,1-.33-1v-6.32q0-1.19-.12-1.19t-.67.78L322.66,279a2,2,0,0,1-.76.65,2.32,2.32,0,0,1-2,0,2,2,0,0,1-.76-.65l-5.26-7.25q-.55-.78-.67-.78t-.12,1.19v6.32a1.5,1.5,0,0,1-.33,1,1,1,0,0,1-1.62,0,1.5,1.5,0,0,1-.33-1V270a3.43,3.43,0,0,1,.55-2,1.73,1.73,0,0,1,1.5-.81,1.65,1.65,0,0,1,1,.35,4.61,4.61,0,0,1,.84.84l5.5,7.6a2.69,2.69,0,0,0,.3.3.51.51,0,0,0,.74,0,2.79,2.79,0,0,0,.3-.3l5.47-7.6h0a2.73,2.73,0,0,1,.81-.87,1.86,1.86,0,0,1,1.05-.32,1.73,1.73,0,0,1,1.51.81,3.45,3.45,0,0,1,.55,2Z" transform="translate(-79 -232.88)"/><path d="M333.38,268.6a1.5,1.5,0,0,1,.33-1,1,1,0,0,1,.81-.41h16.94a1,1,0,0,1,.81.41,1.62,1.62,0,0,1,0,2,1,1,0,0,1-.81.41H334.53a1,1,0,0,1-.81-.41A1.5,1.5,0,0,1,333.38,268.6Zm2.92,11.25a2.24,2.24,0,0,1-1.05-.28,3,3,0,0,1-.93-.77,4.19,4.19,0,0,1-.67-1.19,4.41,4.41,0,0,1-.26-1.57v-2.61a1.21,1.21,0,0,1,.37-1,2,2,0,0,1,1.16-.26h16a1,1,0,0,1,.81.41,1.62,1.62,0,0,1,0,2,1,1,0,0,1-.81.41H335.68v1.42a.72.72,0,0,0,.2.51.7.7,0,0,0,.54.22h15.05a1,1,0,0,1,.81.41,1.62,1.62,0,0,1,0,2,1,1,0,0,1-.81.41Z" transform="translate(-79 -232.88)"/></svg>